<svg width="379" height="407" viewBox="0 0 379 407" fill="none" xmlns="http://www.w3.org/2000/svg">
<g filter="url('#filter0_d_103_849')">
<rect x="63" y="25" width="268.72" height="296.928" rx="8" fill="white"></rect>
</g>
<path d="M121.179 68.4334V58.9789H126.884V59.9945H122.323V63.1891H126.589V64.2047H122.323V67.4178H126.958V68.4334H121.179ZM130.887 68.5996C130.438 68.5996 130.03 68.515 129.664 68.3457C129.297 68.1733 129.007 67.9256 128.791 67.6024C128.576 67.2762 128.468 66.8823 128.468 66.4206C128.468 66.0144 128.548 65.6851 128.708 65.4327C128.868 65.1773 129.082 64.9772 129.35 64.8326C129.617 64.6879 129.913 64.5802 130.236 64.5094C130.562 64.4355 130.89 64.3771 131.219 64.334C131.65 64.2786 132 64.237 132.267 64.2093C132.538 64.1786 132.735 64.1278 132.858 64.057C132.984 63.9862 133.047 63.8631 133.047 63.6877V63.6507C133.047 63.1952 132.923 62.8413 132.674 62.589C132.427 62.3366 132.053 62.2104 131.552 62.2104C131.032 62.2104 130.624 62.3243 130.328 62.552C130.033 62.7798 129.825 63.0229 129.705 63.2814L128.671 62.9121C128.856 62.4812 129.102 62.1458 129.41 61.9057C129.721 61.6626 130.059 61.4933 130.425 61.3979C130.795 61.2994 131.158 61.2502 131.515 61.2502C131.743 61.2502 132.004 61.2779 132.3 61.3333C132.598 61.3856 132.886 61.4948 133.163 61.661C133.443 61.8272 133.675 62.0781 133.86 62.4135C134.045 62.749 134.137 63.1983 134.137 63.7615V68.4334H133.047V67.4732H132.992C132.918 67.6271 132.795 67.7917 132.623 67.9671C132.45 68.1426 132.221 68.2918 131.935 68.4149C131.649 68.5381 131.299 68.5996 130.887 68.5996ZM131.053 67.6209C131.484 67.6209 131.847 67.5363 132.143 67.367C132.441 67.1977 132.666 66.9792 132.817 66.7115C132.971 66.4437 133.047 66.1621 133.047 65.8666V64.8695C133.001 64.9249 132.9 64.9757 132.743 65.0218C132.589 65.0649 132.41 65.1034 132.207 65.1372C132.007 65.168 131.812 65.1957 131.621 65.2203C131.433 65.2419 131.281 65.2604 131.164 65.2757C130.881 65.3127 130.616 65.3727 130.37 65.4558C130.127 65.5358 129.93 65.6574 129.779 65.8205C129.631 65.9805 129.557 66.199 129.557 66.476C129.557 66.8546 129.697 67.1408 129.978 67.3347C130.261 67.5255 130.619 67.6209 131.053 67.6209ZM136.126 68.4334V61.3425H137.178V62.4135H137.252C137.381 62.0627 137.615 61.778 137.954 61.5595C138.292 61.341 138.674 61.2317 139.099 61.2317C139.179 61.2317 139.279 61.2332 139.399 61.2363C139.519 61.2394 139.609 61.244 139.671 61.2502V62.3581C139.634 62.3489 139.549 62.335 139.417 62.3166C139.288 62.295 139.151 62.2843 139.006 62.2843C138.489 62.2843 138.061 62.4412 137.723 62.7551C137.384 63.0691 137.215 63.4661 137.215 63.9462V68.4334H136.126ZM142.052 64.1678V68.4334H140.962V61.3425H142.015V62.4505H142.107C142.274 62.0904 142.526 61.8011 142.864 61.5826C143.203 61.361 143.64 61.2502 144.175 61.2502C144.893 61.2502 145.471 61.4702 145.911 61.9103C146.354 62.3504 146.576 63.0229 146.576 63.9277V68.4334H145.487V64.0016C145.487 63.4445 145.342 63.0106 145.053 62.6997C144.763 62.3858 144.366 62.2289 143.862 62.2289C143.341 62.2289 142.909 62.3981 142.564 62.7367C142.223 63.0721 142.052 63.5492 142.052 64.1678ZM148.567 68.4334V61.3425H149.656V68.4334H148.567ZM149.121 60.1607C148.909 60.1607 148.725 60.0884 148.572 59.9437C148.421 59.7991 148.345 59.6252 148.345 59.422C148.345 59.2189 148.421 59.045 148.572 58.9004C148.725 58.7557 148.909 58.6834 149.121 58.6834C149.333 58.6834 149.515 58.7557 149.666 58.9004C149.82 59.045 149.896 59.2189 149.896 59.422C149.896 59.6252 149.82 59.7991 149.666 59.9437C149.515 60.0884 149.333 60.1607 149.121 60.1607ZM152.741 64.1678V68.4334H151.652V61.3425H152.704V62.4505H152.797C152.963 62.0904 153.215 61.8011 153.554 61.5826C153.892 61.361 154.329 61.2502 154.865 61.2502C155.582 61.2502 156.161 61.4702 156.601 61.9103C157.044 62.3504 157.266 63.0229 157.266 63.9277V68.4334H156.176V64.0016C156.176 63.4445 156.031 63.0106 155.742 62.6997C155.453 62.3858 155.056 62.2289 154.551 62.2289C154.031 62.2289 153.598 62.3981 153.254 62.7367C152.912 63.0721 152.741 63.5492 152.741 64.1678ZM162.119 71.2402C161.328 71.2402 160.701 71.0956 160.24 70.8063C159.781 70.5201 159.441 70.1907 159.219 69.8184L160.087 69.209C160.186 69.3382 160.31 69.486 160.461 69.6522C160.612 69.8214 160.818 69.9676 161.08 70.0907C161.345 70.2169 161.691 70.28 162.119 70.28C162.691 70.28 163.163 70.1415 163.536 69.8645C163.908 69.5875 164.094 69.1536 164.094 68.5627V67.1223H164.002C163.922 67.2516 163.808 67.4116 163.66 67.6024C163.516 67.7902 163.307 67.9579 163.033 68.1056C162.762 68.2503 162.396 68.3226 161.934 68.3226C161.361 68.3226 160.848 68.1872 160.392 67.9164C159.94 67.6455 159.581 67.2516 159.316 66.7345C159.055 66.2175 158.924 65.5897 158.924 64.851C158.924 64.1247 159.052 63.4922 159.307 62.9537C159.563 62.412 159.918 61.9934 160.374 61.698C160.829 61.3994 161.355 61.2502 161.952 61.2502C162.414 61.2502 162.78 61.3271 163.051 61.481C163.325 61.6318 163.534 61.8041 163.679 61.998C163.827 62.1889 163.941 62.3458 164.021 62.4689H164.131V61.3425H165.184V68.6365C165.184 69.2459 165.045 69.7414 164.768 70.123C164.495 70.5077 164.125 70.7894 163.66 70.9679C163.199 71.1494 162.685 71.2402 162.119 71.2402ZM162.082 67.3439C162.737 67.3439 163.239 67.1223 163.587 66.6791C163.937 66.2329 164.113 65.6174 164.113 64.8326C164.113 64.0662 163.941 63.4415 163.596 62.9583C163.251 62.472 162.746 62.2289 162.082 62.2289C161.62 62.2289 161.235 62.3458 160.928 62.5797C160.623 62.8136 160.394 63.1275 160.24 63.5215C160.089 63.9154 160.013 64.3524 160.013 64.8326C160.013 65.5712 160.187 66.1744 160.535 66.6422C160.883 67.11 161.398 67.3439 162.082 67.3439ZM170.982 68.4334V58.9789H174.288C174.946 58.9789 175.489 59.0927 175.917 59.3205C176.345 59.5452 176.664 59.8483 176.873 60.2299C177.082 60.6085 177.187 61.0286 177.187 61.4902C177.187 61.8965 177.114 62.2319 176.97 62.4966C176.828 62.7613 176.64 62.9706 176.407 63.1245C176.176 63.2783 175.925 63.3922 175.654 63.4661V63.5584C175.943 63.5769 176.234 63.6784 176.527 63.8631C176.819 64.0478 177.064 64.3124 177.261 64.6571C177.458 65.0018 177.556 65.4235 177.556 65.922C177.556 66.396 177.448 66.8223 177.233 67.2008C177.018 67.5794 176.677 67.8794 176.213 68.101C175.748 68.3226 175.143 68.4334 174.398 68.4334H170.982ZM172.127 67.4178H174.398C175.146 67.4178 175.677 67.2731 175.991 66.9838C176.308 66.6915 176.467 66.3375 176.467 65.922C176.467 65.602 176.385 65.3065 176.222 65.0357C176.059 64.7618 175.826 64.5433 175.525 64.3801C175.223 64.214 174.866 64.1309 174.454 64.1309H172.127V67.4178ZM172.127 63.1337H174.251C174.768 63.1337 175.205 62.9844 175.562 62.6859C175.919 62.3874 176.097 61.9888 176.097 61.4902C176.097 61.0747 175.953 60.7224 175.663 60.4331C175.374 60.1407 174.915 59.9945 174.288 59.9945H172.127V63.1337ZM179.954 71.1848C179.77 71.1848 179.605 71.1694 179.46 71.1387C179.316 71.111 179.216 71.0833 179.16 71.0556L179.437 70.0953C179.834 70.1969 180.165 70.1938 180.43 70.0861C180.698 69.9815 180.927 69.6645 181.118 69.1351L181.358 68.4703L178.736 61.3425H179.917L181.875 66.9931H181.949L183.906 61.3425H185.088L182.041 69.5783C181.641 70.6493 180.945 71.1848 179.954 71.1848ZM190.33 68.4334V58.9789H193.524C194.266 58.9789 194.872 59.1127 195.343 59.3805C195.817 59.6452 196.168 60.0037 196.396 60.4561C196.624 60.9086 196.738 61.4133 196.738 61.9703C196.738 62.5274 196.624 63.0337 196.396 63.4892C196.171 63.9447 195.823 64.3078 195.353 64.5787C194.882 64.8464 194.279 64.9803 193.543 64.9803H191.475V68.4334H190.33ZM191.475 63.9647H193.506C194.266 63.9647 194.806 63.7738 195.126 63.3922C195.45 63.0106 195.611 62.5366 195.611 61.9703C195.611 61.401 195.45 60.9301 195.126 60.5577C194.803 60.1822 194.257 59.9945 193.488 59.9945H191.475V63.9647ZM199.524 58.9789V68.4334H198.434V58.9789H199.524ZM203.606 68.5996C203.156 68.5996 202.749 68.515 202.382 68.3457C202.016 68.1733 201.725 67.9256 201.51 67.6024C201.294 67.2762 201.187 66.8823 201.187 66.4206C201.187 66.0144 201.267 65.6851 201.427 65.4327C201.587 65.1773 201.801 64.9772 202.068 64.8326C202.336 64.6879 202.632 64.5802 202.955 64.5094C203.281 64.4355 203.609 64.3771 203.938 64.334C204.369 64.2786 204.718 64.237 204.986 64.2093C205.257 64.1786 205.454 64.1278 205.577 64.057C205.703 63.9862 205.766 63.8631 205.766 63.6877V63.6507C205.766 63.1952 205.642 62.8413 205.392 62.589C205.146 62.3366 204.772 62.2104 204.27 62.2104C203.75 62.2104 203.343 62.3243 203.047 62.552C202.752 62.7798 202.544 63.0229 202.424 63.2814L201.39 62.9121C201.574 62.4812 201.821 62.1458 202.128 61.9057C202.439 61.6626 202.778 61.4933 203.144 61.3979C203.513 61.2994 203.877 61.2502 204.234 61.2502C204.461 61.2502 204.723 61.2779 205.018 61.3333C205.317 61.3856 205.605 61.4948 205.882 61.661C206.162 61.8272 206.394 62.0781 206.579 62.4135C206.763 62.749 206.856 63.1983 206.856 63.7615V68.4334H205.766V67.4732H205.711C205.637 67.6271 205.514 67.7917 205.342 67.9671C205.169 68.1426 204.94 68.2918 204.654 68.4149C204.367 68.5381 204.018 68.5996 203.606 68.5996ZM203.772 67.6209C204.203 67.6209 204.566 67.5363 204.861 67.367C205.16 67.1977 205.385 66.9792 205.535 66.7115C205.689 66.4437 205.766 66.1621 205.766 65.8666V64.8695C205.72 64.9249 205.619 64.9757 205.462 65.0218C205.308 65.0649 205.129 65.1034 204.926 65.1372C204.726 65.168 204.531 65.1957 204.34 65.2203C204.152 65.2419 204 65.2604 203.883 65.2757C203.6 65.3127 203.335 65.3727 203.089 65.4558C202.846 65.5358 202.649 65.6574 202.498 65.8205C202.35 65.9805 202.276 66.199 202.276 66.476C202.276 66.8546 202.416 67.1408 202.696 67.3347C202.979 67.5255 203.338 67.6209 203.772 67.6209ZM211.928 61.3425V62.2658H210.414V66.4022C210.414 66.7099 210.458 66.9407 210.548 67.0946C210.64 67.2454 210.757 67.347 210.899 67.3993C211.043 67.4486 211.196 67.4732 211.356 67.4732C211.476 67.4732 211.574 67.467 211.651 67.4547C211.728 67.4393 211.79 67.427 211.836 67.4178L212.057 68.3965C211.983 68.4242 211.88 68.4519 211.748 68.4796C211.616 68.5104 211.448 68.5257 211.245 68.5257C210.937 68.5257 210.635 68.4596 210.34 68.3272C210.048 68.1949 209.804 67.9933 209.611 67.7225C209.42 67.4516 209.324 67.11 209.324 66.6976V62.2658H208.253V61.3425H209.324V59.6436H210.414V61.3425H211.928ZM216.725 61.3425V62.2658H215.137V68.4334H214.047V62.2658H212.902V61.3425H214.047V60.3638C214.047 59.9576 214.142 59.619 214.333 59.3482C214.524 59.0773 214.772 58.8742 215.077 58.7388C215.381 58.6034 215.703 58.5357 216.041 58.5357C216.309 58.5357 216.528 58.5572 216.697 58.6003C216.866 58.6434 216.992 58.6834 217.075 58.7203L216.762 59.6621C216.706 59.6436 216.629 59.6206 216.531 59.5929C216.435 59.5652 216.309 59.5513 216.152 59.5513C215.792 59.5513 215.532 59.6421 215.372 59.8237C215.215 60.0053 215.137 60.2715 215.137 60.6223V61.3425H216.725ZM220.84 68.5811C220.2 68.5811 219.638 68.4288 219.155 68.1241C218.675 67.8194 218.3 67.3932 218.029 66.8453C217.761 66.2975 217.627 65.6574 217.627 64.9249C217.627 64.1863 217.761 63.5415 218.029 62.9906C218.3 62.4397 218.675 62.0119 219.155 61.7072C219.638 61.4025 220.2 61.2502 220.84 61.2502C221.48 61.2502 222.04 61.4025 222.521 61.7072C223.004 62.0119 223.379 62.4397 223.647 62.9906C223.918 63.5415 224.053 64.1863 224.053 64.9249C224.053 65.6574 223.918 66.2975 223.647 66.8453C223.379 67.3932 223.004 67.8194 222.521 68.1241C222.04 68.4288 221.48 68.5811 220.84 68.5811ZM220.84 67.6024C221.326 67.6024 221.727 67.4778 222.04 67.2285C222.354 66.9792 222.587 66.6515 222.738 66.2452C222.888 65.839 222.964 65.3988 222.964 64.9249C222.964 64.4509 222.888 64.0093 222.738 63.6C222.587 63.1906 222.354 62.8598 222.04 62.6074C221.727 62.355 221.326 62.2289 220.84 62.2289C220.354 62.2289 219.954 62.355 219.64 62.6074C219.326 62.8598 219.094 63.1906 218.943 63.6C218.792 64.0093 218.717 64.4509 218.717 64.9249C218.717 65.3988 218.792 65.839 218.943 66.2452C219.094 66.6515 219.326 66.9792 219.64 67.2285C219.954 67.4778 220.354 67.6024 220.84 67.6024ZM225.716 68.4334V61.3425H226.769V62.4135H226.843C226.972 62.0627 227.206 61.778 227.544 61.5595C227.883 61.341 228.265 61.2317 228.689 61.2317C228.769 61.2317 228.869 61.2332 228.989 61.2363C229.109 61.2394 229.2 61.244 229.262 61.2502V62.3581C229.225 62.3489 229.14 62.335 229.008 62.3166C228.879 62.295 228.742 62.2843 228.597 62.2843C228.08 62.2843 227.652 62.4412 227.314 62.7551C226.975 63.0691 226.806 63.4661 226.806 63.9462V68.4334H225.716ZM230.553 68.4334V61.3425H231.606V62.4505H231.698C231.846 62.0719 232.084 61.778 232.414 61.5687C232.743 61.3564 233.138 61.2502 233.6 61.2502C234.068 61.2502 234.457 61.3564 234.768 61.5687C235.082 61.778 235.327 62.0719 235.502 62.4505H235.576C235.758 62.0842 236.03 61.7934 236.393 61.5779C236.756 61.3594 237.192 61.2502 237.7 61.2502C238.334 61.2502 238.852 61.4487 239.255 61.8457C239.658 62.2396 239.86 62.8536 239.86 63.6877V68.4334H238.771V63.6877C238.771 63.1645 238.627 62.7905 238.341 62.5659C238.055 62.3412 237.718 62.2289 237.33 62.2289C236.832 62.2289 236.445 62.3797 236.172 62.6813C235.898 62.9798 235.761 63.3584 235.761 63.8169V68.4334H234.653V63.5769C234.653 63.1737 234.522 62.849 234.26 62.6028C233.999 62.3535 233.662 62.2289 233.249 62.2289C232.966 62.2289 232.701 62.3043 232.455 62.4551C232.212 62.6059 232.015 62.8152 231.864 63.0829C231.717 63.3476 231.643 63.6538 231.643 64.0016V68.4334H230.553ZM245.139 59.9945V58.9789H252.23V59.9945H249.257V68.4334H248.112V59.9945H245.139ZM253.701 71.1848C253.517 71.1848 253.352 71.1694 253.207 71.1387C253.063 71.111 252.963 71.0833 252.907 71.0556L253.184 70.0953C253.581 70.1969 253.912 70.1938 254.177 70.0861C254.445 69.9815 254.674 69.6645 254.865 69.1351L255.105 68.4703L252.483 61.3425H253.664L255.622 66.9931H255.696L257.653 61.3425H258.835L255.788 69.5783C255.388 70.6493 254.692 71.1848 253.701 71.1848ZM260.273 71.0925V61.3425H261.326V62.4689H261.455C261.535 62.3458 261.646 62.1889 261.787 61.998C261.932 61.8041 262.138 61.6318 262.406 61.481C262.677 61.3271 263.043 61.2502 263.505 61.2502C264.102 61.2502 264.628 61.3994 265.083 61.698C265.539 61.9965 265.894 62.4197 266.15 62.9675C266.405 63.5153 266.533 64.1616 266.533 64.9064C266.533 65.6574 266.405 66.3083 266.15 66.8592C265.894 67.407 265.54 67.8317 265.088 68.1333C264.636 68.4319 264.114 68.5811 263.523 68.5811C263.067 68.5811 262.703 68.5057 262.429 68.3549C262.155 68.201 261.944 68.0272 261.796 67.8333C261.649 67.6363 261.535 67.4732 261.455 67.3439H261.362V71.0925H260.273ZM261.344 64.888C261.344 65.6912 261.518 66.3452 261.866 66.85C262.217 67.3516 262.72 67.6024 263.375 67.6024C263.831 67.6024 264.211 67.4824 264.516 67.2424C264.823 66.9992 265.054 66.673 265.208 66.2637C265.365 65.8513 265.443 65.3927 265.443 64.888C265.443 64.3894 265.366 63.94 265.213 63.5399C265.062 63.1368 264.833 62.8182 264.525 62.5843C264.22 62.3474 263.837 62.2289 263.375 62.2289C262.71 62.2289 262.206 62.4735 261.861 62.9629C261.516 63.4522 261.344 64.0939 261.344 64.888ZM271.168 68.5811C270.485 68.5811 269.895 68.4303 269.4 68.1287C268.907 67.824 268.527 67.3993 268.259 66.8546C267.995 66.3068 267.862 65.6697 267.862 64.9434C267.862 64.217 267.995 63.5769 268.259 63.0229C268.527 62.4658 268.9 62.0319 269.377 61.7211C269.857 61.4071 270.417 61.2502 271.057 61.2502C271.426 61.2502 271.791 61.3117 272.151 61.4348C272.511 61.5579 272.839 61.758 273.134 62.035C273.43 62.3089 273.665 62.672 273.841 63.1245C274.016 63.5769 274.104 64.1339 274.104 64.7956V65.2573H268.957C268.981 66.0144 269.195 66.5945 269.598 66.9977C270.005 67.4009 270.528 67.6024 271.168 67.6024C271.596 67.6024 271.963 67.5101 272.271 67.3255C272.579 67.1408 272.802 66.8638 272.941 66.4945L273.993 66.7899C273.827 67.3255 273.495 67.7579 272.996 68.0872C272.497 68.4165 271.888 68.5811 271.168 68.5811ZM268.957 64.3155H272.996C272.996 63.7154 272.821 63.2183 272.47 62.8244C272.119 62.4274 271.648 62.2289 271.057 62.2289C270.642 62.2289 270.281 62.3258 269.977 62.5197C269.672 62.7136 269.432 62.9706 269.257 63.2907C269.081 63.6077 268.981 63.9493 268.957 64.3155Z" fill="#7C89A9"></path>
<path d="M115.714 288.282V295.555H114.834V288.282H115.714ZM118.305 292.273V295.555H117.467V290.1H118.276V290.952H118.347C118.475 290.675 118.669 290.453 118.93 290.285C119.19 290.114 119.526 290.029 119.938 290.029C120.49 290.029 120.935 290.198 121.273 290.537C121.614 290.875 121.785 291.393 121.785 292.089V295.555H120.947V292.146C120.947 291.717 120.835 291.383 120.613 291.144C120.39 290.903 120.085 290.782 119.697 290.782C119.297 290.782 118.964 290.912 118.699 291.173C118.436 291.431 118.305 291.798 118.305 292.273ZM127.28 291.322L126.527 291.535C126.454 291.345 126.33 291.168 126.158 291.002C125.985 290.836 125.715 290.754 125.348 290.754C125.014 290.754 124.736 290.83 124.513 290.984C124.293 291.136 124.183 291.329 124.183 291.563C124.183 291.772 124.259 291.936 124.41 292.057C124.562 292.178 124.799 292.278 125.121 292.359L125.93 292.558C126.896 292.794 127.379 293.287 127.379 294.035C127.379 294.347 127.289 294.627 127.109 294.873C126.932 295.119 126.683 295.313 126.364 295.455C126.044 295.597 125.672 295.668 125.249 295.668C124.692 295.668 124.232 295.548 123.867 295.306C123.503 295.065 123.272 294.712 123.175 294.248L123.97 294.049C124.119 294.636 124.541 294.93 125.234 294.93C125.625 294.93 125.935 294.847 126.165 294.681C126.397 294.513 126.513 294.312 126.513 294.077C126.513 293.692 126.243 293.436 125.703 293.31L124.794 293.097C124.294 292.979 123.928 292.795 123.693 292.547C123.461 292.296 123.345 291.982 123.345 291.606C123.345 291.298 123.432 291.026 123.604 290.789C123.78 290.552 124.017 290.366 124.318 290.232C124.621 290.097 124.964 290.029 125.348 290.029C125.888 290.029 126.312 290.147 126.619 290.384C126.929 290.621 127.15 290.933 127.28 291.322ZM131.113 290.1V290.81H129.948V293.992C129.948 294.229 129.982 294.406 130.051 294.525C130.122 294.641 130.212 294.719 130.321 294.759C130.432 294.797 130.549 294.816 130.673 294.816C130.765 294.816 130.841 294.811 130.9 294.802C130.959 294.79 131.006 294.781 131.042 294.773L131.212 295.526C131.156 295.548 131.076 295.569 130.974 295.59C130.873 295.614 130.744 295.626 130.587 295.626C130.351 295.626 130.119 295.575 129.891 295.473C129.666 295.371 129.479 295.216 129.33 295.008C129.183 294.799 129.11 294.537 129.11 294.219V290.81H128.286V290.1H129.11V288.793H129.948V290.1H131.113ZM134.079 295.683C133.733 295.683 133.419 295.617 133.138 295.487C132.856 295.355 132.632 295.164 132.466 294.915C132.301 294.665 132.218 294.362 132.218 294.006C132.218 293.694 132.279 293.441 132.403 293.246C132.526 293.05 132.69 292.896 132.896 292.785C133.102 292.674 133.329 292.591 133.578 292.536C133.829 292.479 134.081 292.434 134.334 292.401C134.666 292.359 134.935 292.327 135.14 292.305C135.349 292.282 135.5 292.243 135.595 292.188C135.692 292.134 135.741 292.039 135.741 291.904V291.876C135.741 291.525 135.645 291.253 135.453 291.059C135.264 290.865 134.976 290.768 134.59 290.768C134.19 290.768 133.876 290.855 133.649 291.031C133.422 291.206 133.262 291.393 133.17 291.592L132.374 291.308C132.516 290.976 132.706 290.718 132.942 290.533C133.181 290.346 133.442 290.216 133.724 290.143C134.008 290.067 134.287 290.029 134.562 290.029C134.737 290.029 134.938 290.05 135.165 290.093C135.395 290.133 135.616 290.217 135.829 290.345C136.045 290.473 136.224 290.666 136.366 290.924C136.508 291.182 136.579 291.528 136.579 291.961V295.555H135.741V294.816H135.698C135.641 294.934 135.546 295.061 135.414 295.196C135.281 295.331 135.105 295.446 134.885 295.54C134.665 295.635 134.396 295.683 134.079 295.683ZM134.207 294.93C134.538 294.93 134.817 294.865 135.045 294.734C135.274 294.604 135.447 294.436 135.563 294.23C135.681 294.024 135.741 293.808 135.741 293.58V292.813C135.705 292.856 135.627 292.895 135.506 292.93C135.388 292.964 135.251 292.993 135.094 293.019C134.94 293.043 134.79 293.064 134.643 293.083C134.499 293.1 134.382 293.114 134.292 293.126C134.074 293.154 133.87 293.2 133.681 293.264C133.494 293.326 133.342 293.419 133.226 293.545C133.113 293.668 133.056 293.836 133.056 294.049C133.056 294.34 133.164 294.56 133.379 294.71C133.597 294.856 133.873 294.93 134.207 294.93ZM140.41 297.714C139.802 297.714 139.32 297.603 138.965 297.38C138.612 297.16 138.35 296.906 138.18 296.62L138.848 296.151C138.923 296.251 139.019 296.364 139.135 296.492C139.251 296.622 139.41 296.735 139.611 296.83C139.815 296.927 140.081 296.975 140.41 296.975C140.85 296.975 141.214 296.869 141.5 296.656C141.787 296.442 141.93 296.109 141.93 295.654V294.546H141.859C141.797 294.646 141.71 294.769 141.596 294.915C141.485 295.06 141.324 295.189 141.113 295.303C140.905 295.414 140.623 295.469 140.268 295.469C139.828 295.469 139.432 295.365 139.082 295.157C138.734 294.949 138.458 294.646 138.255 294.248C138.053 293.85 137.953 293.367 137.953 292.799C137.953 292.24 138.051 291.754 138.247 291.339C138.444 290.923 138.717 290.601 139.068 290.374C139.418 290.144 139.823 290.029 140.282 290.029C140.637 290.029 140.919 290.088 141.127 290.207C141.338 290.323 141.499 290.455 141.61 290.604C141.724 290.751 141.812 290.872 141.873 290.967H141.958V290.1H142.768V295.711C142.768 296.18 142.661 296.561 142.448 296.854C142.238 297.15 141.954 297.367 141.596 297.504C141.241 297.644 140.846 297.714 140.41 297.714ZM140.382 294.717C140.886 294.717 141.272 294.546 141.539 294.205C141.809 293.862 141.944 293.388 141.944 292.785C141.944 292.195 141.812 291.715 141.546 291.343C141.281 290.969 140.893 290.782 140.382 290.782C140.027 290.782 139.731 290.872 139.494 291.052C139.259 291.232 139.083 291.473 138.965 291.776C138.849 292.079 138.791 292.415 138.791 292.785C138.791 293.353 138.924 293.817 139.192 294.177C139.46 294.537 139.856 294.717 140.382 294.717ZM144.402 295.555V290.1H145.212V290.924H145.269C145.366 290.654 145.544 290.435 145.805 290.267C146.065 290.099 146.36 290.015 146.689 290.015C146.841 290.015 146.973 290.033 147.087 290.068C147.2 290.104 147.3 290.152 147.385 290.214L147.101 290.924C147.042 290.893 146.972 290.87 146.891 290.853C146.813 290.834 146.722 290.825 146.618 290.825C146.22 290.825 145.891 290.946 145.631 291.19C145.37 291.432 145.24 291.736 145.24 292.103V295.555H144.402ZM149.945 295.683C149.599 295.683 149.286 295.617 149.004 295.487C148.722 295.355 148.499 295.164 148.333 294.915C148.167 294.665 148.084 294.362 148.084 294.006C148.084 293.694 148.146 293.441 148.269 293.246C148.392 293.05 148.557 292.896 148.763 292.785C148.969 292.674 149.196 292.591 149.444 292.536C149.695 292.479 149.947 292.434 150.201 292.401C150.532 292.359 150.801 292.327 151.007 292.305C151.215 292.282 151.367 292.243 151.461 292.188C151.558 292.134 151.607 292.039 151.607 291.904V291.876C151.607 291.525 151.511 291.253 151.319 291.059C151.13 290.865 150.842 290.768 150.456 290.768C150.056 290.768 149.743 290.855 149.515 291.031C149.288 291.206 149.128 291.393 149.036 291.592L148.241 291.308C148.383 290.976 148.572 290.718 148.809 290.533C149.048 290.346 149.308 290.216 149.59 290.143C149.874 290.067 150.153 290.029 150.428 290.029C150.603 290.029 150.804 290.05 151.032 290.093C151.261 290.133 151.483 290.217 151.696 290.345C151.911 290.473 152.09 290.666 152.232 290.924C152.374 291.182 152.445 291.528 152.445 291.961V295.555H151.607V294.816H151.564C151.508 294.934 151.413 295.061 151.28 295.196C151.148 295.331 150.971 295.446 150.751 295.54C150.531 295.635 150.262 295.683 149.945 295.683ZM150.073 294.93C150.404 294.93 150.684 294.865 150.911 294.734C151.141 294.604 151.313 294.436 151.429 294.23C151.548 294.024 151.607 293.808 151.607 293.58V292.813C151.572 292.856 151.493 292.895 151.373 292.93C151.254 292.964 151.117 292.993 150.961 293.019C150.807 293.043 150.657 293.064 150.51 293.083C150.365 293.1 150.248 293.114 150.158 293.126C149.94 293.154 149.737 293.2 149.547 293.264C149.36 293.326 149.209 293.419 149.093 293.545C148.979 293.668 148.922 293.836 148.922 294.049C148.922 294.34 149.03 294.56 149.246 294.71C149.463 294.856 149.739 294.93 150.073 294.93ZM154.075 295.555V290.1H154.884V290.952H154.955C155.069 290.661 155.253 290.435 155.506 290.274C155.759 290.111 156.063 290.029 156.418 290.029C156.778 290.029 157.078 290.111 157.317 290.274C157.558 290.435 157.747 290.661 157.882 290.952H157.938C158.078 290.671 158.288 290.447 158.567 290.281C158.846 290.113 159.181 290.029 159.572 290.029C160.06 290.029 160.459 290.182 160.769 290.487C161.079 290.79 161.234 291.263 161.234 291.904V295.555H160.396V291.904C160.396 291.502 160.286 291.214 160.066 291.041C159.845 290.868 159.586 290.782 159.288 290.782C158.904 290.782 158.607 290.898 158.396 291.13C158.186 291.36 158.08 291.651 158.08 292.004V295.555H157.228V291.819C157.228 291.509 157.128 291.259 156.926 291.07C156.725 290.878 156.466 290.782 156.149 290.782C155.931 290.782 155.727 290.84 155.538 290.956C155.351 291.072 155.199 291.233 155.083 291.439C154.97 291.643 154.913 291.878 154.913 292.146V295.555H154.075Z" fill="#7C89A9"></path>
<path d="M192.31 295.555H190.065V288.282H192.409C193.115 288.282 193.718 288.428 194.22 288.719C194.722 289.008 195.107 289.423 195.374 289.965C195.642 290.505 195.776 291.151 195.776 291.904C195.776 292.662 195.641 293.314 195.371 293.861C195.101 294.405 194.708 294.824 194.192 295.118C193.676 295.409 193.048 295.555 192.31 295.555ZM190.946 294.773H192.253C193.155 294.773 193.825 294.518 194.263 294.006C194.703 293.493 194.923 292.792 194.923 291.904C194.923 291.023 194.708 290.33 194.277 289.823C193.846 289.317 193.205 289.063 192.352 289.063H190.946V294.773ZM197.239 295.555V290.1H198.049V290.924H198.106C198.205 290.654 198.385 290.435 198.646 290.267C198.906 290.099 199.2 290.015 199.526 290.015C199.588 290.015 199.665 290.016 199.757 290.018C199.849 290.021 199.919 290.024 199.967 290.029V290.881C199.938 290.874 199.873 290.864 199.771 290.849C199.672 290.833 199.567 290.825 199.455 290.825C199.058 290.825 198.728 290.945 198.468 291.187C198.208 291.428 198.077 291.734 198.077 292.103V295.555H197.239ZM201.06 295.555V290.1H201.898V295.555H201.06ZM201.486 289.191C201.323 289.191 201.182 289.135 201.064 289.024C200.948 288.913 200.89 288.779 200.89 288.623C200.89 288.467 200.948 288.333 201.064 288.222C201.182 288.11 201.323 288.055 201.486 288.055C201.65 288.055 201.789 288.11 201.905 288.222C202.024 288.333 202.083 288.467 202.083 288.623C202.083 288.779 202.024 288.913 201.905 289.024C201.789 289.135 201.65 289.191 201.486 289.191ZM203.647 295.555V288.282H204.485V290.967H204.556C204.617 290.872 204.703 290.751 204.811 290.604C204.923 290.455 205.081 290.323 205.287 290.207C205.496 290.088 205.777 290.029 206.133 290.029C206.592 290.029 206.997 290.144 207.347 290.374C207.697 290.603 207.971 290.929 208.167 291.35C208.364 291.772 208.462 292.269 208.462 292.842C208.462 293.419 208.364 293.92 208.167 294.344C207.971 294.765 207.699 295.092 207.351 295.324C207.003 295.554 206.601 295.668 206.147 295.668C205.796 295.668 205.516 295.61 205.305 295.494C205.094 295.376 204.932 295.242 204.819 295.093C204.705 294.942 204.617 294.816 204.556 294.717H204.456V295.555H203.647ZM204.471 292.827C204.471 293.445 204.604 293.948 204.872 294.337C205.142 294.723 205.529 294.915 206.033 294.915C206.383 294.915 206.676 294.823 206.91 294.638C207.147 294.451 207.325 294.201 207.443 293.886C207.564 293.568 207.624 293.216 207.624 292.827C207.624 292.444 207.565 292.098 207.446 291.79C207.33 291.48 207.154 291.235 206.917 291.055C206.683 290.873 206.388 290.782 206.033 290.782C205.522 290.782 205.133 290.97 204.868 291.347C204.603 291.723 204.471 292.217 204.471 292.827ZM209.958 295.555V288.282H210.796V290.967H210.867C210.928 290.872 211.014 290.751 211.122 290.604C211.234 290.455 211.392 290.323 211.598 290.207C211.807 290.088 212.088 290.029 212.443 290.029C212.903 290.029 213.308 290.144 213.658 290.374C214.008 290.603 214.282 290.929 214.478 291.35C214.675 291.772 214.773 292.269 214.773 292.842C214.773 293.419 214.675 293.92 214.478 294.344C214.282 294.765 214.01 295.092 213.661 295.324C213.313 295.554 212.912 295.668 212.458 295.668C212.107 295.668 211.827 295.61 211.616 295.494C211.405 295.376 211.243 295.242 211.13 295.093C211.016 294.942 210.928 294.816 210.867 294.717H210.767V295.555H209.958ZM210.782 292.827C210.782 293.445 210.915 293.948 211.183 294.337C211.453 294.723 211.84 294.915 212.344 294.915C212.694 294.915 212.987 294.823 213.221 294.638C213.458 294.451 213.635 294.201 213.754 293.886C213.875 293.568 213.935 293.216 213.935 292.827C213.935 292.444 213.876 292.098 213.757 291.79C213.641 291.48 213.465 291.235 213.228 291.055C212.994 290.873 212.699 290.782 212.344 290.782C211.833 290.782 211.444 290.97 211.179 291.347C210.914 291.723 210.782 292.217 210.782 292.827ZM216.993 288.282V295.555H216.155V288.282H216.993ZM220.915 295.668C220.389 295.668 219.936 295.552 219.555 295.32C219.176 295.086 218.884 294.759 218.678 294.34C218.474 293.919 218.372 293.429 218.372 292.87C218.372 292.311 218.474 291.819 218.678 291.393C218.884 290.964 219.17 290.63 219.537 290.391C219.906 290.15 220.337 290.029 220.83 290.029C221.114 290.029 221.394 290.076 221.671 290.171C221.948 290.266 222.2 290.42 222.428 290.633C222.655 290.844 222.836 291.123 222.971 291.471C223.106 291.819 223.173 292.247 223.173 292.756V293.112H219.214C219.233 293.694 219.397 294.14 219.708 294.45C220.02 294.76 220.423 294.915 220.915 294.915C221.244 294.915 221.527 294.844 221.764 294.702C222 294.56 222.172 294.347 222.279 294.063L223.088 294.29C222.96 294.702 222.705 295.035 222.321 295.288C221.938 295.542 221.469 295.668 220.915 295.668ZM219.214 292.387H222.321C222.321 291.925 222.186 291.543 221.916 291.24C221.646 290.935 221.284 290.782 220.83 290.782C220.51 290.782 220.233 290.857 219.999 291.006C219.764 291.155 219.58 291.353 219.445 291.599C219.31 291.843 219.233 292.105 219.214 292.387Z" fill="#7C89A9"></path>
<path d="M257.832 289.063V288.282H263.287V289.063H261V295.555H260.119V289.063H257.832ZM265.243 295.555L263.581 290.1H264.462L265.641 294.276H265.698L266.863 290.1H267.757L268.908 294.262H268.965L270.144 290.1H271.025L269.363 295.555H268.539L267.346 291.364H267.26L266.067 295.555H265.243ZM272.232 295.555V290.1H273.071V295.555H272.232ZM272.659 289.191C272.495 289.191 272.354 289.135 272.236 289.024C272.12 288.913 272.062 288.779 272.062 288.623C272.062 288.467 272.12 288.333 272.236 288.222C272.354 288.11 272.495 288.055 272.659 288.055C272.822 288.055 272.962 288.11 273.078 288.222C273.196 288.333 273.255 288.467 273.255 288.623C273.255 288.779 273.196 288.913 273.078 289.024C272.962 289.135 272.822 289.191 272.659 289.191ZM277.078 290.1V290.81H275.913V293.992C275.913 294.229 275.947 294.406 276.016 294.525C276.087 294.641 276.177 294.719 276.286 294.759C276.397 294.797 276.514 294.816 276.637 294.816C276.73 294.816 276.805 294.811 276.865 294.802C276.924 294.79 276.971 294.781 277.007 294.773L277.177 295.526C277.12 295.548 277.041 295.569 276.939 295.59C276.837 295.614 276.708 295.626 276.552 295.626C276.315 295.626 276.083 295.575 275.856 295.473C275.631 295.371 275.444 295.216 275.295 295.008C275.148 294.799 275.075 294.537 275.075 294.219V290.81H274.251V290.1H275.075V288.793H275.913V290.1H277.078ZM280.81 290.1V290.81H279.646V293.992C279.646 294.229 279.68 294.406 279.749 294.525C279.82 294.641 279.91 294.719 280.019 294.759C280.13 294.797 280.247 294.816 280.37 294.816C280.462 294.816 280.538 294.811 280.597 294.802C280.657 294.79 280.704 294.781 280.739 294.773L280.91 295.526C280.853 295.548 280.774 295.569 280.672 295.59C280.57 295.614 280.441 295.626 280.285 295.626C280.048 295.626 279.816 295.575 279.589 295.473C279.364 295.371 279.177 295.216 279.028 295.008C278.881 294.799 278.808 294.537 278.808 294.219V290.81H277.984V290.1H278.808V288.793H279.646V290.1H280.81ZM284.399 295.668C283.874 295.668 283.421 295.552 283.039 295.32C282.661 295.086 282.368 294.759 282.162 294.34C281.959 293.919 281.857 293.429 281.857 292.87C281.857 292.311 281.959 291.819 282.162 291.393C282.368 290.964 282.655 290.63 283.022 290.391C283.391 290.15 283.822 290.029 284.314 290.029C284.598 290.029 284.879 290.076 285.156 290.171C285.433 290.266 285.685 290.42 285.912 290.633C286.14 290.844 286.321 291.123 286.456 291.471C286.591 291.819 286.658 292.247 286.658 292.756V293.112H282.698C282.717 293.694 282.882 294.14 283.192 294.45C283.505 294.76 283.907 294.915 284.399 294.915C284.729 294.915 285.011 294.844 285.248 294.702C285.485 294.56 285.657 294.347 285.763 294.063L286.573 294.29C286.445 294.702 286.189 295.035 285.806 295.288C285.422 295.542 284.953 295.668 284.399 295.668ZM282.698 292.387H285.806C285.806 291.925 285.671 291.543 285.401 291.24C285.131 290.935 284.769 290.782 284.314 290.782C283.995 290.782 283.718 290.857 283.483 291.006C283.249 291.155 283.064 291.353 282.929 291.599C282.794 291.843 282.717 292.105 282.698 292.387ZM288.033 295.555V290.1H288.843V290.924H288.899C288.996 290.654 289.175 290.435 289.436 290.267C289.696 290.099 289.991 290.015 290.32 290.015C290.471 290.015 290.604 290.033 290.718 290.068C290.831 290.104 290.931 290.152 291.016 290.214L290.732 290.924C290.673 290.893 290.603 290.87 290.522 290.853C290.444 290.834 290.353 290.825 290.249 290.825C289.851 290.825 289.522 290.946 289.262 291.19C289.001 291.432 288.871 291.736 288.871 292.103V295.555H288.033Z" fill="#7C89A9"></path>
<circle cx="106.422" cy="291.865" r="3.34044" fill="#703FFB"></circle>
<circle cx="182.883" cy="291.865" r="3.34044" fill="#DE287A"></circle>
<circle cx="251.176" cy="291.865" r="3.34044" fill="#FCAE56"></circle>
<circle cx="199.216" cy="178.286" r="27.0947" stroke="#F0F3F9" stroke-width="5.93856"></circle>
<circle cx="199.216" cy="178.286" r="52.3336" stroke="#F0F3F9" stroke-width="5.93856"></circle>
<circle cx="199.217" cy="178.287" r="77.5725" stroke="#F0F3F9" stroke-width="5.93856"></circle>
<mask id="path-12-inside-1_103_849" fill="white">
<path d="M195.546 100.8C195.469 99.1627 196.733 97.767 198.372 97.7498C213.532 97.5905 228.452 101.714 241.401 109.676C255.194 118.156 266.111 130.597 272.727 145.375C279.344 160.153 281.353 176.582 278.492 192.518C275.631 208.455 268.033 223.159 256.689 234.713C245.346 246.267 230.784 254.134 214.902 257.287C199.021 260.44 182.557 258.733 167.661 252.389C152.764 246.046 140.125 235.359 131.392 221.724C123.194 208.923 118.797 194.082 118.678 178.921C118.665 177.283 120.037 175.993 121.675 176.04C123.314 176.088 124.597 177.455 124.615 179.093C124.766 193.061 128.836 206.727 136.39 218.523C144.479 231.153 156.187 241.053 169.986 246.929C183.785 252.805 199.035 254.386 213.746 251.465C228.457 248.545 241.947 241.258 252.454 230.555C262.962 219.853 270 206.232 272.65 191.47C275.3 176.707 273.439 161.489 267.31 147.8C261.182 134.111 251.069 122.587 238.292 114.732C226.36 107.395 212.621 103.577 198.653 103.683C197.014 103.695 195.624 102.437 195.546 100.8Z"></path>
</mask>
<path d="M195.546 100.8C195.469 99.1627 196.733 97.767 198.372 97.7498C213.532 97.5905 228.452 101.714 241.401 109.676C255.194 118.156 266.111 130.597 272.727 145.375C279.344 160.153 281.353 176.582 278.492 192.518C275.631 208.455 268.033 223.159 256.689 234.713C245.346 246.267 230.784 254.134 214.902 257.287C199.021 260.44 182.557 258.733 167.661 252.389C152.764 246.046 140.125 235.359 131.392 221.724C123.194 208.923 118.797 194.082 118.678 178.921C118.665 177.283 120.037 175.993 121.675 176.04C123.314 176.088 124.597 177.455 124.615 179.093C124.766 193.061 128.836 206.727 136.39 218.523C144.479 231.153 156.187 241.053 169.986 246.929C183.785 252.805 199.035 254.386 213.746 251.465C228.457 248.545 241.947 241.258 252.454 230.555C262.962 219.853 270 206.232 272.65 191.47C275.3 176.707 273.439 161.489 267.31 147.8C261.182 134.111 251.069 122.587 238.292 114.732C226.36 107.395 212.621 103.577 198.653 103.683C197.014 103.695 195.624 102.437 195.546 100.8Z" stroke="#703FFB" stroke-width="11.8771" mask="url('#path-12-inside-1_103_849')"></path>
<mask id="path-13-inside-2_103_849" fill="white">
<path d="M196.08 151.371C195.89 149.743 197.057 148.255 198.696 148.226C201.921 148.171 205.141 148.634 208.231 149.605C212.267 150.874 215.989 152.98 219.155 155.785C222.321 158.59 224.859 162.032 226.604 165.886C228.349 169.74 229.26 173.918 229.28 178.148C229.299 182.378 228.426 186.565 226.716 190.434C225.007 194.303 222.501 197.769 219.36 200.603C216.22 203.437 212.517 205.577 208.494 206.882C205.413 207.882 202.197 208.375 198.971 208.349C197.333 208.335 196.152 206.858 196.327 205.228C196.501 203.599 197.967 202.439 199.605 202.413C201.997 202.374 204.376 201.98 206.663 201.238C209.892 200.19 212.864 198.473 215.384 196.198C217.905 193.923 219.917 191.142 221.289 188.036C222.66 184.931 223.362 181.57 223.346 178.175C223.33 174.78 222.599 171.426 221.198 168.333C219.798 165.24 217.761 162.478 215.22 160.226C212.678 157.974 209.691 156.284 206.452 155.266C204.159 154.545 201.776 154.173 199.384 154.156C197.745 154.145 196.269 152.998 196.08 151.371Z"></path>
</mask>
<path d="M196.08 151.371C195.89 149.743 197.057 148.255 198.696 148.226C201.921 148.171 205.141 148.634 208.231 149.605C212.267 150.874 215.989 152.98 219.155 155.785C222.321 158.59 224.859 162.032 226.604 165.886C228.349 169.74 229.26 173.918 229.28 178.148C229.299 182.378 228.426 186.565 226.716 190.434C225.007 194.303 222.501 197.769 219.36 200.603C216.22 203.437 212.517 205.577 208.494 206.882C205.413 207.882 202.197 208.375 198.971 208.349C197.333 208.335 196.152 206.858 196.327 205.228C196.501 203.599 197.967 202.439 199.605 202.413C201.997 202.374 204.376 201.98 206.663 201.238C209.892 200.19 212.864 198.473 215.384 196.198C217.905 193.923 219.917 191.142 221.289 188.036C222.66 184.931 223.362 181.57 223.346 178.175C223.33 174.78 222.599 171.426 221.198 168.333C219.798 165.24 217.761 162.478 215.22 160.226C212.678 157.974 209.691 156.284 206.452 155.266C204.159 154.545 201.776 154.173 199.384 154.156C197.745 154.145 196.269 152.998 196.08 151.371Z" stroke="#FCAE56" stroke-width="11.8771" mask="url('#path-13-inside-2_103_849')"></path>
<mask id="path-14-inside-3_103_849" fill="white">
<path d="M195.655 126.073C195.544 124.437 196.78 123.013 198.419 122.989C206.846 122.867 215.205 124.674 222.849 128.287C231.389 132.323 238.753 138.48 244.238 146.17C249.724 153.86 253.148 162.826 254.185 172.215C255.222 181.604 253.837 191.102 250.162 199.804C246.486 208.505 240.644 216.12 233.19 221.923C225.737 227.726 216.921 231.523 207.584 232.952C198.247 234.382 188.7 233.395 179.852 230.088C171.932 227.127 164.809 222.395 159.02 216.269C157.895 215.077 158.054 213.198 159.304 212.138C160.554 211.078 162.421 211.239 163.554 212.423C168.682 217.78 174.96 221.922 181.93 224.528C189.828 227.48 198.351 228.36 206.686 227.085C215.021 225.809 222.89 222.419 229.544 217.239C236.197 212.059 241.412 205.262 244.693 197.494C247.974 189.726 249.211 181.248 248.285 172.867C247.359 164.486 244.302 156.482 239.406 149.617C234.509 142.753 227.936 137.257 220.312 133.654C213.585 130.474 206.238 128.862 198.823 128.921C197.184 128.934 195.767 127.708 195.655 126.073Z"></path>
</mask>
<path d="M195.655 126.073C195.544 124.437 196.78 123.013 198.419 122.989C206.846 122.867 215.205 124.674 222.849 128.287C231.389 132.323 238.753 138.48 244.238 146.17C249.724 153.86 253.148 162.826 254.185 172.215C255.222 181.604 253.837 191.102 250.162 199.804C246.486 208.505 240.644 216.12 233.19 221.923C225.737 227.726 216.921 231.523 207.584 232.952C198.247 234.382 188.7 233.395 179.852 230.088C171.932 227.127 164.809 222.395 159.02 216.269C157.895 215.077 158.054 213.198 159.304 212.138C160.554 211.078 162.421 211.239 163.554 212.423C168.682 217.78 174.96 221.922 181.93 224.528C189.828 227.48 198.351 228.36 206.686 227.085C215.021 225.809 222.89 222.419 229.544 217.239C236.197 212.059 241.412 205.262 244.693 197.494C247.974 189.726 249.211 181.248 248.285 172.867C247.359 164.486 244.302 156.482 239.406 149.617C234.509 142.753 227.936 137.257 220.312 133.654C213.585 130.474 206.238 128.862 198.823 128.921C197.184 128.934 195.767 127.708 195.655 126.073Z" stroke="#DE287A" stroke-width="11.8771" mask="url('#path-14-inside-3_103_849')"></path>
<g filter="url('#filter1_d_103_849')">
<rect x="83.0427" y="128.924" width="74.232" height="34.1467" rx="4" fill="white"></rect>
</g>
<path d="M96.8901 151.619L96.8951 150.48C95.871 150.397 95.0556 150.086 94.4491 149.545C93.8459 149.005 93.5277 148.269 93.4945 147.338H95.3092C95.339 147.789 95.5014 148.142 95.7964 148.397C96.0914 148.652 96.4609 148.815 96.905 148.884L96.9249 145.876L96.4775 145.762C95.6389 145.547 94.9761 145.22 94.4889 144.783C94.0049 144.342 93.763 143.757 93.763 143.028C93.763 142.481 93.8989 141.995 94.1707 141.571C94.4458 141.143 94.8236 140.799 95.3042 140.537C95.7881 140.275 96.3416 140.113 96.9647 140.05L96.9697 138.891H98.0237L98.0187 140.05C98.6451 140.109 99.192 140.27 99.6593 140.532C100.13 140.79 100.496 141.128 100.758 141.546C101.023 141.964 101.161 142.436 101.171 142.963H99.3958C99.356 142.605 99.2135 142.312 98.9683 142.083C98.7263 141.851 98.4065 141.7 98.0087 141.631L97.9889 144.469L98.317 144.554C98.8274 144.673 99.3096 144.851 99.7637 145.086C100.221 145.318 100.592 145.629 100.877 146.021C101.166 146.408 101.31 146.897 101.31 147.487C101.307 148.322 101.012 149.012 100.425 149.555C99.8416 150.096 99.0163 150.404 97.9491 150.48L97.9441 151.619H96.8901ZM97.959 148.884C98.4164 148.811 98.781 148.651 99.0528 148.402C99.3246 148.15 99.4621 147.84 99.4654 147.472C99.4621 147.121 99.3262 146.847 99.0577 146.652C98.7893 146.453 98.4297 146.287 97.9789 146.155L97.959 148.884ZM96.9349 144.201L96.9548 141.631C96.5371 141.704 96.2123 141.856 95.9803 142.088C95.7516 142.317 95.6356 142.592 95.6323 142.913C95.629 143.268 95.7583 143.545 96.0201 143.744C96.2853 143.939 96.5902 144.092 96.9349 144.201ZM106.753 140.164V150.346H104.903V142.521H104.819C104.719 142.676 104.487 142.842 104.123 143.018C103.758 143.19 103.289 143.276 102.716 143.276V141.785C103.067 141.785 103.38 141.723 103.655 141.601C103.93 141.475 104.164 141.322 104.356 141.143C104.552 140.961 104.703 140.78 104.809 140.602C104.915 140.423 104.973 140.277 104.983 140.164H106.753ZM113.003 150.485C112.287 150.485 111.651 150.362 111.094 150.117C110.54 149.872 110.101 149.53 109.776 149.093C109.455 148.655 109.286 148.15 109.269 147.577H111.139C111.162 147.991 111.349 148.322 111.7 148.571C112.055 148.816 112.488 148.939 112.998 148.939C113.542 148.939 113.989 148.8 114.34 148.521C114.692 148.24 114.866 147.873 114.862 147.423C114.866 146.962 114.685 146.586 114.321 146.294C113.959 146.002 113.457 145.856 112.814 145.856H111.914V144.435H112.814C113.341 144.435 113.77 144.299 114.102 144.027C114.437 143.755 114.602 143.397 114.599 142.953C114.602 142.526 114.458 142.181 114.166 141.919C113.878 141.654 113.497 141.521 113.023 141.521C112.552 141.521 112.145 141.646 111.8 141.894C111.455 142.143 111.275 142.481 111.258 142.908H109.483C109.496 142.338 109.66 141.838 109.975 141.407C110.29 140.973 110.713 140.635 111.243 140.393C111.777 140.147 112.373 140.025 113.033 140.025C113.712 140.025 114.302 140.152 114.803 140.408C115.307 140.66 115.696 140.999 115.971 141.427C116.25 141.854 116.387 142.327 116.384 142.844C116.387 143.414 116.22 143.894 115.882 144.285C115.544 144.673 115.098 144.927 114.544 145.046V145.126C115.257 145.228 115.805 145.494 116.19 145.921C116.574 146.349 116.765 146.881 116.762 147.517C116.765 148.09 116.604 148.601 116.279 149.048C115.955 149.496 115.509 149.847 114.942 150.102C114.375 150.357 113.729 150.485 113.003 150.485ZM120.122 148.954L120.058 149.501C120.011 149.918 119.928 150.343 119.809 150.773C119.693 151.208 119.571 151.607 119.441 151.972C119.312 152.336 119.208 152.623 119.128 152.832H117.915C117.965 152.629 118.029 152.353 118.109 152.001C118.188 151.653 118.266 151.262 118.343 150.828C118.419 150.397 118.47 149.958 118.497 149.511L118.531 148.954H120.122ZM125.259 150.485C124.52 150.485 123.864 150.361 123.291 150.112C122.72 149.864 122.275 149.524 121.953 149.093C121.632 148.659 121.471 148.167 121.471 147.616C121.471 147.192 121.564 146.801 121.749 146.443C121.938 146.082 122.193 145.782 122.515 145.543C122.836 145.301 123.198 145.147 123.599 145.081V145.011C123.075 144.895 122.651 144.628 122.326 144.211C122.005 143.79 121.845 143.304 121.849 142.754C121.849 142.231 121.995 141.763 122.286 141.352C122.581 140.941 122.986 140.618 123.499 140.383C124.016 140.144 124.603 140.025 125.259 140.025C125.912 140.025 126.494 140.144 127.004 140.383C127.518 140.618 127.922 140.941 128.217 141.352C128.516 141.763 128.665 142.231 128.665 142.754C128.661 143.304 128.497 143.79 128.173 144.211C127.848 144.628 127.429 144.895 126.915 145.011V145.081C127.309 145.147 127.667 145.301 127.989 145.543C128.31 145.782 128.565 146.082 128.754 146.443C128.947 146.801 129.043 147.192 129.043 147.616C129.043 148.167 128.88 148.659 128.555 149.093C128.231 149.524 127.783 149.864 127.213 150.112C126.646 150.361 125.995 150.485 125.259 150.485ZM125.259 149.063C125.829 149.063 126.285 148.919 126.626 148.631C126.971 148.339 127.145 147.958 127.148 147.487C127.145 147.003 126.965 146.606 126.607 146.294C126.252 145.979 125.803 145.822 125.259 145.822C124.709 145.822 124.255 145.977 123.897 146.289C123.542 146.601 123.367 147 123.37 147.487C123.367 147.958 123.536 148.339 123.877 148.631C124.222 148.919 124.683 149.063 125.259 149.063ZM125.259 144.425C125.723 144.425 126.106 144.287 126.408 144.012C126.713 143.734 126.867 143.372 126.87 142.928C126.867 142.491 126.716 142.138 126.418 141.869C126.119 141.601 125.733 141.467 125.259 141.467C124.779 141.467 124.389 141.601 124.091 141.869C123.793 142.138 123.645 142.491 123.648 142.928C123.645 143.369 123.794 143.729 124.096 144.007C124.401 144.285 124.789 144.425 125.259 144.425ZM134.331 150.485C133.615 150.485 132.979 150.362 132.422 150.117C131.869 149.872 131.429 149.53 131.105 149.093C130.783 148.655 130.614 148.15 130.598 147.577H132.467C132.49 147.991 132.677 148.322 133.029 148.571C133.383 148.816 133.816 148.939 134.326 148.939C134.87 148.939 135.317 148.8 135.669 148.521C136.02 148.24 136.194 147.873 136.191 147.423C136.194 146.962 136.013 146.586 135.649 146.294C135.287 146.002 134.785 145.856 134.142 145.856H133.242V144.435H134.142C134.669 144.435 135.098 144.299 135.43 144.027C135.765 143.755 135.93 143.397 135.927 142.953C135.93 142.526 135.786 142.181 135.495 141.919C135.206 141.654 134.825 141.521 134.351 141.521C133.88 141.521 133.473 141.646 133.128 141.894C132.783 142.143 132.603 142.481 132.586 142.908H130.811C130.825 142.338 130.989 141.838 131.303 141.407C131.618 140.973 132.041 140.635 132.571 140.393C133.105 140.147 133.701 140.025 134.361 140.025C135.04 140.025 135.63 140.152 136.131 140.408C136.635 140.66 137.024 140.999 137.299 141.427C137.578 141.854 137.715 142.327 137.712 142.844C137.715 143.414 137.548 143.894 137.21 144.285C136.872 144.673 136.426 144.927 135.872 145.046V145.126C136.585 145.228 137.134 145.494 137.518 145.921C137.902 146.349 138.093 146.881 138.09 147.517C138.093 148.09 137.932 148.601 137.607 149.048C137.283 149.496 136.837 149.847 136.27 150.102C135.703 150.357 135.057 150.485 134.331 150.485ZM139.796 150.346V149.013L143.331 145.548C143.835 145.038 144.214 144.604 144.469 144.246C144.725 143.888 144.852 143.497 144.852 143.072C144.852 142.592 144.692 142.214 144.37 141.939C144.049 141.66 143.646 141.521 143.162 141.521C142.655 141.521 142.249 141.674 141.944 141.979C141.642 142.28 141.492 142.691 141.492 143.212H139.737C139.737 142.565 139.884 142.003 140.179 141.526C140.474 141.049 140.88 140.679 141.397 140.418C141.917 140.156 142.514 140.025 143.187 140.025C143.87 140.025 144.468 140.152 144.982 140.408C145.499 140.663 145.901 141.012 146.19 141.457C146.478 141.901 146.622 142.408 146.622 142.978C146.622 143.359 146.549 143.734 146.403 144.102C146.258 144.469 146.001 144.879 145.633 145.329C145.268 145.777 144.756 146.317 144.097 146.95L142.342 148.735V148.805H146.776V150.346H139.796Z" fill="#6A35FF"></path>
<defs>
<filter id="filter0_d_103_849" x="0" y="0" width="378.72" height="406.928" filterUnits="userSpaceOnUse" color-interpolation-filters="sRGB">
<feFlood flood-opacity="0" result="BackgroundImageFix"></feFlood>
<feColorMatrix in="SourceAlpha" type="matrix" values="0 0 0 0 0 0 0 0 0 0 0 0 0 0 0 0 0 0 127 0" result="hardAlpha"></feColorMatrix>
<feMorphology radius="25" operator="erode" in="SourceAlpha" result="effect1_dropShadow_103_849"></feMorphology>
<feOffset dx="-8" dy="30"></feOffset>
<feGaussianBlur stdDeviation="40"></feGaussianBlur>
<feColorMatrix type="matrix" values="0 0 0 0 0.320833 0 0 0 0 0.320833 0 0 0 0 0.320833 0 0 0 0.1 0"></feColorMatrix>
<feBlend mode="normal" in2="BackgroundImageFix" result="effect1_dropShadow_103_849"></feBlend>
<feBlend mode="normal" in="SourceGraphic" in2="effect1_dropShadow_103_849" result="shape"></feBlend>
</filter>
<filter id="filter1_d_103_849" x="63.0427" y="118.924" width="134.232" height="94.1467" filterUnits="userSpaceOnUse" color-interpolation-filters="sRGB">
<feFlood flood-opacity="0" result="BackgroundImageFix"></feFlood>
<feColorMatrix in="SourceAlpha" type="matrix" values="0 0 0 0 0 0 0 0 0 0 0 0 0 0 0 0 0 0 127 0" result="hardAlpha"></feColorMatrix>
<feOffset dx="10" dy="20"></feOffset>
<feGaussianBlur stdDeviation="15"></feGaussianBlur>
<feColorMatrix type="matrix" values="0 0 0 0 0 0 0 0 0 0 0 0 0 0 0 0 0 0 0.04 0"></feColorMatrix>
<feBlend mode="normal" in2="BackgroundImageFix" result="effect1_dropShadow_103_849"></feBlend>
<feBlend mode="normal" in="SourceGraphic" in2="effect1_dropShadow_103_849" result="shape"></feBlend>
</filter>
</defs>
</svg>
