<svg width="379" height="407" fill="none" xmlns="http://www.w3.org/2000/svg"><g filter="url('#filter0_d_103_849')"><rect x="63" y="25" width="268.72" height="296.928" rx="8" fill="#fff"/></g><path d="M121.179 68.433V58.98h5.705v1.016h-4.561v3.194h4.266v1.016h-4.266v3.213h4.635v1.015h-5.779Zm9.708.167a2.88 2.88 0 0 1-1.223-.254 2.1 2.1 0 0 1-.873-.744c-.215-.326-.323-.72-.323-1.181 0-.407.08-.736.24-.988.16-.256.374-.456.642-.6a3.36 3.36 0 0 1 .886-.324c.326-.073.654-.132.983-.175.431-.055.781-.097 1.048-.125.271-.03.468-.081.591-.152.126-.07.189-.194.189-.37v-.036c0-.456-.124-.81-.373-1.062-.247-.252-.621-.379-1.122-.379-.52 0-.928.114-1.224.342-.295.228-.503.47-.623.73l-1.034-.37c.185-.43.431-.766.739-1.006a2.77 2.77 0 0 1 1.015-.508c.37-.099.733-.148 1.09-.148.228 0 .489.028.785.083.298.053.586.162.863.328.28.166.512.417.697.752.185.336.277.785.277 1.349v4.671h-1.09v-.96h-.055a1.926 1.926 0 0 1-.369.494 2.14 2.14 0 0 1-.688.448c-.286.123-.636.185-1.048.185Zm.166-.98c.431 0 .794-.084 1.09-.253.298-.17.523-.388.674-.656.154-.267.23-.549.23-.844v-.998c-.046.056-.147.107-.304.153a5.147 5.147 0 0 1-.536.115 23.95 23.95 0 0 1-1.043.139 4.165 4.165 0 0 0-.794.18c-.243.08-.44.201-.591.364-.148.16-.222.379-.222.656 0 .379.14.665.421.859.283.19.641.286 1.075.286Zm5.073.813v-7.09h1.052v1.07h.074a1.7 1.7 0 0 1 .702-.853c.338-.219.72-.328 1.145-.328.08 0 .18.001.3.004s.21.008.272.014v1.108a3.268 3.268 0 0 0-.254-.041 2.489 2.489 0 0 0-.411-.033c-.517 0-.945.157-1.283.471a1.553 1.553 0 0 0-.508 1.191v4.487h-1.089Zm5.926-4.265v4.265h-1.09v-7.09h1.053v1.107h.092c.167-.36.419-.649.757-.867.339-.222.776-.333 1.311-.333.718 0 1.296.22 1.736.66.443.44.665 1.113.665 2.018v4.505h-1.089v-4.431c0-.557-.145-.991-.434-1.302-.29-.314-.687-.471-1.191-.471-.521 0-.953.17-1.298.508-.341.335-.512.812-.512 1.43Zm6.515 4.265v-7.09h1.089v7.09h-1.089Zm.554-8.272a.773.773 0 0 1-.549-.217.697.697 0 0 1-.227-.522c0-.203.076-.377.227-.522a.773.773 0 0 1 .549-.217.76.76 0 0 1 .545.217.69.69 0 0 1 .23.522.69.69 0 0 1-.23.522.76.76 0 0 1-.545.217Zm3.62 4.007v4.265h-1.089v-7.09h1.052v1.107h.093c.166-.36.418-.649.757-.867.338-.222.775-.333 1.311-.333.717 0 1.296.22 1.736.66.443.44.665 1.113.665 2.018v4.505h-1.09v-4.431c0-.557-.145-.991-.434-1.302-.289-.314-.686-.471-1.191-.471-.52 0-.953.17-1.297.508-.342.335-.513.812-.513 1.43Zm9.378 7.072c-.791 0-1.418-.144-1.879-.434-.459-.286-.799-.615-1.021-.988l.868-.609c.099.13.223.277.374.443.151.17.357.316.619.439.265.126.611.189 1.039.189.572 0 1.044-.139 1.417-.415.372-.277.558-.711.558-1.302v-1.44h-.092c-.08.129-.194.289-.342.48a1.924 1.924 0 0 1-.627.503c-.271.144-.637.217-1.099.217a2.96 2.96 0 0 1-1.542-.407c-.452-.27-.811-.664-1.076-1.181-.261-.517-.392-1.145-.392-1.884 0-.726.128-1.359.383-1.897.256-.542.611-.96 1.067-1.256.455-.299.981-.448 1.578-.448.462 0 .828.077 1.099.231.274.15.483.323.628.517.148.19.262.348.342.47h.11v-1.126h1.053v7.294c0 .61-.139 1.105-.416 1.487a2.36 2.36 0 0 1-1.108.845 4.176 4.176 0 0 1-1.541.272Zm-.037-3.896c.655 0 1.157-.222 1.505-.665.35-.446.526-1.062.526-1.846 0-.767-.172-1.392-.517-1.875-.345-.486-.85-.73-1.514-.73-.462 0-.847.118-1.154.352a2.135 2.135 0 0 0-.688.942c-.151.393-.227.83-.227 1.31 0 .74.174 1.342.522 1.81.348.468.863.702 1.547.702Zm8.9 1.09v-9.455h3.306c.658 0 1.201.114 1.629.342.428.224.747.527.956.909.209.379.314.799.314 1.26 0 .407-.073.742-.217 1.007-.142.264-.33.474-.563.627a2.57 2.57 0 0 1-.753.342v.092c.289.019.58.12.873.305.292.185.537.45.734.794.197.345.295.767.295 1.265 0 .474-.108.9-.323 1.279-.215.378-.556.678-1.02.9-.465.222-1.07.332-1.815.332h-3.416Zm1.145-1.016h2.271c.748 0 1.279-.145 1.593-.434.317-.292.476-.646.476-1.062 0-.32-.082-.615-.245-.886a1.774 1.774 0 0 0-.697-.656c-.302-.166-.659-.25-1.071-.25h-2.327v3.288Zm0-4.284h2.124c.517 0 .954-.15 1.311-.448.357-.299.535-.697.535-1.196 0-.415-.144-.768-.434-1.057-.289-.292-.748-.438-1.375-.438h-2.161v3.139Zm7.827 8.05a2.4 2.4 0 0 1-.494-.045 1.322 1.322 0 0 1-.3-.083l.277-.96c.397.1.728.098.993-.01.268-.105.497-.421.688-.95l.24-.666-2.622-7.127h1.181l1.958 5.65h.074l1.957-5.65h1.182l-3.047 8.235c-.4 1.071-1.096 1.607-2.087 1.607Zm10.376-2.75v-9.455h3.194c.742 0 1.348.134 1.819.401.474.265.825.624 1.053 1.076.228.453.342.957.342 1.514s-.114 1.064-.342 1.52a2.546 2.546 0 0 1-1.043 1.089c-.471.267-1.074.401-1.81.401h-2.068v3.453h-1.145Zm1.145-4.47h2.031c.76 0 1.3-.19 1.62-.572.324-.381.485-.855.485-1.422 0-.569-.161-1.04-.485-1.412-.323-.376-.869-.563-1.638-.563h-2.013v3.97Zm8.049-4.985v9.454h-1.09V58.98h1.09Zm4.082 9.62c-.45 0-.857-.084-1.224-.253a2.097 2.097 0 0 1-.872-.744c-.216-.326-.323-.72-.323-1.181 0-.407.08-.736.24-.988.16-.256.374-.456.641-.6a3.38 3.38 0 0 1 .887-.324c.326-.073.654-.132.983-.175.431-.055.78-.097 1.048-.125.271-.03.468-.081.591-.152.126-.07.189-.194.189-.37v-.036c0-.456-.124-.81-.374-1.062-.246-.252-.62-.379-1.122-.379-.52 0-.927.114-1.223.342-.295.228-.503.47-.623.73l-1.034-.37c.184-.43.431-.766.738-1.006.311-.243.65-.413 1.016-.508a4.218 4.218 0 0 1 1.09-.148c.227 0 .489.028.784.083.299.053.587.162.864.328.28.166.512.417.697.752.184.336.277.785.277 1.349v4.671h-1.09v-.96h-.055a1.926 1.926 0 0 1-.369.494 2.14 2.14 0 0 1-.688.448c-.287.123-.636.185-1.048.185Zm.166-.978c.431 0 .794-.085 1.089-.254a1.72 1.72 0 0 0 .674-.656 1.67 1.67 0 0 0 .231-.844v-.998c-.046.056-.147.107-.304.153a5.147 5.147 0 0 1-.536.115 23.95 23.95 0 0 1-1.043.139 4.165 4.165 0 0 0-.794.18c-.243.08-.44.201-.591.364-.148.16-.222.379-.222.656 0 .379.14.665.42.859.283.19.642.286 1.076.286Zm8.156-6.278v.923h-1.514v4.136c0 .308.044.539.134.693a.69.69 0 0 0 .351.304c.144.05.297.074.457.074.12 0 .218-.006.295-.018l.185-.037.221.978a2.23 2.23 0 0 1-.309.084c-.132.03-.3.046-.503.046a2.19 2.19 0 0 1-.905-.199 1.793 1.793 0 0 1-.729-.605c-.191-.27-.287-.612-.287-1.024v-4.432h-1.071v-.923h1.071v-1.7h1.09v1.7h1.514Zm4.797 0v.923h-1.588v6.167h-1.09v-6.167h-1.145v-.923h1.145v-.98c0-.405.095-.744.286-1.015.191-.27.439-.474.744-.61.304-.135.626-.202.964-.202.268 0 .487.021.656.064.169.043.295.083.378.12l-.313.942a5.877 5.877 0 0 0-.231-.07 1.406 1.406 0 0 0-.379-.04c-.36 0-.62.09-.78.272-.157.181-.235.448-.235.798v.72h1.588Zm4.115 7.238c-.64 0-1.202-.152-1.685-.457a3.106 3.106 0 0 1-1.126-1.279c-.268-.547-.402-1.188-.402-1.92 0-.739.134-1.383.402-1.934a3.1 3.1 0 0 1 1.126-1.284c.483-.304 1.045-.457 1.685-.457.64 0 1.2.153 1.681.457.483.305.858.733 1.126 1.284.271.55.406 1.195.406 1.934 0 .732-.135 1.373-.406 1.92a3.064 3.064 0 0 1-1.126 1.28c-.481.304-1.041.456-1.681.456Zm0-.979c.486 0 .887-.124 1.2-.374.314-.249.547-.576.698-.983.15-.406.226-.846.226-1.32 0-.474-.076-.916-.226-1.325a2.236 2.236 0 0 0-.698-.993c-.313-.252-.714-.378-1.2-.378s-.886.126-1.2.378a2.234 2.234 0 0 0-.697.993c-.151.41-.226.85-.226 1.325 0 .474.075.914.226 1.32.151.406.383.734.697.983.314.25.714.374 1.2.374Zm4.876.831v-7.09h1.053v1.07h.074c.129-.35.363-.635.701-.853a2.069 2.069 0 0 1 1.145-.328c.08 0 .18.001.3.004s.211.008.273.014v1.108a3.268 3.268 0 0 0-.254-.041 2.489 2.489 0 0 0-.411-.033c-.517 0-.945.157-1.283.471a1.553 1.553 0 0 0-.508 1.191v4.487h-1.09Zm4.837 0v-7.09h1.053v1.107h.092a1.78 1.78 0 0 1 .716-.881c.329-.213.724-.319 1.186-.319.468 0 .857.106 1.168.319.314.209.559.503.734.881h.074a2.07 2.07 0 0 1 .817-.872c.363-.219.799-.328 1.307-.328.634 0 1.152.199 1.555.596.403.394.605 1.008.605 1.842v4.745h-1.089v-4.745c0-.524-.144-.898-.43-1.122a1.588 1.588 0 0 0-1.011-.337c-.498 0-.885.15-1.158.452-.274.299-.411.677-.411 1.136v4.616h-1.108v-4.856c0-.403-.131-.728-.393-.974-.261-.25-.598-.374-1.011-.374-.283 0-.548.075-.794.226-.243.15-.44.36-.591.628-.147.265-.221.57-.221.919v4.431h-1.09Zm14.586-8.439V58.98h7.091v1.016h-2.973v8.438h-1.145v-8.439h-2.973Zm8.562 11.19a2.4 2.4 0 0 1-.494-.045 1.322 1.322 0 0 1-.3-.083l.277-.96c.397.1.728.098.993-.01.268-.105.497-.421.688-.95l.24-.666-2.622-7.127h1.181l1.958 5.65h.074l1.957-5.65h1.182l-3.047 8.235c-.4 1.071-1.096 1.607-2.087 1.607Zm6.572-.091v-9.75h1.053v1.126h.129c.08-.123.191-.28.332-.471a1.95 1.95 0 0 1 .619-.517c.271-.154.637-.23 1.099-.23.597 0 1.123.148 1.578.447.456.298.811.722 1.067 1.27.255.547.383 1.194.383 1.938 0 .751-.128 1.402-.383 1.953-.256.548-.61.973-1.062 1.274-.452.299-.974.448-1.565.448-.456 0-.82-.075-1.094-.226a2.033 2.033 0 0 1-.633-.522 7.192 7.192 0 0 1-.341-.49h-.093v3.75h-1.089Zm1.071-6.205c0 .803.174 1.457.522 1.962.351.502.854.752 1.509.752.456 0 .836-.12 1.141-.36.307-.243.538-.569.692-.978a3.84 3.84 0 0 0 .235-1.376 3.75 3.75 0 0 0-.23-1.348 2.083 2.083 0 0 0-.688-.956c-.305-.237-.688-.355-1.15-.355-.665 0-1.169.245-1.514.734-.345.49-.517 1.13-.517 1.925Zm9.824 3.693c-.683 0-1.273-.15-1.768-.452a3.036 3.036 0 0 1-1.141-1.274c-.264-.548-.397-1.185-.397-1.912 0-.726.133-1.366.397-1.92a3.135 3.135 0 0 1 1.118-1.302c.48-.314 1.04-.47 1.68-.47.369 0 .734.06 1.094.184.36.123.688.323.983.6.296.274.531.637.707 1.09.175.452.263 1.009.263 1.67v.462h-5.147c.024.757.238 1.337.641 1.74.407.404.93.605 1.57.605.428 0 .795-.092 1.103-.276a1.58 1.58 0 0 0 .67-.831l1.052.295c-.166.535-.498.968-.997 1.297-.499.33-1.108.494-1.828.494Zm-2.211-4.266h4.039c0-.6-.175-1.097-.526-1.49-.351-.398-.822-.596-1.413-.596-.415 0-.776.097-1.08.29-.305.195-.545.452-.72.772a2.41 2.41 0 0 0-.3 1.025ZM115.714 288.282v7.273h-.88v-7.273h.88Zm2.591 3.991v3.282h-.838V290.1h.809v.852h.071c.128-.277.322-.499.583-.667.26-.171.596-.256 1.008-.256.552 0 .997.169 1.335.508.341.338.512.856.512 1.552v3.466h-.838v-3.409c0-.429-.112-.763-.334-1.002-.223-.241-.528-.362-.916-.362-.4 0-.733.13-.998.391-.263.258-.394.625-.394 1.1Zm8.975-.951-.753.213a1.489 1.489 0 0 0-.369-.533c-.173-.166-.443-.248-.81-.248-.334 0-.612.076-.835.23-.22.152-.33.345-.33.579 0 .209.076.373.227.494.152.121.389.221.711.302l.809.199c.966.236 1.449.729 1.449 1.477 0 .312-.09.592-.27.838-.177.246-.426.44-.745.582-.32.142-.692.213-1.115.213-.557 0-1.017-.12-1.382-.362-.364-.241-.595-.594-.692-1.058l.795-.199c.149.587.571.881 1.264.881.391 0 .701-.083.931-.249.232-.168.348-.369.348-.604 0-.385-.27-.641-.81-.767l-.909-.213c-.5-.118-.866-.302-1.101-.55-.232-.251-.348-.565-.348-.941 0-.308.087-.58.259-.817.176-.237.413-.423.714-.557a2.505 2.505 0 0 1 1.03-.203c.54 0 .964.118 1.271.355.31.237.531.549.661.938Zm3.833-1.222v.71h-1.165v3.182c0 .237.034.414.103.533a.531.531 0 0 0 .27.234c.111.038.228.057.352.057.092 0 .168-.005.227-.014l.142-.029.17.753a1.542 1.542 0 0 1-.238.064c-.101.024-.23.036-.387.036-.236 0-.468-.051-.696-.153a1.385 1.385 0 0 1-.561-.465c-.147-.209-.22-.471-.22-.789v-3.409h-.824v-.71h.824v-1.307h.838v1.307h1.165Zm2.966 5.583c-.346 0-.66-.066-.941-.196a1.61 1.61 0 0 1-.672-.572c-.165-.25-.248-.553-.248-.909 0-.312.061-.565.185-.76a1.3 1.3 0 0 1 .493-.461 2.62 2.62 0 0 1 .682-.249c.251-.057.503-.102.756-.135.332-.042.601-.074.806-.096.209-.023.36-.062.455-.117.097-.054.146-.149.146-.284v-.028c0-.351-.096-.623-.288-.817-.189-.194-.477-.291-.863-.291-.4 0-.714.087-.941.263-.227.175-.387.362-.479.561l-.796-.284c.142-.332.332-.59.568-.775.239-.187.5-.317.782-.39a3.23 3.23 0 0 1 .838-.114c.175 0 .376.021.603.064.23.04.451.124.664.252.216.128.395.321.537.579.142.258.213.604.213 1.037v3.594h-.838v-.739h-.043a1.5 1.5 0 0 1-.284.38c-.133.135-.309.25-.529.344-.22.095-.489.143-.806.143Zm.128-.753c.331 0 .61-.065.838-.196a1.33 1.33 0 0 0 .696-1.154v-.767c-.036.043-.114.082-.235.117a3.676 3.676 0 0 1-.412.089 17.434 17.434 0 0 1-.802.107 3.157 3.157 0 0 0-.611.138 1.055 1.055 0 0 0-.455.281c-.113.123-.17.291-.17.504 0 .291.108.511.323.661.218.146.494.22.828.22Zm6.203 2.784c-.608 0-1.09-.111-1.445-.334-.353-.22-.615-.474-.785-.76l.668-.469c.075.1.171.213.287.341.116.13.275.243.476.338.204.097.47.145.799.145.44 0 .804-.106 1.09-.319.287-.214.43-.547.43-1.002v-1.108h-.071c-.062.1-.149.223-.263.369a1.483 1.483 0 0 1-.483.388c-.208.111-.49.166-.845.166-.44 0-.836-.104-1.186-.312a2.184 2.184 0 0 1-.827-.909c-.202-.398-.302-.881-.302-1.449 0-.559.098-1.045.294-1.46.197-.416.47-.738.821-.965a2.16 2.16 0 0 1 1.214-.345c.355 0 .637.059.845.178.211.116.372.248.483.397.114.147.202.268.263.363h.085v-.867h.81v5.611c0 .469-.107.85-.32 1.143a1.81 1.81 0 0 1-.852.65c-.355.14-.75.21-1.186.21Zm-.028-2.997c.504 0 .89-.171 1.157-.512.27-.343.405-.817.405-1.42 0-.59-.132-1.07-.398-1.442-.265-.374-.653-.561-1.164-.561-.355 0-.651.09-.888.27-.235.18-.411.421-.529.724a2.8 2.8 0 0 0-.174 1.009c0 .568.133 1.032.401 1.392.268.36.664.54 1.19.54Zm4.02.838V290.1h.81v.824h.057c.097-.27.275-.489.536-.657.26-.168.555-.252.884-.252.152 0 .284.018.398.053.113.036.213.084.298.146l-.284.71a1.164 1.164 0 0 0-.483-.099c-.398 0-.727.121-.987.365a1.191 1.191 0 0 0-.391.913v3.452h-.838Zm5.543.128a2.22 2.22 0 0 1-.941-.196 1.608 1.608 0 0 1-.671-.572c-.166-.25-.249-.553-.249-.909 0-.312.062-.565.185-.76.123-.196.288-.35.494-.461.206-.111.433-.194.681-.249.251-.057.503-.102.757-.135.331-.042.6-.074.806-.096.208-.023.36-.062.454-.117.097-.054.146-.149.146-.284v-.028c0-.351-.096-.623-.288-.817-.189-.194-.477-.291-.863-.291-.4 0-.713.087-.941.263-.227.175-.387.362-.479.561l-.795-.284c.142-.332.331-.59.568-.775.239-.187.499-.317.781-.39a3.23 3.23 0 0 1 .838-.114c.175 0 .376.021.604.064.229.04.451.124.664.252.215.128.394.321.536.579.142.258.213.604.213 1.037v3.594h-.838v-.739h-.043a1.453 1.453 0 0 1-.284.38c-.132.135-.309.25-.529.344-.22.095-.489.143-.806.143Zm.128-.753c.331 0 .611-.065.838-.196a1.324 1.324 0 0 0 .696-1.154v-.767c-.035.043-.114.082-.234.117a3.777 3.777 0 0 1-.412.089 17.434 17.434 0 0 1-.803.107 3.174 3.174 0 0 0-.611.138 1.051 1.051 0 0 0-.454.281c-.114.123-.171.291-.171.504 0 .291.108.511.324.661.217.146.493.22.827.22Zm4.002.625V290.1h.809v.852h.071c.114-.291.298-.517.551-.678.253-.163.557-.245.912-.245.36 0 .66.082.899.245.241.161.43.387.565.678h.056a1.6 1.6 0 0 1 .629-.671c.279-.168.614-.252 1.005-.252.488 0 .887.153 1.197.458.31.303.465.776.465 1.417v3.651h-.838v-3.651c0-.402-.11-.69-.33-.863a1.224 1.224 0 0 0-.778-.259c-.384 0-.681.116-.892.348-.21.23-.316.521-.316.874v3.551h-.852v-3.736c0-.31-.1-.56-.302-.749-.201-.192-.46-.288-.777-.288-.218 0-.422.058-.611.174a1.315 1.315 0 0 0-.455.483c-.113.204-.17.439-.17.707v3.409h-.838ZM192.31 295.555h-2.245v-7.273h2.344c.706 0 1.309.146 1.811.437.502.289.887.704 1.154 1.246.268.54.402 1.186.402 1.939 0 .758-.135 1.41-.405 1.957a2.89 2.89 0 0 1-1.179 1.257c-.516.291-1.144.437-1.882.437Zm-1.364-.782h1.307c.902 0 1.572-.255 2.01-.767.44-.513.66-1.214.66-2.102 0-.881-.215-1.574-.646-2.081-.431-.506-1.072-.76-1.925-.76h-1.406v5.71Zm6.293.782V290.1h.81v.824h.057c.099-.27.279-.489.54-.657.26-.168.554-.252.88-.252l.231.003c.092.003.162.006.21.011v.852a3.14 3.14 0 0 0-.512-.056c-.397 0-.727.12-.987.362-.26.241-.391.547-.391.916v3.452h-.838Zm3.821 0V290.1h.838v5.455h-.838Zm.426-6.364a.596.596 0 0 1-.422-.167.536.536 0 0 1-.174-.401c0-.156.058-.29.174-.401a.591.591 0 0 1 .422-.167.58.58 0 0 1 .419.167.529.529 0 0 1 .178.401c0 .156-.059.29-.178.401a.584.584 0 0 1-.419.167Zm2.161 6.364v-7.273h.838v2.685h.071c.061-.095.147-.216.255-.363.112-.149.27-.281.476-.397.209-.119.49-.178.846-.178.459 0 .864.115 1.214.345.35.229.624.555.82.976.197.422.295.919.295 1.492 0 .577-.098 1.078-.295 1.502a2.323 2.323 0 0 1-.816.98c-.348.23-.75.344-1.204.344-.351 0-.631-.058-.842-.174a1.543 1.543 0 0 1-.486-.401 5.08 5.08 0 0 1-.263-.376h-.1v.838h-.809Zm.824-2.728c0 .618.133 1.121.401 1.51.27.386.657.578 1.161.578.35 0 .643-.092.877-.277.237-.187.415-.437.533-.752.121-.318.181-.67.181-1.059a2.86 2.86 0 0 0-.178-1.037 1.601 1.601 0 0 0-.529-.735c-.234-.182-.529-.273-.884-.273-.511 0-.9.188-1.165.565-.265.376-.397.87-.397 1.48Zm5.487 2.728v-7.273h.838v2.685h.071c.061-.095.147-.216.255-.363.112-.149.27-.281.476-.397.209-.119.49-.178.845-.178.46 0 .865.115 1.215.345.35.229.624.555.82.976.197.422.295.919.295 1.492 0 .577-.098 1.078-.295 1.502a2.318 2.318 0 0 1-.817.98 2.13 2.13 0 0 1-1.203.344c-.351 0-.631-.058-.842-.174a1.543 1.543 0 0 1-.486-.401 5.08 5.08 0 0 1-.263-.376h-.1v.838h-.809Zm.824-2.728c0 .618.133 1.121.401 1.51.27.386.657.578 1.161.578.35 0 .643-.092.877-.277.237-.187.414-.437.533-.752.121-.318.181-.67.181-1.059a2.86 2.86 0 0 0-.178-1.037 1.601 1.601 0 0 0-.529-.735c-.234-.182-.529-.273-.884-.273-.511 0-.9.188-1.165.565-.265.376-.397.87-.397 1.48Zm6.211-4.545v7.273h-.838v-7.273h.838Zm3.922 7.386c-.526 0-.979-.116-1.36-.348a2.332 2.332 0 0 1-.877-.98c-.204-.421-.306-.911-.306-1.47 0-.559.102-1.051.306-1.477.206-.429.492-.763.859-1.002.369-.241.8-.362 1.293-.362.284 0 .564.047.841.142a2.1 2.1 0 0 1 .757.462c.227.211.408.49.543.838.135.348.202.776.202 1.285v.356h-3.959c.019.582.183 1.028.494 1.338.312.31.715.465 1.207.465.329 0 .612-.071.849-.213a1.22 1.22 0 0 0 .515-.639l.809.227a1.817 1.817 0 0 1-.767.998c-.383.254-.852.38-1.406.38Zm-1.701-3.281h3.107c0-.462-.135-.844-.405-1.147-.27-.305-.632-.458-1.086-.458-.32 0-.597.075-.831.224a1.602 1.602 0 0 0-.554.593 1.865 1.865 0 0 0-.231.788ZM257.832 289.063v-.781h5.455v.781H261v6.492h-.881v-6.492h-2.287Zm7.411 6.492-1.662-5.455h.881l1.179 4.176h.057l1.165-4.176h.894l1.151 4.162h.057l1.179-4.162h.881l-1.662 5.455h-.824l-1.193-4.191h-.086l-1.193 4.191h-.824Zm6.989 0V290.1h.839v5.455h-.839Zm.427-6.364a.596.596 0 0 1-.423-.167.536.536 0 0 1-.174-.401c0-.156.058-.29.174-.401a.592.592 0 0 1 .423-.167c.163 0 .303.055.419.167a.531.531 0 0 1 .177.401c0 .156-.059.29-.177.401a.585.585 0 0 1-.419.167Zm4.419.909v.71h-1.165v3.182c0 .237.034.414.103.533a.531.531 0 0 0 .27.234c.111.038.228.057.351.057.093 0 .168-.005.228-.014l.142-.029.17.753a1.575 1.575 0 0 1-.238.064 1.73 1.73 0 0 1-.387.036c-.237 0-.469-.051-.696-.153a1.385 1.385 0 0 1-.561-.465c-.147-.209-.22-.471-.22-.789v-3.409h-.824v-.71h.824v-1.307h.838v1.307h1.165Zm3.732 0v.71h-1.164v3.182c0 .237.034.414.103.533a.531.531 0 0 0 .27.234c.111.038.228.057.351.057.092 0 .168-.005.227-.014l.142-.029.171.753a1.575 1.575 0 0 1-.238.064 1.73 1.73 0 0 1-.387.036c-.237 0-.469-.051-.696-.153a1.385 1.385 0 0 1-.561-.465c-.147-.209-.22-.471-.22-.789v-3.409h-.824v-.71h.824v-1.307h.838v1.307h1.164Zm3.589 5.568c-.525 0-.978-.116-1.36-.348a2.339 2.339 0 0 1-.877-.98c-.203-.421-.305-.911-.305-1.47 0-.559.102-1.051.305-1.477.206-.429.493-.763.86-1.002.369-.241.8-.362 1.292-.362.284 0 .565.047.842.142.277.095.529.249.756.462.228.211.409.49.544.838.135.348.202.776.202 1.285v.356h-3.96c.019.582.184 1.028.494 1.338.313.31.715.465 1.207.465.33 0 .612-.071.849-.213a1.21 1.21 0 0 0 .515-.639l.81.227a1.821 1.821 0 0 1-.767.998c-.384.254-.853.38-1.407.38Zm-1.701-3.281h3.108c0-.462-.135-.844-.405-1.147-.27-.305-.632-.458-1.087-.458-.319 0-.596.075-.831.224a1.61 1.61 0 0 0-.554.593 1.865 1.865 0 0 0-.231.788Zm5.335 3.168V290.1h.81v.824h.056c.097-.27.276-.489.537-.657.26-.168.555-.252.884-.252.151 0 .284.018.398.053.113.036.213.084.298.146l-.284.71a1.164 1.164 0 0 0-.483-.099c-.398 0-.727.121-.987.365a1.191 1.191 0 0 0-.391.913v3.452h-.838Z" fill="#7C89A9"/><circle cx="106.422" cy="291.865" r="3.34" fill="#703FFB"/><circle cx="182.883" cy="291.865" r="3.34" fill="#DE287A"/><circle cx="251.176" cy="291.865" r="3.34" fill="#FCAE56"/><circle cx="199.216" cy="178.286" r="27.095" stroke="#F0F3F9" stroke-width="5.939"/><circle cx="199.216" cy="178.286" r="52.334" stroke="#F0F3F9" stroke-width="5.939"/><circle cx="199.217" cy="178.287" r="77.573" stroke="#F0F3F9" stroke-width="5.939"/><mask id="path-12-inside-1_103_849" fill="#fff"><path d="M195.546 100.8c-.077-1.637 1.187-3.033 2.826-3.05a80.536 80.536 0 0 1 74.355 47.625 80.536 80.536 0 0 1-16.038 89.338 80.535 80.535 0 0 1-89.028 17.676 80.541 80.541 0 0 1-48.983-73.468c-.013-1.638 1.359-2.928 2.997-2.881 1.639.048 2.922 1.415 2.94 3.053a74.61 74.61 0 0 0 45.371 67.836 74.607 74.607 0 1 0 28.667-143.246c-1.639.012-3.029-1.246-3.107-2.883Z"/></mask><path d="M195.546 100.8c-.077-1.637 1.187-3.033 2.826-3.05a80.536 80.536 0 0 1 74.355 47.625 80.536 80.536 0 0 1-16.038 89.338 80.535 80.535 0 0 1-89.028 17.676 80.541 80.541 0 0 1-48.983-73.468c-.013-1.638 1.359-2.928 2.997-2.881 1.639.048 2.922 1.415 2.94 3.053a74.61 74.61 0 0 0 45.371 67.836 74.607 74.607 0 1 0 28.667-143.246c-1.639.012-3.029-1.246-3.107-2.883Z" stroke="#703FFB" stroke-width="11.877" mask="url('#path-12-inside-1_103_849')"/><mask id="path-13-inside-2_103_849" fill="#fff"><path d="M196.08 151.371c-.19-1.628.977-3.116 2.616-3.145a30.076 30.076 0 0 1 27.908 17.66 30.07 30.07 0 0 1 .112 24.548 30.048 30.048 0 0 1-18.222 16.448 30.062 30.062 0 0 1-9.523 1.467c-1.638-.014-2.819-1.491-2.644-3.121.174-1.629 1.64-2.789 3.278-2.815a24.145 24.145 0 0 0 15.779-6.215 24.123 24.123 0 0 0 5.814-27.865 24.126 24.126 0 0 0-21.814-14.177c-1.639-.011-3.115-1.158-3.304-2.785Z"/></mask><path d="M196.08 151.371c-.19-1.628.977-3.116 2.616-3.145a30.076 30.076 0 0 1 27.908 17.66 30.07 30.07 0 0 1 .112 24.548 30.048 30.048 0 0 1-18.222 16.448 30.062 30.062 0 0 1-9.523 1.467c-1.638-.014-2.819-1.491-2.644-3.121.174-1.629 1.64-2.789 3.278-2.815a24.145 24.145 0 0 0 15.779-6.215 24.123 24.123 0 0 0 5.814-27.865 24.126 24.126 0 0 0-21.814-14.177c-1.639-.011-3.115-1.158-3.304-2.785Z" stroke="#FCAE56" stroke-width="11.877" mask="url('#path-13-inside-2_103_849')"/><mask id="path-14-inside-3_103_849" fill="#fff"><path d="M195.655 126.073c-.111-1.636 1.125-3.06 2.764-3.084a55.3 55.3 0 0 1 55.766 49.226 55.307 55.307 0 0 1-20.995 49.708 55.298 55.298 0 0 1-53.338 8.165 55.312 55.312 0 0 1-20.832-13.819c-1.125-1.192-.966-3.071.284-4.131s3.117-.899 4.25.285a49.373 49.373 0 0 0 43.132 14.662 49.374 49.374 0 0 0 38.007-29.591 49.36 49.36 0 0 0-5.287-47.877 49.366 49.366 0 0 0-40.583-20.696c-1.639.013-3.056-1.213-3.168-2.848Z"/></mask><path d="M195.655 126.073c-.111-1.636 1.125-3.06 2.764-3.084a55.3 55.3 0 0 1 55.766 49.226 55.307 55.307 0 0 1-20.995 49.708 55.298 55.298 0 0 1-53.338 8.165 55.312 55.312 0 0 1-20.832-13.819c-1.125-1.192-.966-3.071.284-4.131s3.117-.899 4.25.285a49.373 49.373 0 0 0 43.132 14.662 49.374 49.374 0 0 0 38.007-29.591 49.36 49.36 0 0 0-5.287-47.877 49.366 49.366 0 0 0-40.583-20.696c-1.639.013-3.056-1.213-3.168-2.848Z" stroke="#DE287A" stroke-width="11.877" mask="url('#path-14-inside-3_103_849')"/><g filter="url('#filter1_d_103_849')"><rect x="83.043" y="128.924" width="74.232" height="34.147" rx="4" fill="#fff"/></g><path d="m96.89 151.619.005-1.139c-1.024-.083-1.84-.394-2.446-.935-.603-.54-.921-1.276-.954-2.207h1.814c.03.451.192.804.487 1.059.295.255.665.418 1.109.487l.02-3.008-.447-.114c-.84-.215-1.502-.542-1.99-.979-.483-.441-.725-1.026-.725-1.755 0-.547.136-1.033.408-1.457a3.053 3.053 0 0 1 1.133-1.034 4.376 4.376 0 0 1 1.66-.487l.006-1.159h1.054l-.005 1.159c.626.059 1.173.22 1.64.482.471.258.837.596 1.099 1.014.265.418.403.89.413 1.417h-1.775a1.368 1.368 0 0 0-.428-.88c-.242-.232-.562-.383-.96-.452l-.02 2.838.329.085c.51.119.993.297 1.447.532.457.232.828.543 1.113.935.289.387.433.876.433 1.466-.003.835-.298 1.525-.885 2.068-.583.541-1.409.849-2.476.925l-.005 1.139H96.89Zm1.069-2.735c.457-.073.822-.233 1.094-.482.272-.252.41-.562.412-.93-.003-.351-.139-.625-.407-.82-.269-.199-.628-.365-1.08-.497l-.019 2.729Zm-1.024-4.683.02-2.57c-.418.073-.743.225-.975.457a1.143 1.143 0 0 0-.348.825c-.003.355.126.632.388.831.265.195.57.348.915.457Zm9.818-4.037v10.182h-1.85v-7.825h-.084c-.1.155-.332.321-.696.497-.365.172-.834.258-1.407.258v-1.491c.351 0 .664-.062.939-.184a2.617 2.617 0 0 0 1.154-.999c.106-.179.164-.325.174-.438h1.77Zm6.25 10.321c-.716 0-1.352-.123-1.909-.368-.554-.245-.993-.587-1.318-1.024a2.634 2.634 0 0 1-.507-1.516h1.87c.023.414.21.745.561.994.355.245.788.368 1.298.368.544 0 .991-.139 1.342-.418.352-.281.526-.648.522-1.098a1.366 1.366 0 0 0-.541-1.129c-.362-.292-.864-.438-1.507-.438h-.9v-1.421h.9c.527 0 .956-.136 1.288-.408.335-.272.5-.63.497-1.074.003-.427-.141-.772-.433-1.034-.288-.265-.669-.398-1.143-.398-.471 0-.878.125-1.223.373a1.25 1.25 0 0 0-.542 1.014h-1.775a2.58 2.58 0 0 1 .492-1.501 3.143 3.143 0 0 1 1.268-1.014c.534-.246 1.13-.368 1.79-.368.679 0 1.269.127 1.77.383.504.252.893.591 1.168 1.019.279.427.416.9.413 1.417.003.57-.164 1.05-.502 1.441-.338.388-.784.642-1.338.761v.08c.713.102 1.261.368 1.646.795.384.428.575.96.572 1.596a2.515 2.515 0 0 1-.483 1.531c-.324.448-.77.799-1.337 1.054s-1.213.383-1.939.383Zm7.119-1.531-.064.547c-.047.417-.13.842-.249 1.272-.116.435-.238.834-.368 1.199-.129.364-.233.651-.313.86h-1.213c.05-.203.114-.479.194-.831.079-.348.157-.739.234-1.173.076-.431.127-.87.154-1.317l.034-.557h1.591Zm5.137 1.531c-.739 0-1.395-.124-1.968-.373-.571-.248-1.016-.588-1.338-1.019a2.42 2.42 0 0 1-.482-1.477c0-.424.093-.815.278-1.173.189-.361.444-.661.766-.9a2.43 2.43 0 0 1 1.084-.462v-.07a2.156 2.156 0 0 1-1.273-.8 2.31 2.31 0 0 1-.477-1.457c0-.523.146-.991.437-1.402.295-.411.7-.734 1.213-.969.517-.239 1.104-.358 1.76-.358.653 0 1.235.119 1.745.358.514.235.918.558 1.213.969.299.411.448.879.448 1.402a2.353 2.353 0 0 1-.492 1.457 2.151 2.151 0 0 1-1.258.8v.07c.394.066.752.22 1.074.462.321.239.576.539.765.9.193.358.289.749.289 1.173a2.4 2.4 0 0 1-.488 1.477c-.324.431-.772.771-1.342 1.019-.567.249-1.218.373-1.954.373Zm0-1.422c.57 0 1.026-.144 1.367-.432.345-.292.519-.673.522-1.144a1.524 1.524 0 0 0-.541-1.193c-.355-.315-.804-.472-1.348-.472-.55 0-1.004.155-1.362.467-.355.312-.53.711-.527 1.198-.003.471.166.852.507 1.144.345.288.806.432 1.382.432Zm0-4.638c.464 0 .847-.138 1.149-.413.305-.278.459-.64.462-1.084-.003-.437-.154-.79-.452-1.059-.299-.268-.685-.402-1.159-.402-.48 0-.87.134-1.168.402-.298.269-.446.622-.443 1.059-.003.441.146.801.448 1.079.305.278.693.418 1.163.418Zm9.072 6.06c-.716 0-1.352-.123-1.909-.368-.553-.245-.993-.587-1.317-1.024a2.62 2.62 0 0 1-.507-1.516h1.869c.023.414.21.745.562.994.354.245.787.368 1.297.368.544 0 .991-.139 1.343-.418a1.33 1.33 0 0 0 .522-1.098 1.37 1.37 0 0 0-.542-1.129c-.362-.292-.864-.438-1.507-.438h-.9v-1.421h.9c.527 0 .956-.136 1.288-.408.335-.272.5-.63.497-1.074.003-.427-.141-.772-.432-1.034-.289-.265-.67-.398-1.144-.398-.471 0-.878.125-1.223.373a1.25 1.25 0 0 0-.542 1.014h-1.775c.014-.57.178-1.07.492-1.501a3.143 3.143 0 0 1 1.268-1.014c.534-.246 1.13-.368 1.79-.368.679 0 1.269.127 1.77.383.504.252.893.591 1.168 1.019.279.427.416.9.413 1.417.003.57-.164 1.05-.502 1.441-.338.388-.784.642-1.338.761v.08c.713.102 1.262.368 1.646.795.384.428.575.96.572 1.596a2.515 2.515 0 0 1-.483 1.531c-.324.448-.77.799-1.337 1.054s-1.213.383-1.939.383Zm5.465-.139v-1.333l3.535-3.465c.504-.51.883-.944 1.138-1.302.256-.358.383-.749.383-1.174 0-.48-.16-.858-.482-1.133-.321-.279-.724-.418-1.208-.418-.507 0-.913.153-1.218.458-.302.301-.452.712-.452 1.233h-1.755c0-.647.147-1.209.442-1.686a2.98 2.98 0 0 1 1.218-1.108c.52-.262 1.117-.393 1.79-.393.683 0 1.281.127 1.795.383.517.255.919.604 1.208 1.049.288.444.432.951.432 1.521 0 .381-.073.756-.219 1.124-.145.367-.402.777-.77 1.227-.365.448-.877.988-1.536 1.621l-1.755 1.785v.07h4.434v1.541h-6.98Z" fill="#6A35FF"/><defs><filter id="filter0_d_103_849" x="0" y="0" width="378.72" height="406.928" filterUnits="userSpaceOnUse" color-interpolation-filters="sRGB"><feFlood flood-opacity="0" result="BackgroundImageFix"/><feColorMatrix in="SourceAlpha" values="0 0 0 0 0 0 0 0 0 0 0 0 0 0 0 0 0 0 127 0" result="hardAlpha"/><feMorphology radius="25" in="SourceAlpha" result="effect1_dropShadow_103_849"/><feOffset dx="-8" dy="30"/><feGaussianBlur stdDeviation="40"/><feColorMatrix values="0 0 0 0 0.320833 0 0 0 0 0.320833 0 0 0 0 0.320833 0 0 0 0.1 0"/><feBlend in2="BackgroundImageFix" result="effect1_dropShadow_103_849"/><feBlend in="SourceGraphic" in2="effect1_dropShadow_103_849" result="shape"/></filter><filter id="filter1_d_103_849" x="63.043" y="118.924" width="134.232" height="94.147" filterUnits="userSpaceOnUse" color-interpolation-filters="sRGB"><feFlood flood-opacity="0" result="BackgroundImageFix"/><feColorMatrix in="SourceAlpha" values="0 0 0 0 0 0 0 0 0 0 0 0 0 0 0 0 0 0 127 0" result="hardAlpha"/><feOffset dx="10" dy="20"/><feGaussianBlur stdDeviation="15"/><feColorMatrix values="0 0 0 0 0 0 0 0 0 0 0 0 0 0 0 0 0 0 0.04 0"/><feBlend in2="BackgroundImageFix" result="effect1_dropShadow_103_849"/><feBlend in="SourceGraphic" in2="effect1_dropShadow_103_849" result="shape"/></filter></defs></svg>