<svg width="99" height="33" fill="none" xmlns="http://www.w3.org/2000/svg"><path d="M41.938 16.976c0 4.642-3.63 8.062-8.087 8.062-4.456 0-8.086-3.42-8.086-8.062 0-4.673 3.63-8.06 8.086-8.06s8.087 3.386 8.087 8.06Zm-3.54 0c0-2.9-2.104-4.884-4.547-4.884-2.442 0-4.546 1.984-4.546 4.884 0 2.872 2.104 4.885 4.546 4.885 2.443 0 4.547-2.017 4.547-4.885ZM59.384 16.976c0 4.642-3.631 8.062-8.087 8.062-4.456 0-8.087-3.42-8.087-8.062 0-4.67 3.631-8.06 8.087-8.06 4.456 0 8.087 3.386 8.087 8.06Zm-3.54 0c0-2.9-2.105-4.884-4.547-4.884-2.442 0-4.547 1.984-4.547 4.884 0 2.872 2.105 4.885 4.547 4.885 2.442 0 4.547-2.017 4.547-4.885ZM76.102 9.402v14.473c0 5.953-3.51 8.384-7.661 8.384-3.907 0-6.259-2.613-7.146-4.75l3.082-1.283c.55 1.312 1.894 2.86 4.06 2.86 2.657 0 4.303-1.639 4.303-4.724v-1.16h-.123c-.793.978-2.319 1.832-4.245 1.832-4.03 0-7.724-3.51-7.724-8.028 0-4.55 3.693-8.09 7.724-8.09 1.922 0 3.449.853 4.245 1.802h.123V9.406h3.362v-.004Zm-3.11 7.604c0-2.839-1.894-4.914-4.304-4.914-2.442 0-4.489 2.075-4.489 4.914 0 2.809 2.047 4.855 4.489 4.855 2.41 0 4.303-2.046 4.303-4.855ZM81.645.92v23.624h-3.453V.92h3.453ZM95.101 19.63l2.748 1.832c-.887 1.312-3.024 3.573-6.717 3.573-4.58 0-8-3.54-8-8.062 0-4.793 3.45-8.06 7.604-8.06 4.183 0 6.23 3.328 6.898 5.127l.367.916-10.776 4.463c.825 1.618 2.108 2.443 3.907 2.443 1.803 0 3.053-.887 3.97-2.232Zm-8.457-2.9 7.203-2.991c-.396-1.007-1.588-1.709-2.99-1.709-1.8 0-4.304 1.589-4.213 4.7ZM12.695 14.88v-3.42H24.22c.113.596.171 1.3.171 2.064 0 2.566-.701 5.739-2.962 8-2.199 2.29-5.008 3.51-8.73 3.51C5.8 25.034 0 19.415 0 12.517S5.8 0 12.699 0c3.816 0 6.535 1.497 8.577 3.45l-2.413 2.412c-1.465-1.373-3.45-2.442-6.168-2.442-5.037 0-8.977 4.06-8.977 9.097 0 5.038 3.94 9.097 8.977 9.097 3.268 0 5.128-1.312 6.32-2.504.967-.967 1.603-2.348 1.854-4.234l-8.174.004Z" fill="#B3B7BC"/></svg>