<svg width="138" height="26" fill="none" xmlns="http://www.w3.org/2000/svg"><path d="M120.642 0a.899.899 0 0 0-.899.899V7.2h16.648l-7.582-7.2L120.642 0ZM137.001 9.107a.895.895 0 0 0-.899-.898h-6.301v16.649l7.197-7.585.003-8.166ZM127.891 25.462a.9.9 0 0 0 .898-.9v-6.3H112.14l7.583 7.198 8.168.002ZM111.532 16.355a.9.9 0 0 0 .9.901h6.3V.606l-7.199 7.583-.001 8.166ZM35.223 3.04v7.688H24.51V3.039l-3.901-.003v19.386h3.901v-8.329h10.712v8.329h3.907V3.039h-3.907ZM87.125 3.04v19.377h17.116l-2.168-3.411H91.037v-4.912h10.687v-3.286H91.037V6.37h11.018l2.123-3.332H87.125ZM6.108 3.035C2.05 3.035 0 5.502 0 9.092v7.236c0 4.154 2.641 6.094 6.088 6.094l12.24-.001-2.27-3.544H6.845c-1.958 0-2.81-.707-2.81-2.898V9.413c0-2.118.717-2.944 2.862-2.944h9.259l2.179-3.434H6.108ZM70.002 3.03c-2.344 0-4.746 1.409-4.746 5.032v.931c0 3.778 2.311 5.219 4.623 5.229h8.118c.843 0 1.528.14 1.528 1.565l-.002 1.646c-.021 1.28-.66 1.573-1.555 1.573H67.289l-2.187 3.412h13.117c3.163 0 5.31-1.574 5.31-5.21v-1.335c0-3.514-1.995-5.175-5.088-5.175h-7.75c-.86 0-1.459-.235-1.459-1.507V7.85c0-1.085.41-1.48 1.412-1.48l10.17-.004 2.125-3.341-12.937.004ZM50.465 3.04 41.273 22.42h4.345l1.79-4.002h9.988l1.785 4.002h4.363L54.331 3.04h-3.866Zm1.928 4.024 3.532 8.056h-7.042l3.51-8.056Z" fill="#B3B7BC"/></svg>