<svg width="12" height="13" fill="none" xmlns="http://www.w3.org/2000/svg"><path d="M5.995 2.913a3.081 3.081 0 1 0 0 6.163 3.081 3.081 0 0 0 0-6.163Zm0 5.083a2.002 2.002 0 1 1 0-4.004 2.002 2.002 0 0 1 0 4.004ZM9.199 3.518a.718.718 0 1 0 0-1.436.718.718 0 0 0 0 1.436Z" fill="#000"/><path d="M11.682 2.07A3.068 3.068 0 0 0 9.928.316 4.402 4.402 0 0 0 8.47.036C7.829.008 7.626 0 5.999 0 4.37 0 4.163 0 3.526.036c-.497.01-.99.104-1.455.28A3.065 3.065 0 0 0 .317 2.07c-.176.466-.27.959-.28 1.456C.01 4.167 0 4.371 0 6 0 7.626 0 7.833.037 8.47c.01.498.104.99.28 1.457a3.072 3.072 0 0 0 1.755 1.754c.465.182.957.284 1.456.3.641.028.845.037 2.472.037s1.836 0 2.472-.037c.498-.01.99-.104 1.457-.28a3.075 3.075 0 0 0 1.755-1.754 4.39 4.39 0 0 0 .279-1.456c.028-.641.037-.845.037-2.473s0-1.834-.037-2.472a4.386 4.386 0 0 0-.28-1.477Zm-.812 6.352a3.362 3.362 0 0 1-.207 1.124 1.99 1.99 0 0 1-1.14 1.14 3.323 3.323 0 0 1-1.113.208c-.633.03-.812.037-2.435.037-1.625 0-1.79 0-2.436-.037a3.304 3.304 0 0 1-1.112-.207 1.99 1.99 0 0 1-1.146-1.14 3.385 3.385 0 0 1-.207-1.113C1.046 7.801 1.04 7.623 1.04 6s0-1.79.035-2.435c.004-.384.075-.764.207-1.124a1.99 1.99 0 0 1 1.146-1.141 3.339 3.339 0 0 1 1.112-.207c.634-.03.812-.037 2.436-.037 1.624 0 1.79 0 2.435.037.38.004.756.074 1.112.207a1.992 1.992 0 0 1 1.141 1.14c.131.357.201.733.207 1.113.03.633.037.811.037 2.435s0 1.798-.03 2.435h-.007Z" fill="#000"/></svg>