<svg width="106" height="25" xmlns="http://www.w3.org/2000/svg"><path d="M.53 24V1.73h6.834c4.941 0 7.412 1.927 7.412 5.78 0 1.247-.317 2.323-.952 3.23a4.055 4.055 0 0 1-2.584 1.7c1.27.181 2.255.737 2.958 1.666.725.907 1.1 2.097 1.122 3.57 0 4.216-2.754 6.324-8.262 6.324H.53Zm7.038-3.06c1.496 0 2.561-.329 3.196-.986.635-.657.952-1.53.952-2.618 0-1.11-.351-1.915-1.054-2.414-.68-.499-1.768-.748-3.264-.748H4.066v6.766h3.502Zm3.74-13.158c0-1.995-1.235-2.992-3.706-2.992H4.066v6.324H7.33c2.652 0 3.978-1.11 3.978-3.332Zm6.358 8.16c0-2.743.612-4.817 1.836-6.222 1.224-1.428 2.924-2.142 5.1-2.142 2.176 0 3.853.646 5.032 1.938 1.201 1.27 1.825 3.14 1.87 5.61l-.136 2.516H21.44c.204 2.448 1.428 3.672 3.672 3.672 1.564 0 3.219-.283 4.964-.85l.714 2.958c-.725.25-1.666.465-2.822.646-1.156.204-2.108.306-2.856.306-4.964 0-7.446-2.81-7.446-8.432Zm7.072-5.202c-1.065 0-1.87.317-2.414.952-.521.612-.816 1.643-.884 3.094h6.29c0-2.697-.997-4.046-2.992-4.046Zm9.044 12.512.748-3.094c2.153.68 3.865 1.02 5.134 1.02 1.27 0 2.13-.125 2.584-.374.453-.227.68-.635.68-1.224 0-.59-.204-1.009-.612-1.258-.408-.25-1.179-.51-2.312-.782-2.244-.544-3.808-1.145-4.692-1.802-.884-.68-1.326-1.78-1.326-3.298 0-3.241 2.085-4.862 6.256-4.862 1.79 0 3.865.295 6.222.884l-.646 3.23c-2.244-.635-3.978-.952-5.202-.952-1.224 0-2.051.113-2.482.34-.408.204-.612.567-.612 1.088 0 .521.204.907.612 1.156.43.227 1.519.578 3.264 1.054 1.745.476 3.026 1.031 3.842 1.666.816.612 1.224 1.666 1.224 3.162 0 3.423-2.108 5.134-6.324 5.134-1.972 0-4.091-.363-6.358-1.088ZM52.584 7.85l.068.986c1.836-.839 3.275-1.258 4.318-1.258 1.836 0 3.185.544 4.046 1.632.884 1.065 1.326 2.743 1.326 5.032V24H58.84v-9.656c0-1.088-.193-1.938-.578-2.55-.385-.612-.986-.918-1.802-.918-.816 0-2.074.397-3.774 1.19V24h-3.502V7.85h3.4ZM64.994 24v-3.128h5.066v-9.894h-4.794V7.85h8.296v13.022h4.794V24H64.994Zm6.63-18.496c-.68 0-1.224-.204-1.632-.612-.385-.43-.578-.986-.578-1.666 0-.68.204-1.224.612-1.632.408-.408.952-.612 1.632-.612.703 0 1.235.204 1.598.612.385.385.578.93.578 1.632 0 .703-.193 1.258-.578 1.666-.385.408-.93.612-1.632.612ZM81.178 24V1.39h3.502v12.954l2.244-.238c1.27-1.632 2.38-3.4 3.332-5.304l.476-.952h3.808c-1.428 3.015-3.015 5.53-4.76 7.548 1.45 2.063 2.913 4.5 4.386 7.31l.68 1.292h-3.978a55.104 55.104 0 0 0-3.808-6.902l-2.38.238V24h-3.502Zm18.972 0v-4.93h4.93V24h-4.93Z" fill="currentColor"/></svg>