<svg width="168" height="168" viewBox="0 0 168 168" fill="none" xmlns="http://www.w3.org/2000/svg">
<g clip-path="url('#clip0_103_947')">
<path d="M37.9321 137.947C59.3817 137.947 76.318 120.556 76.318 99.1061C76.3181 77.6565 58.7016 60.2655 37.252 60.2655C37.0374 60.2655 36.7138 60.2946 36.4992 60.2983C44.9801 53.5448 55.6322 49.4753 67.2916 49.4753C72.6558 49.4753 76.9727 45.1257 76.9727 39.7651C76.9727 34.4045 73.5214 30.055 68.1572 30.055C30.0839 30.0586 0.00068574 61.0329 0.000682412 99.1061C0.000682411 99.1134 0.00068241 99.1206 0.000682409 99.1315C0.000680535 120.57 16.4897 137.947 37.9321 137.947Z" fill="#FEFAFF"></path>
<path d="M128.905 137.947C150.354 137.947 167.32 120.556 167.32 99.1061C167.32 77.6565 149.718 60.2655 128.265 60.2655C128.05 60.2655 127.734 60.2946 127.519 60.2983C136 53.5448 146.656 49.4753 158.315 49.4753C163.68 49.4753 168 45.1257 168 39.7651C168 34.4045 164.494 30.055 159.13 30.055C121.057 30.0586 90.9189 61.0329 90.9189 99.1061C90.9189 99.1134 90.9189 99.1206 90.9189 99.1315C90.9189 120.57 107.463 137.947 128.905 137.947Z" fill="#FEFAFF"></path>
</g>
<defs>
<clipPath id="clip0_103_947">
<rect width="168" height="168" fill="white" transform="translate(168 168) rotate(-180)"></rect>
</clipPath>
</defs>
</svg>
