<svg width="168" height="168" fill="none" xmlns="http://www.w3.org/2000/svg"><g clip-path="url('#clip0_103_947')" fill="#FEFAFF"><path d="M37.932 137.947c21.45 0 38.386-17.391 38.386-38.84 0-21.45-17.616-38.841-39.066-38.841-.215 0-.538.029-.753.032 8.481-6.753 19.133-10.823 30.793-10.823 5.364 0 9.68-4.35 9.68-9.71 0-5.36-3.45-9.71-8.815-9.71C30.084 30.059.001 61.033.001 99.106v.026c0 21.438 16.489 38.815 37.931 38.815ZM128.905 137.947c21.449 0 38.415-17.391 38.415-38.84 0-21.45-17.602-38.841-39.055-38.841-.215 0-.531.029-.746.032 8.481-6.753 19.137-10.823 30.796-10.823 5.365 0 9.685-4.35 9.685-9.71 0-5.36-3.506-9.71-8.87-9.71-38.073.004-68.211 30.978-68.211 69.051v.026c0 21.438 16.544 38.815 37.986 38.815Z"/></g><defs><clipPath id="clip0_103_947"><path fill="#fff" transform="rotate(-180 84 84)" d="M0 0h168v168H0z"/></clipPath></defs></svg>