<svg width="600" height="608" fill="none" xmlns="http://www.w3.org/2000/svg"><path opacity=".15" d="M59.935 604.554c24.739 0 44.792-3.731 44.792-8.333s-20.053-8.334-44.792-8.334c-24.737 0-44.792 3.732-44.792 8.334 0 4.602 20.055 8.333 44.792 8.333Z" fill="#137ED9"/><path opacity=".07" d="M320.356 128.196a92.703 92.703 0 0 1 65.554 27.154 92.701 92.701 0 0 1 27.154 65.554v41.459a2.635 2.635 0 0 1-2.635 2.637h-180.21a2.638 2.638 0 0 1-2.637-2.637v-41.448a92.71 92.71 0 0 1 92.71-92.709l.064-.01Z" fill="#137ED9"/><path d="m354.011 265.145-20.771-84.751h-25.094l-20.667 84.751h66.532Z" fill="#FFD943"/><path opacity=".3" d="m337.949 265.145-10.407-84.751h-13.896l-9.99 84.751h34.293Z" fill="#FF9600"/><path d="M313.958 180.394s-12.166 23.073 6.908 42.522c0 0 17.906-13.928 6.874-42.522h-13.782Z" fill="#FF9600"/><path d="M315.917 180.394s-7.771 16.813 5.209 28.396c0 0 11.25-9.01 4.678-28.396h-9.887Z" fill="#FFD943"/><path d="M317.604 180.394s-4.781 10.281 3.126 17.386c0 0 6.886-5.511 2.864-17.376l-5.99-.01Z" fill="#FF9600"/><path d="M272.969 250.75a5.606 5.606 0 0 0 0-11.21 5.605 5.605 0 0 0 0 11.21ZM362.23 242.509a4.04 4.04 0 1 0 .002-8.082 4.04 4.04 0 0 0-.002 8.082ZM280.594 256.405a2.187 2.187 0 1 0 0-4.374 2.187 2.187 0 0 0 0 4.374ZM360.043 255.259a2.187 2.187 0 1 0 0-4.375 2.187 2.187 0 0 0 0 4.375ZM376.802 254.302a2.178 2.178 0 0 0 0-4.355 2.177 2.177 0 0 0 0 4.355ZM263.281 260.447a2.187 2.187 0 1 0 .002-4.374 2.187 2.187 0 0 0-.002 4.374Z" fill="#FFD943"/><path d="m291.823 115.206-13.729 14.354a11.005 11.005 0 0 0-2.822 5.366 136.813 136.813 0 0 0 .874 55.353 1.605 1.605 0 0 0 2.885.563l21.407-31.604-8.615-44.032ZM351.792 115.206l13.73 14.354a11.007 11.007 0 0 1 2.823 5.366 136.849 136.849 0 0 1-.875 55.353 1.61 1.61 0 0 1-.446.801 1.607 1.607 0 0 1-2.44-.238l-21.407-31.604 8.615-44.032Z" fill="#137ED9"/><path opacity=".2" d="m291.823 115.206-13.729 14.354a11.005 11.005 0 0 0-2.822 5.366 136.813 136.813 0 0 0 .874 55.353 1.605 1.605 0 0 0 2.885.563l21.407-31.604-8.615-44.032ZM351.792 115.206l13.73 14.354a11.007 11.007 0 0 1 2.823 5.366 136.849 136.849 0 0 1-.875 55.353 1.61 1.61 0 0 1-.446.801 1.607 1.607 0 0 1-2.44-.238l-21.407-31.604 8.615-44.032Z" fill="#000D44"/><path d="m305.105 175.82 2.301 5.303s11.105 2.865 29.897 0l.989-5.208-33.187-.095Z" fill="#137ED9"/><path d="m298.032 162.509 5.322 13.082a135.347 135.347 0 0 0 37.252 0l3.885-13.082h-46.459Z" fill="#137ED9"/><path opacity=".2" d="m298.032 162.509 5.322 13.082a135.347 135.347 0 0 0 37.252 0l3.885-13.082h-46.459Z" fill="#000D44"/><path d="M320.833 19.215 322.406.684a.33.33 0 0 1 .329-.328.327.327 0 0 1 .328.328l1.5 18.531h-3.73ZM346.71 164.873h-50.303a189.761 189.761 0 0 1-6.438-56.73c1.854-23.146 6.396-41.198 11.364-54.73 8.334-22.791 17.949-32.791 17.949-32.791h6.656s8.761 10 16.511 32.76c4.615 13.542 8.885 31.594 10.739 54.761a189.579 189.579 0 0 1-6.478 56.73Z" fill="#137ED9"/><path d="M342.418 53.382a120.242 120.242 0 0 1-41.084 0c8.333-22.791 17.948-32.791 17.948-32.791h6.656s8.73 10.03 16.48 32.791Z" fill="#137ED9"/><path opacity=".2" d="M342.418 53.382a120.242 120.242 0 0 1-41.084 0c8.333-22.791 17.948-32.791 17.948-32.791h6.656s8.73 10.03 16.48 32.791Z" fill="#000D44"/><path d="M325.855 18.517h-6.313a1.227 1.227 0 0 0-.862.358 1.222 1.222 0 0 0 .862 2.08h6.313a1.223 1.223 0 0 0 1.126-.752 1.222 1.222 0 0 0-1.126-1.686ZM319.303 164.874v.094h4.864v-.094c.875-13.72 1.698-27.428 1.866-33.335.395-13.677-4.303-15.312-4.303-15.312s-4.688 1.635-4.302 15.312c.177 5.907 1 19.615 1.875 33.335Z" fill="#137ED9"/><path opacity=".2" d="M319.303 164.874v.094h4.864v-.094c.875-13.72 1.698-27.428 1.866-33.335.395-13.677-4.303-15.312-4.303-15.312s-4.688 1.635-4.302 15.312c.177 5.907 1 19.615 1.875 33.335Z" fill="#000D44"/><path d="M321.178 96.706c7.599 0 13.76-6.161 13.76-13.76 0-7.6-6.161-13.761-13.76-13.761-7.601 0-13.761 6.16-13.761 13.76s6.16 13.76 13.761 13.76Z" fill="#fff"/><path d="M321.178 93.414c5.781 0 10.468-4.687 10.468-10.469 0-5.782-4.687-10.469-10.468-10.469-5.782 0-10.469 4.687-10.469 10.47 0 5.781 4.687 10.468 10.469 10.468Z" fill="#fff"/><path d="M326.016 89.695a8.332 8.332 0 0 0 1.927-11.626 8.334 8.334 0 1 0-1.927 11.626Z" fill="#fff"/><path d="M424.408 343.678h99.969v-4.866h-99.969v4.866Z" fill="#137ED9"/><path d="m539.867 343.678 17.219-64.512a4.556 4.556 0 0 0 .066-2.074 4.576 4.576 0 0 0-4.482-3.677h-68.501a4.593 4.593 0 0 0-2.831.979 4.588 4.588 0 0 0-1.618 2.522l-16.135 66.771 76.282-.009Z" fill="#137ED9"/><path d="M468.263 338.364h69.729l16.229-61.709h-70.083l-15.875 61.709Z" fill="#fff"/><path opacity=".15" d="M468.263 338.364h69.729l16.229-61.709h-70.083l-15.875 61.709Z" fill="#137ED9"/><path d="M538.44 338.989h-70.979l16.187-62.948h71.387l-16.595 62.948Zm-69.407-1.25h68.448l15.907-60.417h-68.75l-15.605 60.417Z" fill="#137ED9"/><path d="M529.732 363.094H419.314v32.719h110.418v-32.719Z" fill="#fff"/><path opacity=".35" d="M529.732 363.094H419.314v32.719h110.418v-32.719Z" fill="#137ED9"/><path d="M599.525 343.322H159.842v19.772h58.533v235.273h10.093V363.094h300.941v235.273h10.094V363.094h60.022v-19.772Z" fill="#fff"/><path opacity=".3" d="M599.525 343.322H159.842v19.772h58.533v235.273h10.093V363.094h300.941v235.273h10.094V363.094h60.022v-19.772Z" fill="#137ED9"/><path d="M481.148 374.437c3.063 4.032-1.479 8.584-5.51 5.512-3.073-4.032 1.489-8.584 5.51-5.512Z" fill="#fff"/><path d="M41.279 575.033s-.23 9.531-.417 11.959c-.187 2.426-7.916 2.604-8.812 1.354-.896-1.25-1.354-12.417-1.354-12.417" fill="#F5B58F"/><path d="M29.998 590.492c.092 2.231.328 4.455.708 6.657h8.917l.438-1.491a14.025 14.025 0 0 0 5.208 1.491H52.8c5.51 0 8.636-.699 8.782-1.667.583-4.052-6-3.865-7.709-3.865-4.917 0-10.25-2.303-11.458-4.803-.844-1.812-.47-2.27-1.49-1.927a2.555 2.555 0 0 0-1.531 1.324 4.527 4.527 0 0 1-4.646 2.531 5.392 5.392 0 0 1-3.01-1.458 3.247 3.247 0 0 0-1.74 3.208Z" fill="#000D44"/><path d="M75.52 575.033s-.23 9.531-.417 11.959c-.188 2.426-7.917 2.604-8.813 1.354-.896-1.25-1.355-12.417-1.355-12.417" fill="#F5B58F"/><path d="M64.237 590.492c.093 2.231.33 4.455.709 6.657h8.906l.438-1.491a14.024 14.024 0 0 0 5.208 1.491h7.531c5.511 0 8.636-.699 8.782-1.667.583-4.052-6-3.865-7.708-3.865-4.917 0-10.25-2.303-11.459-4.803-.844-1.812-.469-2.27-1.49-1.927a2.555 2.555 0 0 0-1.53 1.324 4.527 4.527 0 0 1-4.646 2.531 5.393 5.393 0 0 1-3.011-1.458 3.246 3.246 0 0 0-1.73 3.208Z" fill="#000D44"/><path d="M89.353 414.553a312.67 312.67 0 0 0-7.292-60.293c-.292-.594-9.928.761-11.032.844l-11.948.917a30.746 30.746 0 0 0-4.292.438c-.062-1.043-.104-2.032-.166-3.042l-17.594 1.656-8.771.823c-2.594.24-6.99-.209-9.375.864-3.448 1.595-4.99 9.188-5.76 12.772a59.165 59.165 0 0 0-1.042 15.832c.583 9.897 3.041 19.574 5.083 29.283a325.619 325.619 0 0 1 7.042 61.239c.24 13.887-.469 27.761-.25 41.668.354 21.875 3.02 43.583 5.812 65.25 4.123.796 8.37.668 12.438-.374 5.49-48.959 10.98-98.169 12.927-147.377 7.209 48.771-1.312 99.397 9.375 147.606 4.075.954 8.324.864 12.355-.262 2.77-38.103 8.333-75.959 11.072-114.063a526.085 526.085 0 0 0 1.418-53.781Z" fill="#1B255E"/><path fill-rule="evenodd" clip-rule="evenodd" d="M133.468 226.196c0-.823-2.084-.489-3.24-.572a3.016 3.016 0 0 0 .333-2.532c-2.989-.343-7.197.625-10.417.99-1.76.374-7.208 2.228-9.125 2.813a7.44 7.44 0 0 0-4.791 2.729 34.056 34.056 0 0 0-2.417 2.906v.062l-.344.47a2.296 2.296 0 0 0-.188.394 5.742 5.742 0 0 0-.624 1.896 94.905 94.905 0 0 1-3.053 9.552c-7.531 6.033-14.312 15.627-32.885 19.898-4.063.926-16.23 8.01-14.459 14.582 1.771 6.574.188 13.303 12.782 9.99 17.802-4.708 35.583-29.916 43.23-38.802 7.52-.49 7.093-5.011 14.072-9.062 2.854-1.656 5.625-1.042 6.376-4.168.437-1.76-4.094-.53-7.074.834-6.906 3.041-.385-.416 2.428-1.938 1.166-.624 5.208-1.968 6.313-2.614a3.846 3.846 0 0 0 2.082-4.396l-1.312.166a3.495 3.495 0 0 0 2.313-3.198Z" fill="#EFAB89"/><path d="M31.342 229.499s2.812-9.541 1.583-16.584c-1.23-7.042-5.458-19.719-3.875-29.219 1.583-9.499 13.542-17.428 26.23-16.198 12.687 1.229 16.374 13.376 18.479 20.417 2.104 7.042 1.76 17.782 1.23 23.584-.532 5.802-3.7 10.416-5.814 11.615-2.114 1.197-10.062-.396-11.458 1.124-1.396 1.52-2.448 10.49-2.448 10.49" fill="#F5B58F"/><path d="M25.352 237.03s.708-5.562 2.812-7.531c2.104-1.969 16.198-1.969 20.417-1.438 4.219.532 14.646 5.386 16.021 6.417 1.375 1.032-1.344 6.375-1.344 6.375l-37.906-3.823Z" fill="#137ED9"/><path opacity=".2" d="M25.352 237.03s.708-5.562 2.812-7.531c2.104-1.969 16.198-1.969 20.417-1.438 4.219.532 14.646 5.386 16.021 6.417 1.375 1.032-1.344 6.375-1.344 6.375l-37.906-3.823Z" fill="#000D44"/><path d="M31.862 217.499s17.605 1.5 20.949 0c3.343-1.5 8.187-4.751 8.624-10.74.438-5.989-.791-7.834 1.5-11.177 2.292-3.344 4.313-2.198 4.667.968.355 3.167.49 8.896 1.323 9.312 1.125.574 2.459-3.458 2.021-9.572-.375-5.302-.969-9.376-2.552-12.938v-.104a6.929 6.929 0 0 1 .854-7.23 24.863 24.863 0 0 0 1.48-2.197c3.52-5.499 1.583-14.072-7.75-14.042-14.23.053-29.24 2.501-33.053 11.136a17.008 17.008 0 0 1-4.115 5.385c-1.344 1.26-2.625 3.813-2.708 8.918-.177 10.999 6.864 24.291 7.396 27.728.531 3.438-.396 3.761 1.364 4.553Z" fill="#000D44"/><path d="M80.957 346.802c.194 1.318.458 2.626.791 3.916.719 2.771 1.782 5.459 2.261 8.282a3.13 3.13 0 0 1-.469 2.729 3.3 3.3 0 0 1-1.183.561 3.308 3.308 0 0 1-1.307.054c-16.854-.512-33.802-4.011-50.438-1.282-5.02.823-9.927 2.198-14.927 3.125a2.547 2.547 0 0 1-1.729-.103c-1.042-.594-.77-2.084-.438-3.251 2.334-8.041 1.396-16.667.073-24.895C9.685 311.521 2.518 287.614.53 262.968c-.438-5.365-.573-11.011 1.791-15.854 4.615-9.449 15.698-11.782 25.199-12.178 12.385-.5 25-.583 37.052 2.917 8.438 2.459 16.855 7.167 20.636 15.094 2.395 5.021 2.667 10.771 2.583 16.322-.281 19.855-4.469 39.418-6.604 59.158-.677 6.093-1.083 12.333-.23 18.375ZM153.632 200.989l-19.911 35.686 3.848 2.147 19.912-35.686-3.849-2.147ZM172.97 211.224l-19.917 35.682 3.847 2.148 19.918-35.682-3.848-2.148Z" fill="#137ED9"/><path fill-rule="evenodd" clip-rule="evenodd" d="M109.27 248.134a122.557 122.557 0 0 1 38.719 20.917c1.823 1.458 4.374 1.041 6.343-.219l16.489-10.417c.462-.288.84-.691 1.097-1.17a3.11 3.11 0 0 0 .372-1.559v-.229l-.166-6.854-4.083 2.979-36.033-19.542a6.134 6.134 0 0 0-3.205-.781 6.156 6.156 0 0 0-3.149.99l-13.906 8.76-4.281-2.499.156 6.624v.322a3.122 3.122 0 0 0 1.647 2.678Z" fill="#137ED9"/><path fill-rule="evenodd" clip-rule="evenodd" d="M109.155 241.343a194.344 194.344 0 0 1 38.72 20.916 5.699 5.699 0 0 0 6.343-.208l16.489-10.417a3.117 3.117 0 0 0 1.014-4.32 3.101 3.101 0 0 0-1.19-1.106l-38.637-20.96a6.147 6.147 0 0 0-6.354.209l-16.573 10.417a3.118 3.118 0 0 0-1.488 2.765 3.13 3.13 0 0 0 1.666 2.662l.01.042Z" fill="#137ED9"/><path opacity=".2" fill-rule="evenodd" clip-rule="evenodd" d="M109.155 241.343a194.344 194.344 0 0 1 38.72 20.916 5.699 5.699 0 0 0 6.343-.208l16.489-10.417a3.117 3.117 0 0 0 1.014-4.32 3.101 3.101 0 0 0-1.19-1.106l-38.637-20.96a6.147 6.147 0 0 0-6.354.209l-16.573 10.417a3.118 3.118 0 0 0-1.488 2.765 3.13 3.13 0 0 0 1.666 2.662l.01.042Z" fill="#000D44"/><path fill-rule="evenodd" clip-rule="evenodd" d="M111.353 240.092a192.32 192.32 0 0 1 36.146 19.542 5.134 5.134 0 0 0 5.698-.187l14.823-9.375a2.832 2.832 0 0 0 1.323-2.482 2.83 2.83 0 0 0-1.479-2.393l-36.074-19.573a5.527 5.527 0 0 0-5.708.187l-14.896 9.376a2.82 2.82 0 0 0-.894 3.877c.26.42.626.763 1.061.997v.031Z" fill="#fff"/><path opacity=".15" fill-rule="evenodd" clip-rule="evenodd" d="M111.353 240.092a192.32 192.32 0 0 1 36.146 19.542 5.134 5.134 0 0 0 5.698-.187l14.823-9.375a2.832 2.832 0 0 0 1.323-2.482 2.83 2.83 0 0 0-1.479-2.393l-36.074-19.573a5.527 5.527 0 0 0-5.708.187l-14.896 9.376a2.82 2.82 0 0 0-.894 3.877c.26.42.626.763 1.061.997v.031Z" fill="#137ED9"/><path d="M119.846 241.5c2.91-.07 5.235-1.595 5.19-3.407-.043-1.812-2.438-3.223-5.348-3.153-2.91.07-5.234 1.596-5.191 3.408.045 1.81 2.439 3.223 5.349 3.152Z" fill="#137ED9"/><path fill-rule="evenodd" clip-rule="evenodd" d="M119.686 231.113c.406 0 .74.209.74.491l.125 5.208c0 .28-.313.51-.719.52-.407 0-.74-.208-.74-.489l-.125-5.208c-.062-.24.261-.522.719-.522Z" fill="#137ED9"/><path opacity=".2" fill-rule="evenodd" clip-rule="evenodd" d="M119.686 231.113c.406 0 .74.209.74.491l.125 5.208c0 .28-.313.51-.719.52-.407 0-.74-.208-.74-.489l-.125-5.208c-.062-.24.261-.522.719-.522Z" fill="#000D44"/><path fill-rule="evenodd" clip-rule="evenodd" d="M119.686 232.072c.484-.028.963.103 1.365.374a.793.793 0 0 1 .259.542c0 .594-.739 1.042-1.686 1.104a2.218 2.218 0 0 1-1.365-.374.792.792 0 0 1-.261-.542c.011-.584.771-1.073 1.688-1.104Z" fill="#137ED9"/><path d="M119.691 233.339a2.198 2.198 0 1 0-.104-4.394 2.198 2.198 0 0 0 .104 4.394Z" fill="#137ED9"/><path opacity=".2" d="M119.691 233.339a2.198 2.198 0 1 0-.104-4.394 2.198 2.198 0 0 0 .104 4.394Z" fill="#000D44"/><path d="M126.418 243.236c1.374-.032 2.472-.75 2.451-1.6-.02-.851-1.152-1.515-2.526-1.481-1.374.032-2.472.749-2.451 1.601.02.85 1.15 1.514 2.526 1.48Z" fill="#137ED9"/><path fill-rule="evenodd" clip-rule="evenodd" d="m158.874 243.301-21.125-11.594-10.771 6.469 21.126 11.594 10.77-6.469Z" fill="#137ED9"/><path opacity=".85" fill-rule="evenodd" clip-rule="evenodd" d="m156.833 243.228-19.021-10.427-8.928 5.375 19.021 10.416 8.928-5.364Z" fill="#fff"/><path d="M149.069 258.022c2.91-.071 5.234-1.592 5.191-3.398-.043-1.806-2.438-3.213-5.348-3.142-2.91.07-5.235 1.591-5.19 3.397.043 1.806 2.437 3.212 5.347 3.143Z" fill="#137ED9"/><path fill-rule="evenodd" clip-rule="evenodd" d="M148.853 247.686c.407 0 .739.209.739.49l.126 5.209c0 .281-.313.51-.719.519-.407 0-.74-.207-.74-.488l-.125-5.208c-.011-.271.312-.511.719-.522Z" fill="#137ED9"/><path opacity=".2" fill-rule="evenodd" clip-rule="evenodd" d="M148.853 247.686c.407 0 .739.209.739.49l.126 5.209c0 .281-.313.51-.719.519-.407 0-.74-.207-.74-.488l-.125-5.208c-.011-.271.312-.511.719-.522Z" fill="#000D44"/><path fill-rule="evenodd" clip-rule="evenodd" d="M148.937 248.614c.483-.028.962.104 1.364.375a.787.787 0 0 1 .261.541c0 .593-.74 1.042-1.698 1.104a2.21 2.21 0 0 1-1.365-.375.788.788 0 0 1-.26-.541c-.011-.584.75-1.084 1.698-1.104Z" fill="#137ED9"/><path d="M148.914 249.87a2.2 2.2 0 0 0 2.146-2.25 2.2 2.2 0 0 0-4.396.107 2.197 2.197 0 0 0 2.25 2.143Z" fill="#137ED9"/><path opacity=".2" d="M148.914 249.87a2.2 2.2 0 0 0 2.146-2.25 2.2 2.2 0 0 0-4.396.107 2.197 2.197 0 0 0 2.25 2.143Z" fill="#000D44"/><path d="M131.66 246.026c1.376-.033 2.472-.75 2.452-1.6-.02-.852-1.152-1.515-2.526-1.482-1.375.033-2.472.75-2.452 1.602.021.85 1.151 1.514 2.526 1.48ZM136.903 248.816c1.374-.033 2.472-.75 2.452-1.6-.021-.852-1.152-1.516-2.526-1.482-1.375.033-2.472.75-2.452 1.6.021.851 1.151 1.516 2.526 1.482ZM142.135 251.596c1.374-.034 2.472-.75 2.452-1.602-.021-.851-1.152-1.514-2.526-1.481-1.375.033-2.472.75-2.452 1.601.021.852 1.151 1.514 2.526 1.482Z" fill="#137ED9"/><path fill-rule="evenodd" clip-rule="evenodd" d="m131.645 230.968-2.021 1.188a.328.328 0 0 1-.343 0l-.918-.512a.167.167 0 0 1-.083-.145.168.168 0 0 1 .083-.146l2.022-1.219a.331.331 0 0 1 .343 0l.917.52a.175.175 0 0 1 .062.062.16.16 0 0 1 .023.085c0 .03-.007.059-.023.084a.168.168 0 0 1-.062.062v.021ZM128.687 232.739l-2.022 1.218a.335.335 0 0 1-.343 0l-.906-.51a.168.168 0 0 1-.087-.145c0-.03.009-.06.024-.086a.16.16 0 0 1 .063-.061l2.02-1.219a.338.338 0 0 1 .344 0l.916.521a.17.17 0 0 1 .064.061.18.18 0 0 1 .023.085c0 .03-.009.059-.023.084a.176.176 0 0 1-.064.063l-.009-.011ZM162.395 247.78l-2.021 1.219a.333.333 0 0 1-.344 0l-.916-.51a.157.157 0 0 1-.062-.063.155.155 0 0 1-.024-.084.169.169 0 0 1 .086-.145l2.02-1.219a.338.338 0 0 1 .344 0l.917.521a.152.152 0 0 1 .062.061.158.158 0 0 1 0 .169.146.146 0 0 1-.062.061v-.01ZM159.457 249.52l-2.021 1.219a.332.332 0 0 1-.343 0l-.917-.511a.173.173 0 0 1-.063-.06.172.172 0 0 1 0-.171.168.168 0 0 1 .063-.061l2.052-1.218a.326.326 0 0 1 .172-.048c.061 0 .12.016.172.048l.916.521a.158.158 0 0 1 .062.061.167.167 0 0 1 .022.084.17.17 0 0 1-.115.136Z" fill="#137ED9"/><path fill-rule="evenodd" clip-rule="evenodd" d="m169.946 253.781-1.093 1.291 3.209-4.615c1.5-2.155-1.511-3.052-3.187-1.042l-4.021 4.803 3.249-6.084c1.23-2.313-1.854-2.406-3.26-.197l-4.531 6.519c-3.886 3.2-6.47 4.971-9.376 4.803a13.065 13.065 0 0 1-.426-4.167c1.198-5.083.655-6.583-1.564-7.124-.374 2.822-1.894 4.115-2.259 6.928-.282 2.176-.979 3.405-.813 5.602.323 4.043.833 6.158 1.448 7.104.062.293.135.585.219.897-7.074 5.844-13.303 13.958-30.886 18.011a17.539 17.539 0 0 0-3.729 1.51c-8.542-4.782-14.199-19.375-28-31.198-6.948-22.229-23.73-16.386-26.845-12.584-4.708 5.709-11.354 19.26 3.459 34.48 14.916 20.417 30 23.677 44 31.25 1.531 1.418 4.24 1.823 9.469.448 17.313-4.583 32.698-26.969 40.146-35.604 3.532-.803 5.698-1.938 10.417-4.792a4.89 4.89 0 0 0 1.844-1.896c.17-.11.318-.252.438-.417l3.207-4.041 1.656-4.824c.522-1.498.064-2.301-.749-2.25l1.365-1.936c1.562-2.126-1.698-2.886-3.387-.875Z" fill="#EFAB89"/><path fill-rule="evenodd" clip-rule="evenodd" d="M64.55 284.156c15.812-3.324 26.292-13.657 22.115-27.897-7.437-16.667-22.104-20.947-29.709-14.25-13.187 11.625-7.219 26.928 7.594 42.147Z" fill="#137ED9"/><path opacity=".15" d="M556.816 598.304H204.728v9.376h352.088v-9.376Z" fill="#137ED9"/></svg>