<svg width="308" height="87" fill="none" xmlns="http://www.w3.org/2000/svg"><path d="M99.077 41.824v11.422a10.086 10.086 0 0 1-2.224 1.691c-.797.445-1.64.8-2.514 1.059-.892.262-1.806.44-2.731.531-.951.097-1.907.145-2.863.145a13.578 13.578 0 0 1-5.417-1.081 14.34 14.34 0 0 1-4.437-2.973 13.987 13.987 0 0 1-2.994-4.415 13.512 13.512 0 0 1-1.094-5.423 13.72 13.72 0 0 1 1.886-7.02 14.25 14.25 0 0 1 2.2-2.828 13.93 13.93 0 0 1 6.158-3.567 13.736 13.736 0 0 1 3.702-.493 13.008 13.008 0 0 1 2.985.342c.975.227 1.924.559 2.828.99.91.441 1.775.967 2.586 1.571.829.614 1.6 1.302 2.303 2.055l-1.144 1.16a3.331 3.331 0 0 1-2.564 1.084 3.324 3.324 0 0 1-1.942-.606 9.213 9.213 0 0 0-2.35-1.163 8.581 8.581 0 0 0-2.69-.418 8.681 8.681 0 0 0-3.456.704 9.056 9.056 0 0 0-4.805 4.723 8.517 8.517 0 0 0-.713 3.456 8.37 8.37 0 0 0 .741 3.51 9.235 9.235 0 0 0 8.41 5.414 13.907 13.907 0 0 0 3.482-.512 6.539 6.539 0 0 0 1.636-.704v-3.83l-1.571-.029a3.248 3.248 0 0 1-1.367-.295 2.093 2.093 0 0 1-.962-.962 4.337 4.337 0 0 1-.361-2.004v-1.524l9.282-.01ZM112.259 56.417h-4.984v-27.26h10.235a8.434 8.434 0 0 1 3.588.742 8.635 8.635 0 0 1 2.747 1.97 8.897 8.897 0 0 1 1.769 2.785c.719 1.765.83 3.72.314 5.555a8.29 8.29 0 0 1-.943 2.15 8.981 8.981 0 0 1-3.635 3.29 1520.548 1520.548 0 0 0 7.972 10.768h-3.916a3.049 3.049 0 0 1-.942-.173 4.614 4.614 0 0 1-1.113-.54 8.287 8.287 0 0 1-1.2-.943 9.373 9.373 0 0 1-1.207-1.449l-4.964-6.696h-3.721v9.801Zm5.405-14.819c.476-.003.946-.11 1.376-.314a3.6 3.6 0 0 0 1.144-.82c.327-.346.588-.749.77-1.188.188-.441.285-.916.286-1.395 0-.488-.097-.971-.286-1.42a4 4 0 0 0-.77-1.188 3.642 3.642 0 0 0-1.144-.817c-.43-.206-.9-.313-1.376-.315h-5.405v7.438l5.405.02ZM142.469 29.158h4.509l11.909 27.259h-3.101a3.583 3.583 0 0 1-1.939-.55 3.407 3.407 0 0 1-1.313-1.524l-1.619-3.689h-12.383l-1.597 3.69c-.13.306-.311.59-.534.838-.228.253-.49.473-.779.654-.292.186-.61.33-.943.427a3.429 3.429 0 0 1-1.018.154h-3.101l11.909-27.26Zm-1.731 16.49h7.972l-3.557-8.254a4.691 4.691 0 0 1-.334-1.047 8.009 8.009 0 0 1-.106-.722c-.024.246-.061.49-.114.732a5.45 5.45 0 0 1-.314 1.037l-3.547 8.254ZM173.197 56.417h-5.008V44.869a2.214 2.214 0 0 0-.264-1.084 11.92 11.92 0 0 0-.704-1.084l-10.008-13.543h3.824a4.765 4.765 0 0 1 2.215.493 4.218 4.218 0 0 1 1.59 1.427l5.383 7.287c.158.21.275.45.345.703.063.24.098.393.11.456.024-.151.06-.3.107-.446.076-.26.202-.502.371-.713l5.364-7.269a4.08 4.08 0 0 1 1.59-1.454c.69-.335 1.449-.5 2.215-.484h3.868L174.162 42.72c-.151.204-.286.39-.396.562a5.76 5.76 0 0 0-.314.503 2.216 2.216 0 0 0-.264 1.084l.009 11.548ZM211.618 43.33v10.498a8.718 8.718 0 0 1-2.052 1.42c-.766.38-1.569.68-2.397.896-.869.223-1.753.375-2.646.455-.911.082-1.838.123-2.775.123a13.48 13.48 0 0 1-5.423-1.097 13.972 13.972 0 0 1-7.416-7.406 14.032 14.032 0 0 1 0-10.863 13.97 13.97 0 0 1 2.998-4.434 14.186 14.186 0 0 1 4.43-2.985 14.073 14.073 0 0 1 10.741-.056 14.021 14.021 0 0 1 4.364 2.881l-.188.173a2.614 2.614 0 0 1-.77.54 2.284 2.284 0 0 1-.924.18 2.098 2.098 0 0 1-1.219-.38 11.987 11.987 0 0 0-3.061-1.512 11.242 11.242 0 0 0-3.519-.54 11.419 11.419 0 0 0-3.073.408 11.08 11.08 0 0 0-2.756 1.169c-.853.503-1.64 1.11-2.344 1.806a11.31 11.31 0 0 0-1.807 2.341c-.505.87-.898 1.8-1.169 2.769a11.178 11.178 0 0 0-.418 3.07c-.004 1.04.14 2.074.427 3.073a11.656 11.656 0 0 0 3.064 5.106c.717.7 1.518 1.308 2.385 1.81a11.718 11.718 0 0 0 5.898 1.578c1.293.004 2.58-.172 3.824-.522a13.415 13.415 0 0 0 3.501-1.571v-6.555h-2.417a2.25 2.25 0 0 1-1.665-.694 2.284 2.284 0 0 1-.456-.733 2.432 2.432 0 0 1-.16-.876v-.076l7.023.004ZM222.198 56.417h-2.379v-27.26h9.55a7.475 7.475 0 0 1 2.988.598 7.74 7.74 0 0 1 2.423 1.637 7.637 7.637 0 0 1 1.637 2.426c.402.937.606 1.947.6 2.966a7.94 7.94 0 0 1-.477 2.721 8.282 8.282 0 0 1-1.311 2.36 7.087 7.087 0 0 1-2.017 1.722 6.547 6.547 0 0 1-2.567.826l9.015 12.004h-1.122c-1.304 0-2.272-.484-2.891-1.442l-7.934-10.562h-5.515v12.004Zm0-24.884v10.502h7.171a5.156 5.156 0 0 0 2.045-.409 5.281 5.281 0 0 0 2.807-2.796c.28-.646.422-1.342.417-2.046a4.972 4.972 0 0 0-.417-2.033 5.364 5.364 0 0 0-2.807-2.8 5.058 5.058 0 0 0-2.045-.418h-7.171ZM248.373 56.417h-2.378v-27.26h2.378v27.26ZM257.561 56.417v-27.26h10.027a13.41 13.41 0 0 1 6.873 1.864 13.91 13.91 0 0 1 4.902 4.899 13.563 13.563 0 0 1 0 13.754 14.045 14.045 0 0 1-2.14 2.759 13.588 13.588 0 0 1-6.012 3.497 13.29 13.29 0 0 1-3.623.487h-10.027Zm10.027-2.379c1.512.013 3.01-.288 4.4-.883a11.508 11.508 0 0 0 3.576-2.407 11.235 11.235 0 0 0 2.416-3.575 11.28 11.28 0 0 0 0-8.752 11.354 11.354 0 0 0-2.416-3.585 11.482 11.482 0 0 0-3.576-2.416 10.965 10.965 0 0 0-4.4-.887h-7.648v22.505h7.648ZM298.521 32.73c-.292-.2-.55-.392-.77-.568a3.885 3.885 0 0 0-1.571-.76 5.652 5.652 0 0 0-1.257-.114 5.999 5.999 0 0 0-3.833 1.37c-.49.405-.893.902-1.188 1.465a3.75 3.75 0 0 0-.437 1.769 4.72 4.72 0 0 0 .277 1.75c.202.478.527.894.942 1.207.529.402 1.112.729 1.732.97.716.298 1.601.631 2.655 1 .559.21 1.083.4 1.571.572.481.176.943.358 1.37.54.412.175.815.37 1.207.588.374.212.734.45 1.074.713a5.564 5.564 0 0 1 1.886 2.514 9.422 9.422 0 0 1 .54 3.255 7.163 7.163 0 0 1-.704 3.215 7.346 7.346 0 0 1-1.901 2.426 8.482 8.482 0 0 1-2.806 1.53 10.802 10.802 0 0 1-3.447.531c-2.371 0-4.369-.704-5.992-2.112a10.41 10.41 0 0 1-1.132-1.206 9.867 9.867 0 0 1-.751-1.097l.283-.17a2.438 2.438 0 0 1 1.201-.36c.295-.002.589.039.873.122.282.084.539.239.745.449.436.415.91.788 1.417 1.112.376.236.778.428 1.197.572.352.115.716.188 1.084.217.348.025.706.044 1.075.057a8.047 8.047 0 0 0 2.291-.258 6.143 6.143 0 0 0 2.074-.943 5.148 5.148 0 0 0 1.505-1.665 4.748 4.748 0 0 0 .581-2.413 5.825 5.825 0 0 0-.455-2.514 4.095 4.095 0 0 0-1.257-1.53 7.407 7.407 0 0 0-1.914-.98 96.61 96.61 0 0 1-2.379-.887c-1.078-.43-2.061-.833-2.947-1.197a9.385 9.385 0 0 1-2.272-1.304 5.174 5.174 0 0 1-1.468-1.854 6.694 6.694 0 0 1-.521-2.853 5.97 5.97 0 0 1 .704-2.891 7.488 7.488 0 0 1 1.816-2.219c.749-.617 1.6-1.1 2.514-1.426a8.309 8.309 0 0 1 2.806-.503 7.106 7.106 0 0 1 2.181.314 8.367 8.367 0 0 1 1.784.798 8.794 8.794 0 0 1 1.468 1.094c.436.406.838.806 1.206 1.2l-.59.418c-.16.117-.336.21-.522.276-.231.075-.473.11-.716.104a2.2 2.2 0 0 1-1.229-.323ZM61.046 46.143c1.937-15.138-8.765-28.98-23.903-30.917C22.005 13.29 8.163 23.992 6.226 39.13 4.29 54.268 14.992 68.11 30.13 70.046c15.138 1.937 28.98-8.765 30.916-23.903Z" fill="#070707"/><path d="M34.896 42.786v2.649h5.8v4.43h-5.759v-.015c-.154 0-.314.015-.468.015a6.378 6.378 0 0 1-2.492-.5 6.467 6.467 0 0 1-2.828-2.318 6.398 6.398 0 0 1 9.36-8.525h11.313A16.136 16.136 0 1 0 34.466 59.6H50.49V42.78l-15.595.006Zm5.8 14.14h-5.341c-.201 0-.409.022-.628.025h-.466a13.484 13.484 0 1 1 11.331-21.075h-6.215a9.049 9.049 0 1 0-4.911 16.654h6.23v4.396Zm7.172.025h-4.52l.026-.016h-.025v-4.399h4.519v4.415Zm0-7.08h-4.52v-4.43h4.52v4.43Z" fill="#262626"/><path d="M34.114 41.95v2.649h5.803v4.43h-5.766v-.015c-.154 0-.314.016-.465.016a6.374 6.374 0 0 1-5.307-2.828 6.429 6.429 0 0 1-.59-6.068 6.4 6.4 0 0 1 8.387-3.419 6.446 6.446 0 0 1 1.57.943h11.312a18.69 18.69 0 0 0-.493-1.333 16.136 16.136 0 1 0-14.885 22.44h16.026v-16.83l-15.592.015Zm5.803 14.14h-5.341c-.205 0-.409.022-.629.025h-.455A13.485 13.485 0 1 1 44.804 35.04h-6.21a9.05 9.05 0 1 0-4.914 16.635h6.231l.006 4.415Zm7.171.025H42.57l.022-.015h-.022v-4.425h4.518v4.44Zm0-7.08H42.57v-4.43h4.518v4.43Z" fill="#fff"/><path d="M39.917 51.678h2.653v1.26h-2.653v-1.26ZM37.771 44.599h2.147v1.26h2.648v-1.26h1.946v-.003h-6.74v.003Z" fill="#999"/></svg>