<svg width="308" height="87" fill="none" xmlns="http://www.w3.org/2000/svg"><path d="m280.142 51.633 23.712-28.596h-11.64l-21.26 25.633v-.164l-9.634 11.68-2.096 2.542c-.06.101-.118.205-.18.306l-3.612 4.355a19.983 19.983 0 0 1-2.124 1.685 19.475 19.475 0 0 1-11.074 3.433v.15a19.498 19.498 0 0 1-7.688-1.58 19.996 19.996 0 0 1-8.722-7.293 20.23 20.23 0 0 1-3.382-11.246c0-2.791.554-5.426 1.554-7.83a20.153 20.153 0 0 1 7.186-8.857 19.49 19.49 0 0 1 11.076-3.432 19.507 19.507 0 0 1 11.616 3.815l5.224-7.32a28.318 28.318 0 0 0-16.84-5.538c-3.954 0-7.742.817-11.182 2.294-5.16 2.216-9.536 5.909-12.634 10.56a29.368 29.368 0 0 0-4.906 16.308c0 .1.008.201.008.302h-.156c0 2.788-.554 5.425-1.556 7.828a20.161 20.161 0 0 1-7.182 8.856 19.502 19.502 0 0 1-11.076 3.434 19.475 19.475 0 0 1-7.713-1.58c-3.55-1.523-6.584-4.08-8.724-7.294a20.193 20.193 0 0 1-2.375-4.907 37.41 37.41 0 0 1-1.188-.617c-2.03-1.104-4.574-2.714-6.66-4.828a41.05 41.05 0 0 1-2.36-2.613c.046.566.073 1.139.073 1.72 0 2.79-.553 5.426-1.555 7.829a20.145 20.145 0 0 1-7.184 8.856 19.5 19.5 0 0 1-11.075 3.434 19.475 19.475 0 0 1-7.713-1.58c-3.551-1.523-6.585-4.08-8.722-7.294a20.204 20.204 0 0 1-3.382-11.244c0-2.79.555-5.427 1.556-7.832a20.153 20.153 0 0 1 7.183-8.855 19.489 19.489 0 0 1 11.078-3.433c2.747 0 5.342.563 7.711 1.58a19.98 19.98 0 0 1 8.722 7.293c.048.073.094.147.141.22l.013-.004.001.006.013.033.008.021c.082.128.159.262.238.391.2.456.598 1.321 1.227 2.45l.199.35c.052.125.109.247.158.373a35.09 35.09 0 0 0 2.247 3.269c.05.066.097.13.148.194a31.557 31.557 0 0 0 2.849 3.237l.025.025c.172.17.345.337.525.505.07.064.139.13.209.193a26.585 26.585 0 0 0 3.846 2.964 23.5 23.5 0 0 0 5.463 2.547 23.046 23.046 0 0 0 6.605 1.063h.003c.204.004.404.006.603.006 3.816 0 7.238-.605 10.243-1.684a25.415 25.415 0 0 0 6.036-3.116c2.652-1.863 4.744-4.095 6.374-6.383 1.63-2.292 2.804-4.641 3.66-6.809.654-1.66.99-3.308.99-4.887 0-.908-.11-1.785-.316-2.602a10.311 10.311 0 0 0-1.71-3.615 11.592 11.592 0 0 0-3.216-2.939c-.946-.583-1.65-.852-1.86-.93l-.016.052a28.292 28.292 0 0 0-12.378-2.845c-3.955 0-7.744.815-11.183 2.293a28.754 28.754 0 0 0-8.958 6.081V4.048h-8.904v24.393c.544.529 1.11 1.103 1.696 1.729 2.253 2.404 3.712 4.727 4.993 6.864 1.283 2.143 2.391 4.085 3.948 5.857.236.271.487.538.749.804a20.138 20.138 0 0 1 6.582-7.542 19.478 19.478 0 0 1 11.077-3.433c3.612 0 6.966.971 9.879 2.675l.035-.063c.191.151.365.326.462.477.072.106.118.198.152.303a1.4 1.4 0 0 1 .062.445c0 .29-.056.77-.353 1.529a23.284 23.284 0 0 1-2.246 4.34 18.885 18.885 0 0 1-2.489 3.027 16.36 16.36 0 0 1-5.297 3.49c-2.149.88-4.751 1.45-8.012 1.45-.153 0-.305 0-.457-.003h-.003a14.393 14.393 0 0 1-3.686-.532c-1.965-.554-3.672-1.498-5.172-2.658a18.39 18.39 0 0 1-1.487-1.288c0-.003 0-.008.003-.012a23.4 23.4 0 0 1-.65-.636 24.48 24.48 0 0 1-2.976-3.827c-.563-.894-1.143-1.639-1.405-2.168-.13-.267-.391-.68-.391-.68-1.332-2.23-2.717-4.497-4.93-6.861-.029-.031-.058-.057-.084-.089v.002a28.971 28.971 0 0 0-3.656-2.981 28.315 28.315 0 0 0-16.06-4.982 28.27 28.27 0 0 0-11.183 2.293c-5.16 2.218-9.536 5.91-12.632 10.56a29.367 29.367 0 0 0-4.908 16.309 29.425 29.425 0 0 0 2.259 11.35 29.147 29.147 0 0 0 10.401 12.826A28.31 28.31 0 0 0 144.813 82c3.952 0 7.742-.816 11.181-2.295 5.16-2.216 9.535-5.908 12.633-10.559.193-.293.383-.589.567-.89a29.125 29.125 0 0 0 8.315 8.76A28.32 28.32 0 0 0 193.574 82a28.27 28.27 0 0 0 11.18-2.295c5.156-2.216 9.536-5.908 12.63-10.559.216-.322.424-.65.624-.983a29.086 29.086 0 0 0 8.19 8.552 28.313 28.313 0 0 0 16.06 4.983c3.95 0 7.744-.815 11.18-2.293a28.674 28.674 0 0 0 8.61-5.736v8.142h8.906V62.709l3.342-4.027 18.284 23.129H304l-23.858-30.178Zm-9.188-47.585h-8.906v48.35c0 1.312-.126 2.588-.364 3.825l9.27-11.238V4.048Z" fill="#190B5A"/><path d="M55.028 24.79v23.696c0 11.039-6.675 17.706-16.794 17.706-10.12 0-17.224-6.667-17.224-17.706V4H4v44.486c0 20.22 13.348 32.79 34.234 32.79 20.777 0 33.804-12.57 33.804-32.79V4h-.298c-8.971 2.924-15.663 10.995-16.712 20.79Z" fill="url('#paint0_linear')"/><path d="M86.6 4h-.292v76.513h17.01V24.805C103.157 16.303 95.575 6.926 86.6 4Z" fill="url('#paint1_linear')"/><path d="M55.028 24.79v23.696l-.001.044c.004.236.017.47.017.707 0 15.959-11.838 29.103-27.083 30.894 3.173.75 6.605 1.146 10.273 1.146 20.777 0 33.804-12.57 33.804-32.791V4h-.298c-8.971 2.924-15.663 10.995-16.712 20.79Z" fill="url('#paint2_linear')"/><path d="M21.01 24.828V4H4v.003c9.044 2.93 15.82 10.998 17.01 20.825Z" fill="url('#paint3_linear')"/><path d="M86.308 57.839v22.674h16.802c-9.37-3.357-16.203-12.165-16.802-22.674Z" fill="url('#paint4_linear')"/><defs><linearGradient id="paint0_linear" x1="62.212" y1="73.807" x2="16.871" y2="-3.544" gradientUnits="userSpaceOnUse"><stop stop-color="#C5259A"/><stop offset=".17" stop-color="#55369B"/><stop offset=".576" stop-color="#4779C6"/><stop offset="1" stop-color="#70D0E4"/></linearGradient><linearGradient id="paint1_linear" x1="94.813" y1="4" x2="94.813" y2="80.513" gradientUnits="userSpaceOnUse"><stop stop-color="#7A2393"/><stop offset=".473" stop-color="#951E93"/><stop offset="1" stop-color="#EE197F"/></linearGradient><linearGradient id="paint2_linear" x1="50" y1="4" x2="50" y2="81.277" gradientUnits="userSpaceOnUse"><stop stop-color="#7A2393"/><stop offset=".473" stop-color="#951E93"/><stop offset=".891" stop-color="#EE197F"/><stop offset="1" stop-color="#EE1A98"/></linearGradient><linearGradient id="paint3_linear" x1="10.429" y1="17.093" x2="21.139" y2="3.688" gradientUnits="userSpaceOnUse"><stop stop-color="#423A9C"/><stop offset=".327" stop-color="#4779C6"/><stop offset="1" stop-color="#70D0E4"/></linearGradient><linearGradient id="paint4_linear" x1="95.349" y1="68.392" x2="84.995" y2="80.699" gradientUnits="userSpaceOnUse"><stop stop-color="#3F2D92"/><stop offset=".194" stop-color="#951E93"/><stop offset="1" stop-color="#EE197F"/></linearGradient></defs></svg>