<svg width="308" height="87" fill="none" xmlns="http://www.w3.org/2000/svg"><path d="M71.696 68.656c.475.237.95.475 1.9.712 3.563 1.663 6.889 2.613 10.927 2.613 13.064 0 23.99-10.926 23.99-23.99C108.513 34.925 97.587 24 84.76 24c-8.551 0-16.389 8.313-21.615 13.54l-6.413 6.413-10.927-10.927C41.53 28.751 36.779 24 28.466 24 14.926 24.238 4 35.164 4 48.228c0 13.064 10.926 23.99 23.753 23.99 3.563 0 7.601-.712 10.926-2.612 3.088-1.9 11.402-6.889 16.152-11.64l1.188-1.187 5.938 5.7c4.038 3.564 7.126 4.989 9.739 6.177Zm-3.801-23.278 2.613-2.613c3.801-3.8 9.739-9.501 14.015-9.501 8.076 0 15.201 7.6 15.201 15.677 0 8.076-6.888 15.201-15.201 15.201-2.613 0-6.889-1.425-9.502-2.85-6.888-4.038-12.589-10.689-12.589-10.689l5.463-5.225Zm-19.002 6.175c-3.8 3.8-11.164 8.552-13.777 9.977-2.375 1.187-4.275 1.9-6.888 1.9-8.076 0-15.202-6.888-15.202-15.202 0-8.076 6.888-15.202 15.202-15.202 4.751 0 6.888 2.138 10.926 6.413l11.164 10.927-1.425 1.188ZM116.589 63.192c-.475-.475-.713-1.425-.713-2.375V36.352c0-.95.238-1.9.951-2.376.712-.712 1.425-.95 2.375-.95s1.9.238 2.375.95c.713.713.95 1.425.95 2.376v22.09h11.164c2.138 0 3.088.95 3.088 2.85 0 1.9-.95 2.85-3.088 2.85h-14.727c-1.187-.237-1.9-.474-2.375-.95ZM140.342 37.777c-.475-.475-.713-.95-.95-1.663-.238-.95 0-1.9.713-2.613.475-.712 1.187-.95 2.137-1.188.713-.237 1.663-.237 2.376 0 1.662.476 2.612 2.613 2.137 4.038-.95 2.613-4.513 3.088-6.413 1.426Zm.238 25.653c-.713-.475-.951-1.425-.951-2.375V45.14c0-.95.238-1.9.951-2.375.712-.475 1.425-.713 2.375-.713s1.663.238 2.375.713c.713.475.95 1.188.95 2.375v15.915c0 .95-.237 1.9-.95 2.375-1.187.712-2.613.95-3.8.475-.475 0-.713-.238-.95-.475ZM170.508 44.428c1.188 1.425 1.901 3.8 1.901 6.888v9.976c0 .95-.238 1.663-.951 2.375-.712.475-1.425.713-2.375.713s-1.9-.237-2.375-.713c-.475-.475-.95-1.187-.95-2.375v-9.739c0-1.425-.238-2.612-.713-3.087-.475-.713-1.425-.95-2.613-.95-1.425 0-2.375.474-3.325 1.425a5.832 5.832 0 0 0-1.188 3.563v9.263c0 .95-.237 1.663-.95 2.375-.475.476-1.425.713-2.375.713s-1.9-.237-2.375-.713c-.713-.475-.951-1.187-.951-2.375V45.853c0-.95.238-1.663.951-2.138.712-.475 1.425-.713 2.375-.713s1.663.238 2.138.713c.475.475.95 1.188.95 2.138v.712c0-.237.237-.475.237-.475l.475-.475.95-.95c1.663-1.188 3.801-1.9 5.701-1.9 2.138-.238 4.276 0 5.463 1.663ZM195.92 58.442c.24.237.24.237.24.475.24.712.24 1.663-.24 2.375-.47.95-1.18 1.188-1.9 1.663-.95.475-1.9.712-2.85.95-1.42.237-2.61.475-3.56.475-2.37 0-4.28-.475-6.18-1.425-1.66-.95-3.08-2.138-4.033-3.8-.95-1.663-1.426-3.564-1.426-5.939 0-2.138.476-4.038 1.426-5.7.953-1.663 2.133-3.088 3.803-4.039 1.66-.95 3.32-1.425 5.46-1.425 1.9 0 3.56.475 5.23 1.188 1.42.95 2.61 2.138 3.32 3.563.71 1.663 1.19 3.325 1.19 5.463 0 .712-.24 1.188-.48 1.425-.23.238-.71.475-1.18.475h-12.12c.24 1.663.71 2.85 1.67 3.8.95.95 2.13 1.188 3.56 1.188.95 0 1.66 0 2.37-.237.72-.238 1.43-.475 2.14-.713.71-.237 1.43-.475 2.14-.475.24 0 .71 0 .95.238.24 0 .47.237.47.475Zm-11.87-10.69c-.72.713-1.19 1.901-1.43 3.564h8.32c0-1.425-.48-2.613-1.19-3.563a3.924 3.924 0 0 0-2.85-1.188c-1.19 0-2.14.475-2.85 1.188ZM202.1 63.43c-.71-.475-.95-1.425-.95-2.375V36.352c0-.95.24-1.9.95-2.376.71-.712 1.42-.95 2.38-.95.95 0 1.9.238 2.37.95.71.713.95 1.425.95 2.376v24.465c0 .713-.24 1.663-.71 2.375-.95.713-2.38 1.426-3.8.95-.48-.237-.95-.474-1.19-.712ZM217.54 62.955c-1.66-.95-2.85-2.138-3.8-3.8-.95-1.663-1.43-3.564-1.43-5.939 0-2.138.48-4.275 1.43-5.938a10.926 10.926 0 0 1 4.04-4.038c1.66-.95 3.8-1.425 5.94-1.425 1.18 0 2.37.237 3.56.475.95.237 2.14.712 3.09 1.425 1.42.95 1.9 2.85.95 4.275-.24.238-.24.475-.72.713-.47.238-.71 0-1.18 0-.95-.238-1.9-.475-2.85-.95-.72-.238-1.43-.713-2.38-.713-1.66 0-2.85.713-4.04 1.663-.95.95-1.19 2.613-1.19 4.513s.48 3.563 1.19 4.513c.95.95 2.14 1.663 3.8 1.663.95 0 1.43-.238 2.38-.475.71-.238 1.19-.475 1.9-.713 1.19-.475 2.14-.475 2.85.238.47.475.47 1.187.47 1.9 0 1.188-.47 1.9-1.42 2.375-.95.475-1.9.95-3.33 1.425-1.42.476-2.61.476-3.8.476-1.9-.238-3.8-.713-5.46-1.663ZM239.39 62.955c-1.66-.95-3.09-2.138-4.04-3.8-.95-1.663-1.42-3.564-1.42-5.939s.47-4.276 1.42-5.938c.95-1.663 2.14-2.85 4.04-3.8 1.66-.95 3.8-1.426 5.94-1.426 2.14 0 4.28.475 5.94 1.425 1.66.95 3.09 2.138 4.04 3.8.95 1.663 1.42 3.564 1.42 5.94 0 2.374-.47 4.275-1.42 5.937-.95 1.663-2.14 2.85-4.04 3.8-1.66.95-3.8 1.426-5.94 1.426-2.14 0-4.28-.475-5.94-1.425Zm10.69-9.739c0-2.138-.47-3.563-1.19-4.513-.71-.95-1.9-1.425-3.56-1.425-3.09 0-4.75 2.138-4.75 6.176s1.66 6.175 4.75 6.175c3.33-.237 4.75-2.375 4.75-6.413ZM279.77 44.428c1.19 1.425 1.9 3.8 1.9 6.888v9.976c0 .95-.24 1.663-.95 2.375-.71.475-1.42.713-2.37.713-.95 0-1.9-.237-2.38-.712-.47-.476-.95-1.188-.95-2.376v-9.739c0-1.425-.24-2.612-.71-3.087-.48-.713-1.43-.95-2.61-.95-1.43 0-2.38.474-3.33 1.425a5.852 5.852 0 0 0-1.19 3.563v9.263c0 .95-.23 1.663-.95 2.375-.47.476-1.42.713-2.37.713-.95 0-1.9-.237-2.38-.713-.71-.475-.95-1.187-.95-2.375V45.853c0-.95.24-1.663.95-2.138.71-.475 1.43-.713 2.38-.713s1.66.238 2.14.713c.47.475.95 1.188.95 2.138v.712c0-.475.71-1.187 1.18-1.425.48-.475.95-.712 1.43-.95 2.85-1.663 7.84-2.613 10.21.238ZM290.22 63.905c-.23 0-.71-.238-.95-.238-.95-.237-1.9-.712-2.61-1.187-.47-.238-.71-.713-.95-.95-.24-.475-.24-.95-.24-1.425 0-.713.24-1.188.48-1.663.47-.475.95-.713 1.42-.713.48 0 .72 0 1.19.238.48.237.71.237 1.19.475.71.475 1.66.712 2.37.95.72.237 1.67.237 2.85.237.95 0 1.9-.237 2.38-.475.47-.237.95-.712.95-1.187 0-.475-.24-.713-.48-.95-.23-.238-.71-.476-1.42-.713-.71-.238-1.66-.475-3.09-.713-2.61-.475-4.51-1.187-5.7-2.137-1.19-.95-1.66-2.376-1.66-4.038 0-2.613 1.66-4.751 4.04-5.701 1.42-.713 2.85-.95 4.27-.95 1.9-.238 3.8 0 5.46.712 1.67.475 3.57 1.663 3.57 3.563 0 .713-.24 1.188-.48 1.663-.47.475-.95.713-1.42.713-1.43 0-2.62-.95-4.04-1.426a7.315 7.315 0 0 0-4.51 0c-.48.238-.95.475-.95.95-.24.476 0 .95.47 1.188.48.475 1.19.475 1.9.713.71.237 1.43.237 2.14.475 1.9.475 3.56.95 4.51 1.425 1.19.475 1.9 1.188 2.38 2.138.47.712.71 1.9.71 3.088 0 2.138-.95 3.8-2.61 4.988-1.19.95-2.85 1.425-4.52 1.663-2.13.237-4.51-.238-6.65-.713Z" fill="#756AF8"/></svg>