<svg width="308" height="87" fill="none" xmlns="http://www.w3.org/2000/svg"><path d="M78 56.99V38.655c0-1.768-.71-3.462-1.95-4.712a6.689 6.689 0 0 0-4.72-1.955H53c0-5.767 2-11.356 5.65-15.819a25.012 25.012 0 0 1 31.02-6.283c5.1 2.69 9.12 7.06 11.37 12.371a24.992 24.992 0 0 1 1.86 12.052 24.975 24.975 0 0 1-4.05 11.5A24.997 24.997 0 0 1 78 56.99Z" fill="url('#paint0_linear')"/><path d="M71.33 31.99H34.67A6.664 6.664 0 0 0 28 38.655v36.667a6.664 6.664 0 0 0 6.67 6.666h36.66c3.69 0 6.67-2.985 6.67-6.666V38.656a6.664 6.664 0 0 0-6.67-6.667Z" fill="url('#paint1_linear')"/><path d="M53 81.99c0-6.631 2.63-12.99 7.32-17.678A25.01 25.01 0 0 1 78 56.989v18.334a6.665 6.665 0 0 1-6.67 6.666H53Z" fill="url('#paint2_linear')"/><path d="M28 56.99V38.655a6.665 6.665 0 0 1 6.67-6.667H53c0 6.63-2.63 12.99-7.32 17.678A25.01 25.01 0 0 1 28 56.989Z" fill="url('#paint3_linear')"/><path d="M134.97 68h8.69l-12.2-33.696h-9.5L109.77 68h8.59l2.02-5.952h12.57L134.97 68Zm-4.13-12.288h-8.3l4.12-12.336 4.18 12.336Zm28.86 2.256-6.19-16.752h-9.17l10.9 25.872-6.15 13.632h8.84l16.8-39.504h-8.88l-6.15 16.752Zm26.2-2.4c0-4.608 2.26-5.952 6.15-5.952h2.25v-8.688c-3.6 0-6.53 1.92-8.4 4.752v-4.464h-8.21V68h8.21V55.568Zm38.53-.96c0-8.496-6.04-13.776-13.92-13.776-7.82 0-13.92 5.28-13.92 13.776 0 8.496 5.96 13.776 13.83 13.776s14.01-5.28 14.01-13.776Zm-19.48 0c0-4.56 2.59-6.672 5.56-6.672 2.88 0 5.57 2.112 5.57 6.672 0 4.512-2.73 6.672-5.66 6.672-2.98 0-5.47-2.16-5.47-6.672Zm37.26 1.056c0 8.688 5.66 12.672 12.58 12.672 6.91 0 12.62-3.984 12.62-12.672v-21.12h-4.37v21.168c0 6.144-3.26 8.784-8.21 8.784-4.94 0-8.25-2.64-8.25-8.784V34.544h-4.37v21.12ZM274.7 68h4.36V34.544h-4.36V68Z" fill="#000"/><defs><linearGradient id="paint0_linear" x1="78.01" y1="7" x2="78.01" y2="56.989" gradientUnits="userSpaceOnUse"><stop stop-color="#2BDBDC"/><stop offset="1" stop-color="#0067F4"/></linearGradient><linearGradient id="paint1_linear" x1="53" y1="31.989" x2="53" y2="81.989" gradientUnits="userSpaceOnUse"><stop stop-color="#2BDBDC"/><stop offset="1" stop-color="#0067F4"/></linearGradient><linearGradient id="paint2_linear" x1="65.5" y1="56.989" x2="65.5" y2="81.989" gradientUnits="userSpaceOnUse"><stop stop-color="#2BDBDC"/><stop offset="1" stop-color="#0067F4"/></linearGradient><linearGradient id="paint3_linear" x1="40.5" y1="31.989" x2="40.5" y2="56.989" gradientUnits="userSpaceOnUse"><stop stop-color="#2BDBDC"/><stop offset="1" stop-color="#0067F4"/></linearGradient></defs></svg>