<svg width="169" height="25" fill="none" xmlns="http://www.w3.org/2000/svg"><path d="M13.968 7.328c-.095-.958-.503-1.703-1.223-2.233-.72-.53-1.697-.796-2.93-.796-.84 0-1.548.119-2.125.357-.578.23-1.02.55-1.33.962-.3.411-.45.878-.45 1.401-.016.435.075.816.273 1.14.205.325.486.606.842.843.356.23.768.432 1.235.606.466.166.965.309 1.495.428l2.183.522a15.39 15.39 0 0 1 2.92.95 8.868 8.868 0 0 1 2.302 1.461 6.071 6.071 0 0 1 1.507 2.043c.364.784.55 1.682.558 2.696-.008 1.488-.388 2.779-1.14 3.872-.743 1.084-1.819 1.928-3.227 2.53-1.4.593-3.09.89-5.068.89-1.962 0-3.67-.3-5.126-.903-1.448-.601-2.58-1.492-3.394-2.672C.463 20.237.04 18.77 0 17.02h4.972c.056.816.29 1.496.7 2.043.42.538.978.946 1.674 1.223.704.27 1.499.404 2.385.404.87 0 1.626-.127 2.267-.38.649-.254 1.15-.606 1.507-1.057.356-.451.534-.97.534-1.556 0-.546-.162-1.006-.487-1.378-.316-.372-.783-.689-1.4-.95-.61-.261-1.357-.499-2.243-.712l-2.646-.665c-2.05-.5-3.667-1.28-4.854-2.34C1.222 10.59.633 9.16.641 7.363c-.008-1.472.384-2.759 1.175-3.86.799-1.1 1.894-1.96 3.287-2.577C6.495.31 8.078 0 9.85 0c1.804 0 3.378.309 4.723.926 1.353.618 2.405 1.477 3.157 2.578.751 1.1 1.139 2.375 1.163 3.824h-4.925ZM24.262 4.572V.332h19.96v4.24h-7.44v20.084h-5.08V4.572h-7.44ZM51.235 24.656H45.73L54.119.333h6.622l8.378 24.323h-5.506L57.525 5.89h-.19l-6.1 18.765Zm-.344-9.561h13.007v4.014H50.89v-4.014ZM74.55 24.656V.333h9.59c1.835 0 3.401.328 4.699.985 1.305.65 2.298 1.572 2.979 2.768.688 1.187 1.032 2.585 1.032 4.192 0 1.615-.348 3.005-1.044 4.169-.697 1.155-1.705 2.042-3.026 2.66-1.314.618-2.904.926-4.771.926h-6.42V11.9h5.59c.98 0 1.795-.134 2.444-.404.649-.269 1.131-.673 1.448-1.211.324-.538.486-1.207.486-2.007 0-.808-.162-1.489-.486-2.043-.317-.554-.803-.974-1.46-1.259-.649-.293-1.468-.44-2.456-.44h-3.466v20.12h-5.138Zm13.126-11.07 6.04 11.07h-5.672l-5.91-11.07h5.542ZM98.062 4.572V.332h19.961v4.24h-7.441v20.084h-5.079V4.572h-7.44ZM138.828.333h5.139v15.795c0 1.774-.423 3.326-1.27 4.656-.839 1.33-2.013 2.367-3.525 3.111-1.511.737-3.271 1.105-5.28 1.105-2.018 0-3.782-.368-5.293-1.105-1.511-.744-2.686-1.781-3.525-3.111-.838-1.33-1.258-2.882-1.258-4.656V.333h5.139v15.356c0 .926.202 1.75.605 2.47a4.41 4.41 0 0 0 1.733 1.699c.743.411 1.61.617 2.599.617.996 0 1.863-.206 2.598-.617a4.328 4.328 0 0 0 1.721-1.699c.412-.72.617-1.544.617-2.47V.333ZM150.701 24.656V.333h9.588c1.844 0 3.414.352 4.712 1.057 1.297.696 2.286 1.666 2.967 2.91.688 1.234 1.032 2.66 1.032 4.275 0 1.615-.348 3.04-1.044 4.275-.697 1.236-1.705 2.197-3.026 2.886-1.314.69-2.904 1.034-4.771 1.034h-6.112v-4.121h5.281c.989 0 1.804-.17 2.445-.511.649-.349 1.131-.828 1.448-1.437.324-.618.486-1.326.486-2.126 0-.808-.162-1.512-.486-2.114-.317-.61-.799-1.081-1.448-1.413-.649-.341-1.472-.511-2.468-.511h-3.466v20.119h-5.138Z" fill="#137ED9"/></svg>