<svg fill="none" height="47" width="200" xmlns="http://www.w3.org/2000/svg"><g fill="#070707"><path d="M75.53 31.86h-3.238V14.133h6.65c.803-.012 1.6.153 2.332.482a5.61 5.61 0 0 1 1.784 1.282c.493.526.882 1.14 1.15 1.81a5.58 5.58 0 0 1 .204 3.613 5.409 5.409 0 0 1-.613 1.398 5.838 5.838 0 0 1-2.362 2.139 1036.594 1036.594 0 0 0 5.18 7.003h-2.544a1.984 1.984 0 0 1-.613-.113 2.998 2.998 0 0 1-.722-.351 5.379 5.379 0 0 1-.78-.613 6.048 6.048 0 0 1-.784-.942l-3.226-4.355H75.53zm3.512-9.637c.31-.002.615-.072.894-.204a2.34 2.34 0 0 0 .743-.534c.213-.225.382-.486.5-.772.123-.287.186-.596.186-.907 0-.318-.062-.632-.185-.924a2.596 2.596 0 0 0-.5-.772 2.363 2.363 0 0 0-.744-.532 2.083 2.083 0 0 0-.894-.204H75.53v4.837zM95.266 14.133h2.936l7.753 17.726h-2.019a2.334 2.334 0 0 1-1.262-.357 2.223 2.223 0 0 1-.855-.991l-1.054-2.4h-8.063l-1.039 2.4c-.085.2-.203.384-.348.545-.148.165-.32.308-.507.425-.19.122-.397.215-.614.278-.214.067-.438.1-.663.1h-2.019zm-1.127 10.724h5.19l-2.316-5.368a3.046 3.046 0 0 1-.217-.681 5.238 5.238 0 0 1-.07-.47 4.07 4.07 0 0 1-.073.476c-.046.231-.115.457-.205.675zM115.276 31.86h-3.257v-7.51a1.432 1.432 0 0 0-.172-.705 7.403 7.403 0 0 0-.458-.705l-6.508-8.807h2.487c.499-.01.993.1 1.441.321.418.216.774.535 1.034.928l3.5 4.738c.103.138.179.293.225.458.041.155.063.256.071.296.016-.098.039-.195.07-.29a1.34 1.34 0 0 1 .241-.464l3.488-4.726a2.66 2.66 0 0 1 1.034-.946 3.155 3.155 0 0 1 1.441-.315h2.516l-6.525 8.82a7.02 7.02 0 0 0-.258.365 3.515 3.515 0 0 0-.204.327 1.438 1.438 0 0 0-.172.705zM140.335 23.35v6.81c-.401.37-.854.68-1.343.922a8.145 8.145 0 0 1-1.569.581 10.96 10.96 0 0 1-1.732.296c-.596.053-1.203.08-1.815.08a8.893 8.893 0 0 1-3.55-.712 9.254 9.254 0 0 1-2.9-1.937 9.057 9.057 0 0 1-1.954-2.868 9.042 9.042 0 0 1 0-7.046 9.096 9.096 0 0 1 1.962-2.877 9.297 9.297 0 0 1 2.9-1.936 9.284 9.284 0 0 1 7.029-.037 9.178 9.178 0 0 1 2.857 1.87l-.123.112a1.73 1.73 0 0 1-.504.35c-.192.08-.398.12-.605.116a1.38 1.38 0 0 1-.798-.246 7.86 7.86 0 0 0-2.003-.98 7.417 7.417 0 0 0-2.303-.351 7.545 7.545 0 0 0-2.012.265 7.318 7.318 0 0 0-1.803.758 7.848 7.848 0 0 0-1.534 1.172c-.46.453-.857.963-1.183 1.519a7.735 7.735 0 0 0-.765 1.795 7.175 7.175 0 0 0-.274 1.992 7.078 7.078 0 0 0 .28 1.993 7.545 7.545 0 0 0 2.005 3.313c.47.454.994.848 1.561 1.174a7.71 7.71 0 0 0 3.861 1.023 9.195 9.195 0 0 0 2.502-.338 8.817 8.817 0 0 0 2.291-1.02v-4.251h-1.582a1.473 1.473 0 0 1-1.089-.45 1.497 1.497 0 0 1-.404-1.044v-.05zM147.095 31.86h-1.567V14.133h6.291a4.988 4.988 0 0 1 1.969.388 5.093 5.093 0 0 1 1.596 1.065c.459.452.825.988 1.079 1.577.265.61.399 1.266.395 1.93a5.34 5.34 0 0 1-1.178 3.304 4.654 4.654 0 0 1-1.329 1.12 4.351 4.351 0 0 1-1.692.537l5.94 7.806h-.739c-.859 0-1.497-.315-1.904-.938l-5.228-6.868h-3.633zm0-16.182v6.829h4.724a3.478 3.478 0 0 0 2.451-.997c.316-.313.568-.682.745-1.087.185-.42.279-.873.276-1.33a3.206 3.206 0 0 0-.276-1.323 3.508 3.508 0 0 0-1.849-1.82 3.365 3.365 0 0 0-1.347-.272zM164.15 31.86h-1.432V14.133h1.432zM170.238 31.86V14.132h6.522a8.722 8.722 0 0 1 4.47 1.211 9.042 9.042 0 0 1 3.189 3.186 8.823 8.823 0 0 1 0 8.944 9.131 9.131 0 0 1-1.392 1.794 8.842 8.842 0 0 1-6.267 2.591zm6.522-1.547a7.137 7.137 0 0 0 2.862-.575 7.497 7.497 0 0 0 2.326-1.565 7.316 7.316 0 0 0 1.572-2.325 7.337 7.337 0 0 0 0-5.691 7.394 7.394 0 0 0-1.572-2.332 7.473 7.473 0 0 0-2.326-1.571 7.137 7.137 0 0 0-2.862-.577h-4.975v14.635zM196.863 16.474a8.475 8.475 0 0 1-.503-.37c-.3-.24-.65-.408-1.025-.493a3.719 3.719 0 0 0-.821-.074 3.916 3.916 0 0 0-2.502.89 3.107 3.107 0 0 0-.775.95 2.436 2.436 0 0 0-.286 1.149c-.011.387.049.772.182 1.136.131.31.344.581.615.784.345.261.725.473 1.13.63.467.193 1.045.41 1.732.649.366.136.707.26 1.026.371.314.115.616.233.894.351.27.114.533.24.789.382.244.137.479.292.701.463.559.415.987.982 1.23 1.632.242.679.362 1.394.353 2.114a4.64 4.64 0 0 1-.459 2.087 4.771 4.771 0 0 1-1.241 1.575 5.536 5.536 0 0 1-1.832.994 7.08 7.08 0 0 1-2.25.344c-1.548 0-2.851-.457-3.912-1.37a6.402 6.402 0 0 1-1.228-1.495l.185-.111c.236-.145.506-.226.783-.235.193 0 .385.026.571.08.183.055.351.155.486.291.284.27.594.512.924.723.246.152.508.277.782.37.23.076.467.123.708.142.226.016.46.028.701.036a5.268 5.268 0 0 0 1.495-.167 4.005 4.005 0 0 0 1.354-.612c.403-.284.739-.653.982-1.081.264-.48.396-1.02.381-1.567a3.762 3.762 0 0 0-.298-1.632 2.655 2.655 0 0 0-.821-.994 4.843 4.843 0 0 0-1.249-.636c-.48-.17-.998-.362-1.552-.576-.704-.28-1.346-.54-1.925-.777a6.144 6.144 0 0 1-1.482-.847 3.346 3.346 0 0 1-.958-1.204 4.33 4.33 0 0 1-.341-1.852c-.008-.654.15-1.3.459-1.877a4.882 4.882 0 0 1 1.186-1.44 5.494 5.494 0 0 1 1.641-.927 5.445 5.445 0 0 1 1.831-.326c.483-.006.963.063 1.424.204a5.683 5.683 0 0 1 2.123 1.228c.285.264.548.524.788.78l-.386.27a1.334 1.334 0 0 1-.34.18c-.152.049-.31.072-.468.068a1.441 1.441 0 0 1-.802-.21zM67.034 22.38v7.43c-.431.432-.92.802-1.455 1.1-.52.29-1.071.52-1.643.689a9.82 9.82 0 0 1-1.786.345c-.621.063-1.246.095-1.871.094a8.916 8.916 0 0 1-3.542-.703 9.376 9.376 0 0 1-2.901-1.934 9.095 9.095 0 0 1-1.958-2.872 8.75 8.75 0 0 1-.715-3.528 8.891 8.891 0 0 1 1.233-4.567c.4-.67.883-1.289 1.438-1.84a9.118 9.118 0 0 1 4.027-2.32 9.017 9.017 0 0 1 2.42-.32 8.542 8.542 0 0 1 1.951.222 9.104 9.104 0 0 1 1.85.644c.594.287 1.16.63 1.69 1.022.542.4 1.046.847 1.506 1.337l-.748.755a2.179 2.179 0 0 1-1.676.705 2.182 2.182 0 0 1-1.27-.395 6.028 6.028 0 0 0-1.536-.756 5.636 5.636 0 0 0-1.759-.272 5.702 5.702 0 0 0-2.26.458 5.908 5.908 0 0 0-3.141 3.072 5.52 5.52 0 0 0-.467 2.249c-.006.787.16 1.566.485 2.283a6.016 6.016 0 0 0 2.229 2.566 6.06 6.06 0 0 0 3.269.956 9.132 9.132 0 0 0 2.276-.333 4.282 4.282 0 0 0 1.07-.458v-2.492l-1.027-.018a2.135 2.135 0 0 1-.893-.192 1.364 1.364 0 0 1-.629-.626 2.808 2.808 0 0 1-.236-1.304v-.991zM43.874 25.893c1.457-11.387-6.593-21.799-17.98-23.255C14.505 1.18 4.093 9.23 2.637 20.618c-1.457 11.387 6.593 21.8 17.98 23.256 11.387 1.457 21.8-6.593 23.256-17.98z"/></g><path d="M24.026 22.929v1.992h4.364v3.333h-4.333v-.012c-.116 0-.236.012-.352.012a4.798 4.798 0 0 1-1.875-.376 4.864 4.864 0 0 1-2.127-1.744 4.813 4.813 0 0 1 7.041-6.413h8.51a12.138 12.138 0 1 0-11.551 15.856h12.054V22.924zm4.364 10.636H24.37c-.151 0-.307.017-.472.02h-.35a10.144 10.144 0 0 1-8.791-14.945 10.142 10.142 0 0 1 17.314-.909h-4.675a6.808 6.808 0 1 0-3.695 12.528h4.688zm5.394.02h-3.4l.02-.013h-.02v-3.309h3.4zm0-5.326h-3.4v-3.333h3.4z" fill="#262626"/><path d="M23.438 22.3v1.993h4.365v3.332h-4.337v-.012c-.116 0-.236.012-.35.012a4.791 4.791 0 0 1-3.992-2.127 4.837 4.837 0 0 1-.445-4.564 4.815 4.815 0 0 1 6.309-2.572c.426.179.824.418 1.182.71h8.51c-.112-.341-.237-.677-.372-1.003a12.136 12.136 0 0 0-23.297 4.17 12.138 12.138 0 0 0 12.1 12.709h12.055v-12.66zm4.365 10.636h-4.018c-.154 0-.307.017-.473.02h-.343a10.142 10.142 0 1 1 8.51-15.854h-4.67a6.807 6.807 0 1 0-3.698 12.514H27.8zm5.394.02h-3.399l.017-.012h-.017v-3.328h3.4zm0-5.326h-3.399v-3.333h3.4z" fill="#fff"/><path d="M27.803 29.618h1.995v.948h-1.994zM26.189 24.293h1.614v.947h1.993v-.947h1.463v-.003h-5.07z" fill="#999"/></svg>