<svg fill="none" height="28" width="127" xmlns="http://www.w3.org/2000/svg"><clipPath id="a"><path d="M0 .47h127v27H0z"/></clipPath><g clip-path="url('#a')"><g fill="#fff"><path d="M40.791 13.843v4.835a4.27 4.27 0 0 1-.941.716 5.212 5.212 0 0 1-1.065.448c-.377.111-.764.186-1.156.225a11.85 11.85 0 0 1-1.212.061 5.75 5.75 0 0 1-2.293-.457 6.071 6.071 0 0 1-1.878-1.259 5.92 5.92 0 0 1-1.268-1.869 5.72 5.72 0 0 1-.463-2.296 5.807 5.807 0 0 1 1.73-4.168 5.897 5.897 0 0 1 4.174-1.72c.425 0 .85.049 1.264.146.413.096.814.236 1.197.419.385.187.751.41 1.095.665.35.26.677.551.975.87l-.485.49a1.412 1.412 0 0 1-1.085.46 1.408 1.408 0 0 1-.822-.257 3.894 3.894 0 0 0-.995-.492 3.631 3.631 0 0 0-1.139-.177 3.677 3.677 0 0 0-1.463.298 3.833 3.833 0 0 0-2.034 2c-.202.46-.305.959-.302 1.462-.004.513.103 1.02.314 1.486a3.91 3.91 0 0 0 3.56 2.292 5.872 5.872 0 0 0 1.474-.217c.243-.067.476-.167.693-.297v-1.622L38 15.873c-.2 0-.398-.042-.58-.125a.886.886 0 0 1-.406-.407 1.836 1.836 0 0 1-.153-.849v-.645zM46.371 20.02h-2.11V8.48h4.333c.523-.008 1.042.1 1.52.314.438.2.833.483 1.162.834.321.343.575.743.749 1.179a3.63 3.63 0 0 1-.266 3.262 3.802 3.802 0 0 1-1.54 1.392 676.613 676.613 0 0 0 3.376 4.56h-1.658a1.293 1.293 0 0 1-.399-.074 1.955 1.955 0 0 1-.47-.229 3.508 3.508 0 0 1-.509-.399 3.944 3.944 0 0 1-.51-.613l-2.103-2.835h-1.575zm2.288-6.273a1.525 1.525 0 0 0 1.067-.48c.139-.147.249-.317.326-.503.08-.187.121-.388.121-.59 0-.207-.04-.412-.12-.602a1.689 1.689 0 0 0-.327-.503 1.542 1.542 0 0 0-.484-.346 1.36 1.36 0 0 0-.583-.133h-2.288v3.149zM59.16 8.48h1.91l5.041 11.54h-1.313a1.515 1.515 0 0 1-.82-.233 1.443 1.443 0 0 1-.557-.645l-.685-1.562h-5.242l-.676 1.562c-.055.13-.132.25-.226.355-.097.107-.208.2-.33.277-.124.079-.258.14-.4.18-.139.044-.284.066-.43.066h-1.313zm-.732 6.981h3.374l-1.506-3.495a1.984 1.984 0 0 1-.14-.443 3.425 3.425 0 0 1-.046-.305c-.01.104-.025.207-.048.31-.03.15-.074.297-.133.438zM72.169 20.02h-2.12v-4.888a.931.931 0 0 0-.112-.46 4.988 4.988 0 0 0-.298-.458L65.402 8.48h1.619c.325-.007.646.065.938.21.272.14.504.348.673.603l2.278 3.085a.9.9 0 0 1 .147.298c.026.101.04.166.046.193a1.2 1.2 0 0 1 .045-.189.875.875 0 0 1 .157-.302l2.271-3.077c.165-.262.398-.474.673-.616a2.05 2.05 0 0 1 .938-.205h1.638l-4.248 5.742a4.326 4.326 0 0 0-.167.238c-.048.068-.093.14-.133.213a.946.946 0 0 0-.112.459zM88.433 14.48v4.445a3.7 3.7 0 0 1-.868.601 5.252 5.252 0 0 1-1.015.38 7.06 7.06 0 0 1-1.12.192c-.386.035-.778.052-1.175.052a5.709 5.709 0 0 1-2.296-.464 5.918 5.918 0 0 1-3.14-3.135 5.943 5.943 0 0 1 0-4.6 5.923 5.923 0 0 1 1.27-1.876 6.007 6.007 0 0 1 1.876-1.264 5.957 5.957 0 0 1 4.546-.024c.687.287 1.314.701 1.848 1.22l-.08.073a1.103 1.103 0 0 1-.326.229.965.965 0 0 1-.39.076.888.888 0 0 1-.517-.161c-.4-.274-.835-.49-1.296-.64a4.76 4.76 0 0 0-1.49-.229 4.836 4.836 0 0 0-2.467.668c-.361.213-.694.47-.992.765a4.788 4.788 0 0 0-.765.99c-.214.37-.38.763-.495 1.173-.12.423-.179.86-.177 1.3-.002.44.059.877.18 1.3.239.821.686 1.566 1.298 2.162.303.296.643.553 1.01.766a4.955 4.955 0 0 0 2.496.668 5.902 5.902 0 0 0 1.62-.22 5.67 5.67 0 0 0 1.481-.666v-2.775h-1.023a.954.954 0 0 1-.705-.294.964.964 0 0 1-.193-.31 1.03 1.03 0 0 1-.068-.37v-.033zM92.912 20.02h-1.007V8.48h4.043c.435-.003.865.083 1.265.253a3.238 3.238 0 0 1 1.719 1.72c.17.396.257.824.254 1.255a3.497 3.497 0 0 1-.757 2.151 3.007 3.007 0 0 1-.854.73c-.334.19-.704.31-1.087.35l3.817 5.08h-.475c-.552 0-.962-.204-1.224-.61l-3.359-4.47h-2.335zm0-10.534v4.445h3.036c.298.002.592-.057.866-.173a2.237 2.237 0 0 0 1.365-2.05 2.106 2.106 0 0 0-.177-.86 2.27 2.27 0 0 0-1.188-1.185 2.142 2.142 0 0 0-.866-.177zM103.993 20.02h-1.007V8.48h1.007zM107.883 20.02V8.48h4.245a5.676 5.676 0 0 1 2.909.789 5.877 5.877 0 0 1 2.075 2.074 5.742 5.742 0 0 1-.906 6.99 5.746 5.746 0 0 1-4.078 1.687zm4.245-1.007a4.636 4.636 0 0 0 1.862-.374 4.875 4.875 0 0 0 1.514-1.019 4.766 4.766 0 0 0 1.023-1.514 4.79 4.79 0 0 0 0-3.704 4.813 4.813 0 0 0-2.537-2.541 4.637 4.637 0 0 0-1.862-.375h-3.238v9.527zM125.222 9.993a5.841 5.841 0 0 1-.325-.24 1.649 1.649 0 0 0-.666-.323 2.391 2.391 0 0 0-.532-.047 2.56 2.56 0 0 0-1.623.58 2.011 2.011 0 0 0-.502.62c-.123.23-.186.487-.185.748-.008.253.031.504.117.741.085.203.223.379.399.511.224.17.471.309.733.411.303.126.678.267 1.124.423.237.089.458.17.665.242.203.075.399.152.58.23.174.073.345.156.511.248.158.09.31.19.455.302.363.27.64.64.798 1.064.157.442.234.909.229 1.378.007.47-.095.936-.298 1.36a3.114 3.114 0 0 1-.805 1.028c-.351.29-.755.509-1.188.648-.471.153-.964.23-1.459.225-1.004 0-1.85-.298-2.537-.894a4.141 4.141 0 0 1-.797-.975l.12-.072a1.03 1.03 0 0 1 .508-.153c.125 0 .25.017.37.052a.74.74 0 0 1 .315.19c.185.176.385.333.6.47.159.1.329.182.507.243.149.049.303.08.459.092.147.01.299.018.455.024.327.01.653-.027.969-.11.315-.077.613-.212.878-.399.262-.185.48-.426.638-.705.171-.312.256-.665.246-1.021a2.473 2.473 0 0 0-.193-1.064 1.731 1.731 0 0 0-.532-.648 3.154 3.154 0 0 0-.81-.415c-.312-.111-.647-.236-1.007-.375-.457-.183-.873-.353-1.248-.507a3.968 3.968 0 0 1-.962-.552 2.179 2.179 0 0 1-.621-.785 2.827 2.827 0 0 1-.221-1.208 2.523 2.523 0 0 1 .298-1.224c.193-.36.455-.678.769-.939a3.551 3.551 0 0 1 1.064-.604 3.52 3.52 0 0 1 1.188-.213c.313-.004.624.041.923.133.264.083.518.197.756.338.222.132.431.288.621.463.184.172.355.342.511.508l-.25.177a.875.875 0 0 1-.221.117.922.922 0 0 1-.303.044.934.934 0 0 1-.521-.137zM24.691 15.67c.82-6.408-3.71-12.268-10.119-13.087-6.408-.82-12.268 3.71-13.088 10.119-.82 6.408 3.71 12.268 10.12 13.088 6.408.82 12.268-3.711 13.087-10.12z"/></g><path d="M13.621 14.25v1.121h2.456v1.876h-2.439v-.007c-.065 0-.133.007-.198.007-.362 0-.72-.071-1.055-.211a2.708 2.708 0 1 1 2.766-4.59h4.789a6.83 6.83 0 1 0-6.5 8.923h6.783v-7.122zm2.456 5.986h-2.262c-.085 0-.173.01-.266.01h-.197a5.708 5.708 0 1 1 4.797-8.921h-2.63a3.831 3.831 0 1 0-2.08 7.05h2.638zm3.035.01H17.2l.011-.006h-.01v-1.862h1.912zm0-2.996H17.2v-1.876h1.913z" fill="#262626"/><path d="M13.29 13.896v1.122h2.457v1.875h-2.441v-.006c-.065 0-.133.006-.197.006a2.697 2.697 0 0 1-2.247-1.197 2.72 2.72 0 0 1 .733-3.766 2.71 2.71 0 0 1 3.233.15h4.789a6.83 6.83 0 1 0-6.51 8.935h6.784V13.89zm2.457 5.986h-2.261c-.087 0-.173.01-.267.011h-.192a5.707 5.707 0 1 1 4.788-8.922h-2.628a3.832 3.832 0 1 0-2.08 7.042h2.637zm3.036.011H16.87l.009-.007h-.01v-1.872h1.913zm0-2.997H16.87V15.02h1.912z" fill="#252f3f"/><path d="M15.747 18.015h1.123v.533h-1.123zM14.838 15.017h.909v.534h1.121v-.534h.824-2.854z" fill="#252f3f"/></g></svg>