<svg fill="none" height="16" width="123" xmlns="http://www.w3.org/2000/svg"><linearGradient id="a" gradientUnits="userSpaceOnUse" x1="16.735" x2="31.471" y1="10.692" y2="10.692"><stop offset="0" stop-color="#003fff"/><stop offset=".688" stop-color="#690aff"/></linearGradient><linearGradient id="b" gradientUnits="userSpaceOnUse" x1="2" x2="16.747" y1="4.789" y2="4.789"><stop offset=".286" stop-color="#e843a1"/><stop offset="1" stop-color="#003fff"/></linearGradient><linearGradient id="c" gradientUnits="userSpaceOnUse" x1="2" x2="31.482" y1="7.736" y2="7.736"><stop offset=".16" stop-color="#e843a1"/><stop offset=".84" stop-color="#690aff"/></linearGradient><g stroke-miterlimit="10" stroke-width="3"><path d="M16.735 7.736c2.174 2.947 4.384 5.894 8.731 5.894 3.315 0 6.005-2.652 6.005-5.894" stroke="url('#a')"/><path d="M2 7.736c0-3.242 2.69-5.894 6.005-5.894 4.346 0 6.557 2.947 8.73 5.894" stroke="url('#b')"/><path d="M31.47 7.736c0-3.242-2.689-5.894-6.004-5.894-4.347 0-6.557 2.947-8.73 5.894-2.174 2.947-4.384 5.894-8.731 5.894C4.689 13.63 2 10.978 2 7.736" stroke="url('#c')"/></g><path d="M37 15.438V0h2.023v13.425h6.324v2.013zM47.378 3.223V1.074H49.4v2.148zm0 12.216V4.296H49.4v11.142zM74.717 3.223V1.074h2.023v2.148zm0 12.216V4.296h2.023v11.142zM60.759 8.357a7.811 7.811 0 0 0-.316-1.376c-.158-.47-.411-.906-.696-1.31a3.236 3.236 0 0 0-1.201-.972c-.506-.235-1.107-.37-1.834-.37-.948 0-1.739.202-2.403.638-.316.202-.569.436-.822.705V4.329h-2.023v11.143h2.023V9.934h.032c0-.67.063-1.208.221-1.678.127-.47.316-.839.57-1.107.252-.269.537-.47.853-.604a2.641 2.641 0 0 1 1.043-.202c.57 0 1.012.134 1.36.37.348.234.6.57.822.94.19.402.316.805.379 1.274.064.47.095.907.095 1.343v5.202h2.055v-5.94c-.063-.336-.094-.739-.158-1.175zm51.098 0c-.063-.436-.158-.906-.316-1.376s-.411-.906-.696-1.31a3.232 3.232 0 0 0-1.201-.972c-.506-.235-1.106-.37-1.833-.37-.949 0-1.739.202-2.404.638a4.266 4.266 0 0 0-.822.705V4.329h-2.023v11.143h2.023V9.934h.032c0-.67.063-1.208.221-1.678.127-.47.316-.839.569-1.107.254-.269.538-.47.854-.604a2.642 2.642 0 0 1 1.043-.202c.57 0 1.012.134 1.36.37.348.234.601.57.791.94.189.402.316.805.379 1.274.063.47.095.907.095 1.343v5.202h2.055v-5.94c-.032-.336-.063-.739-.127-1.175zm-39.993 2.08h1.012c.063-1.275-.064-2.349-.443-3.288-.38-.906-.949-1.645-1.676-2.115-.758-.503-1.675-.738-2.718-.738-1.012 0-1.93.235-2.688.705a4.826 4.826 0 0 0-1.802 1.98c-.443.839-.633 1.846-.633 2.987 0 1.074.222 2.047.664 2.886.443.84 1.044 1.477 1.834 1.913.79.47 1.707.705 2.75.705a5.37 5.37 0 0 0 2.783-.772c.822-.503 1.455-1.242 1.865-2.181l-1.991-.638c-.253.537-.633.973-1.075 1.242-.475.302-1.012.436-1.644.436-.98 0-1.708-.302-2.213-.94-.412-.537-.665-1.242-.728-2.114H71.864zm-6.07-3.355c.506-.638 1.264-.974 2.276-.974.917 0 1.613.302 2.055.873.316.403.538 1.007.632 1.745h-5.66a4.03 4.03 0 0 1 .697-1.644zm17.847 8.357c-1.076 0-1.993-.235-2.751-.739-.76-.47-1.329-1.141-1.74-1.98-.41-.84-.6-1.812-.6-2.853 0-1.074.221-2.047.632-2.886.411-.84.98-1.51 1.74-1.98.758-.47 1.675-.705 2.719-.705 1.137 0 2.117.302 2.94.873.821.57 1.36 1.376 1.612 2.349l-2.023.57a2.694 2.694 0 0 0-.98-1.376c-.443-.335-.98-.503-1.581-.503-.664 0-1.202.168-1.644.47-.443.302-.76.738-.949 1.309-.221.537-.316 1.174-.316 1.88 0 1.073.253 1.98.759 2.65.474.672 1.201 1.007 2.182 1.007.663 0 1.17-.167 1.58-.47.411-.301.727-.738.917-1.308l2.055.503c-.347 1.04-.917 1.812-1.707 2.383-.759.537-1.74.805-2.845.805zm11.737 0c-1.044 0-1.96-.235-2.72-.705s-1.359-1.141-1.77-1.98c-.411-.84-.633-1.813-.633-2.887 0-1.107.222-2.08.633-2.92.443-.839 1.012-1.476 1.802-1.946.759-.47 1.676-.705 2.688-.705 1.043 0 1.96.235 2.718.705.76.47 1.36 1.14 1.803 1.98.411.839.632 1.812.632 2.886 0 1.108-.221 2.081-.632 2.92s-1.012 1.477-1.803 1.98c-.79.437-1.675.671-2.718.671zm0-1.914c1.012 0 1.739-.335 2.244-1.006.506-.672.759-1.544.759-2.652 0-1.107-.253-1.98-.759-2.651-.505-.671-1.232-1.007-2.244-1.007-.696 0-1.234.168-1.676.47-.443.302-.759.738-.98 1.275-.221.537-.317 1.175-.317 1.88 0 1.107.253 1.98.76 2.651.474.705 1.232 1.04 2.213 1.04zm23.158 1.913c-1.265 0-2.308-.268-3.13-.839-.79-.57-1.297-1.376-1.486-2.382l2.086-.336c.127.537.443.973.886 1.309.474.302 1.043.47 1.739.47.632 0 1.138-.135 1.486-.403.348-.269.537-.604.537-1.074 0-.269-.063-.47-.189-.638-.127-.168-.38-.335-.791-.47-.411-.134-1.011-.335-1.834-.57-.885-.235-1.612-.504-2.15-.772-.537-.269-.916-.604-1.138-.94a2.507 2.507 0 0 1-.348-1.309c0-.637.158-1.208.506-1.678s.822-.839 1.423-1.107c.601-.269 1.328-.403 2.15-.403.79 0 1.517.134 2.15.37.632.268 1.138.603 1.517 1.073.38.47.633 1.007.696 1.645l-2.086.369a1.805 1.805 0 0 0-.696-1.208c-.411-.302-.917-.47-1.55-.47-.6-.034-1.106.067-1.485.302-.38.235-.57.537-.57.94 0 .234.063.436.222.604.158.167.443.335.853.47a24.93 24.93 0 0 0 1.866.536c.885.235 1.581.47 2.087.772.505.269.885.604 1.106.974.222.369.348.839.348 1.376 0 1.04-.379 1.88-1.138 2.45-.696.637-1.739.94-3.067.94z" fill="#fff"/></svg>