<svg width="84" height="21" viewBox="0 0 84 21" fill="none" xmlns="http://www.w3.org/2000/svg">
<path d="M0.265625 20V0.363636H8.77983C10.2756 0.363636 11.5316 0.564985 12.5479 0.967685C13.5707 1.37038 14.3409 1.93927 14.8587 2.67436C15.3828 3.40945 15.6449 4.27557 15.6449 5.27273C15.6449 5.99503 15.4851 6.65341 15.1655 7.24787C14.8523 7.84233 14.4112 8.34091 13.8423 8.74361C13.2734 9.13991 12.6087 9.41477 11.848 9.56818V9.75994C12.6918 9.7919 13.4588 10.006 14.1491 10.4023C14.8395 10.7923 15.3892 11.3324 15.7983 12.0227C16.2074 12.7067 16.4119 13.5121 16.4119 14.4389C16.4119 15.5128 16.1307 16.4684 15.5682 17.3058C15.0121 18.1431 14.2195 18.8015 13.1903 19.2809C12.1612 19.7603 10.9339 20 9.50852 20H0.265625ZM5.59659 15.7429H8.08949C8.98438 15.7429 9.65554 15.5767 10.103 15.2443C10.5504 14.9055 10.7741 14.407 10.7741 13.7486C10.7741 13.2884 10.6687 12.8984 10.4577 12.5788C10.2468 12.2592 9.94638 12.0163 9.55646 11.8501C9.17294 11.6839 8.70952 11.6009 8.16619 11.6009H5.59659V15.7429ZM5.59659 8.30256H7.78267C8.24929 8.30256 8.66158 8.22905 9.01953 8.08203C9.37749 7.93501 9.65554 7.72408 9.85369 7.44922C10.0582 7.16797 10.1605 6.82599 10.1605 6.42329C10.1605 5.81605 9.94318 5.35263 9.50852 5.03303C9.07386 4.70703 8.52415 4.54403 7.85938 4.54403H5.59659V8.30256ZM40.9685 10.1818C40.9685 12.3679 40.5434 14.212 39.6933 15.7141C38.8432 17.2099 37.6958 18.3445 36.2512 19.1179C34.8066 19.8849 33.1958 20.2685 31.4188 20.2685C29.629 20.2685 28.0118 19.8817 26.5672 19.1083C25.129 18.3285 23.9848 17.1907 23.1347 15.695C22.291 14.1928 21.8691 12.3551 21.8691 10.1818C21.8691 7.99574 22.291 6.15483 23.1347 4.65909C23.9848 3.15696 25.129 2.02237 26.5672 1.25533C28.0118 0.481888 29.629 0.0951697 31.4188 0.0951697C33.1958 0.0951697 34.8066 0.481888 36.2512 1.25533C37.6958 2.02237 38.8432 3.15696 39.6933 4.65909C40.5434 6.15483 40.9685 7.99574 40.9685 10.1818ZM35.4841 10.1818C35.4841 9.00568 35.3275 8.01491 35.0143 7.20952C34.7075 6.39773 34.2505 5.78409 33.6432 5.36861C33.0424 4.94673 32.3009 4.73579 31.4188 4.73579C30.5367 4.73579 29.792 4.94673 29.1848 5.36861C28.5839 5.78409 28.1269 6.39773 27.8137 7.20952C27.5069 8.01491 27.3535 9.00568 27.3535 10.1818C27.3535 11.358 27.5069 12.3519 27.8137 13.1637C28.1269 13.9691 28.5839 14.5827 29.1848 15.0046C29.792 15.4201 30.5367 15.6278 31.4188 15.6278C32.3009 15.6278 33.0424 15.4201 33.6432 15.0046C34.2505 14.5827 34.7075 13.9691 35.0143 13.1637C35.3275 12.3519 35.4841 11.358 35.4841 10.1818ZM47.08 20V0.363636H52.411V15.7045H60.3499V20H47.08ZM73.7052 20H66.1498V0.363636H73.6285C75.6484 0.363636 77.3934 0.756747 78.8636 1.54297C80.3402 2.3228 81.478 3.4478 82.277 4.91797C83.0824 6.38175 83.4851 8.13636 83.4851 10.1818C83.4851 12.2273 83.0856 13.9851 82.2866 15.4553C81.4876 16.919 80.3562 18.044 78.8924 18.8303C77.4286 19.6101 75.6996 20 73.7052 20ZM71.4808 15.4744H73.5135C74.4851 15.4744 75.3128 15.3178 75.9968 15.0046C76.6871 14.6914 77.2113 14.1513 77.5692 13.3842C77.9336 12.6172 78.1158 11.5497 78.1158 10.1818C78.1158 8.81392 77.9304 7.74645 77.5596 6.9794C77.1953 6.21236 76.6584 5.67223 75.9488 5.35902C75.2457 5.04581 74.3828 4.8892 73.3601 4.8892H71.4808V15.4744Z" fill="black"></path>
</svg>
