<svg width="84" height="21" fill="none" xmlns="http://www.w3.org/2000/svg"><path d="M.266 20V.364H8.78c1.496 0 2.752.201 3.768.604 1.023.402 1.793.971 2.31 1.706.525.735.787 1.602.787 2.599 0 .722-.16 1.38-.48 1.975a4.232 4.232 0 0 1-1.323 1.496c-.569.396-1.233.67-1.994.824v.192c.844.032 1.61.246 2.301.642.69.39 1.24.93 1.65 1.62.408.685.613 1.49.613 2.417 0 1.074-.281 2.03-.844 2.867-.556.837-1.348 1.495-2.378 1.975-1.029.48-2.256.719-3.681.719H.266Zm5.33-4.257H8.09c.895 0 1.567-.166 2.014-.499.447-.338.671-.837.671-1.495 0-.46-.105-.85-.316-1.17a1.973 1.973 0 0 0-.902-.729c-.383-.166-.846-.25-1.39-.25h-2.57v4.143Zm0-7.44h2.187c.466 0 .879-.074 1.237-.221.357-.147.636-.358.834-.633.204-.281.307-.623.307-1.026 0-.607-.218-1.07-.652-1.39-.435-.326-.985-.489-1.65-.489H5.597v3.759Zm35.373 1.879c0 2.186-.426 4.03-1.276 5.532-.85 1.496-1.997 2.63-3.442 3.404-1.444.767-3.055 1.15-4.832 1.15-1.79 0-3.407-.386-4.852-1.16-1.438-.78-2.582-1.917-3.432-3.413-.844-1.502-1.266-3.34-1.266-5.513 0-2.186.422-4.027 1.266-5.523.85-1.502 1.994-2.637 3.432-3.404C28.012.482 29.63.095 31.42.095c1.777 0 3.388.387 4.832 1.16 1.445.767 2.592 1.902 3.442 3.404.85 1.496 1.276 3.337 1.276 5.523Zm-5.485 0c0-1.176-.157-2.167-.47-2.972-.306-.812-.764-1.426-1.37-1.841-.602-.422-1.343-.633-2.225-.633-.882 0-1.627.21-2.234.633-.601.415-1.058 1.029-1.371 1.84-.307.806-.46 1.797-.46 2.973s.153 2.17.46 2.982c.313.805.77 1.419 1.37 1.84.608.416 1.353.624 2.235.624.882 0 1.623-.208 2.224-.623.608-.422 1.065-1.036 1.371-1.841.313-.812.47-1.806.47-2.982ZM47.08 20V.364h5.331v15.34h7.939V20H47.08Zm26.625 0H66.15V.364h7.478c2.02 0 3.765.393 5.236 1.179a8.122 8.122 0 0 1 3.413 3.375c.805 1.464 1.208 3.218 1.208 5.264 0 2.045-.4 3.803-1.198 5.273a8.225 8.225 0 0 1-3.395 3.375C77.43 19.61 75.7 20 73.705 20Zm-2.224-4.526h2.032c.972 0 1.8-.156 2.484-.47.69-.313 1.214-.853 1.572-1.62.365-.767.547-1.834.547-3.202 0-1.368-.186-2.436-.556-3.203-.365-.767-.902-1.307-1.611-1.62-.703-.313-1.566-.47-2.589-.47h-1.88v10.585Z" fill="#000"/></svg>