<svg fill="none" height="102" width="102" xmlns="http://www.w3.org/2000/svg"><g fill="#fff" fill-opacity=".08"><path d="M1.867 33.196a1.867 1.867 0 1 1-.001 3.734 1.867 1.867 0 0 1 0-3.734zM18.294 33.196a1.867 1.867 0 1 1 0 3.734 1.867 1.867 0 0 1 0-3.734zM34.72 33.195a1.867 1.867 0 1 1 0 3.735 1.867 1.867 0 0 1 0-3.735zM50.934 33.195a1.867 1.867 0 1 1-.001 3.735 1.867 1.867 0 0 1 .001-3.735zM1.867 16.76a1.867 1.867 0 1 1-.001 3.735 1.867 1.867 0 0 1 0-3.734zM18.294 16.76a1.867 1.867 0 1 1-.001 3.735 1.867 1.867 0 0 1 0-3.734zM34.72 16.76a1.867 1.867 0 1 1 0 3.735 1.867 1.867 0 0 1 0-3.734zM50.934 16.76a1.867 1.867 0 1 1 0 3.735 1.867 1.867 0 0 1 0-3.734zM1.867.325a1.867 1.867 0 1 1-.001 3.735 1.867 1.867 0 0 1 0-3.735zM18.294.325a1.867 1.867 0 1 1-.001 3.735 1.867 1.867 0 0 1 0-3.735zM34.72.326a1.867 1.867 0 1 1 0 3.734 1.867 1.867 0 0 1 0-3.734zM50.934.326a1.867 1.867 0 1 1 0 3.734 1.867 1.867 0 0 1 0-3.734zM66.904 33.196a1.867 1.867 0 1 1-.001 3.734 1.867 1.867 0 0 1 0-3.734zM83.33 33.196a1.867 1.867 0 1 1 0 3.734 1.867 1.867 0 0 1 0-3.734zM99.758 33.196c1.031 0 1.866.836 1.866 1.868a1.866 1.866 0 1 1-3.733 0c0-1.032.836-1.868 1.867-1.868zM66.904 16.76a1.867 1.867 0 1 1-.001 3.735 1.867 1.867 0 0 1 0-3.734zM83.33 16.76a1.867 1.867 0 1 1 0 3.735 1.867 1.867 0 0 1 0-3.734zM99.758 16.76a1.867 1.867 0 1 1 0 3.734 1.867 1.867 0 0 1 0-3.733zM66.904.325a1.867 1.867 0 1 1-.001 3.735 1.867 1.867 0 0 1 0-3.735zM83.33.325a1.867 1.867 0 1 1 0 3.735 1.867 1.867 0 0 1 0-3.735zM99.758.325a1.867 1.867 0 1 1 0 3.733 1.867 1.867 0 0 1 0-3.733zM1.867 82.203a1.867 1.867 0 1 1-.001 3.735 1.867 1.867 0 0 1 0-3.735zM18.294 82.203a1.867 1.867 0 1 1-.001 3.734 1.867 1.867 0 0 1 0-3.734zM34.72 82.203a1.867 1.867 0 1 1 0 3.734 1.867 1.867 0 0 1 0-3.734zM50.934 82.203a1.867 1.867 0 1 1 0 3.734 1.867 1.867 0 0 1 0-3.734zM1.867 65.768a1.867 1.867 0 1 1-.001 3.734 1.867 1.867 0 0 1 0-3.734zM18.294 65.768a1.867 1.867 0 1 1 0 3.734 1.867 1.867 0 0 1 0-3.734zM34.72 65.768a1.867 1.867 0 1 1 0 3.734 1.867 1.867 0 0 1 0-3.734zM50.934 65.768a1.867 1.867 0 1 1-.001 3.734 1.867 1.867 0 0 1 .001-3.734zM1.867 98.265a1.867 1.867 0 1 1-.001 3.734 1.867 1.867 0 0 1 0-3.734zM1.867 49.333a1.867 1.867 0 1 1-.001 3.734 1.867 1.867 0 0 1 0-3.734zM18.294 98.265a1.867 1.867 0 1 1 0 3.734 1.867 1.867 0 0 1 0-3.734zM18.294 49.333a1.867 1.867 0 1 1 0 3.734 1.867 1.867 0 0 1 0-3.734zM34.72 98.265a1.867 1.867 0 1 1 0 3.734 1.867 1.867 0 0 1 0-3.734zM50.934 98.265a1.867 1.867 0 1 1-.001 3.735 1.867 1.867 0 0 1 .001-3.735zM34.72 49.333a1.867 1.867 0 1 1 0 3.734 1.867 1.867 0 0 1 0-3.734zM50.934 49.333a1.867 1.867 0 1 1 0 3.734 1.867 1.867 0 0 1 0-3.734zM66.904 82.203a1.867 1.867 0 1 1-.001 3.735 1.867 1.867 0 0 1 0-3.735zM83.33 82.203a1.867 1.867 0 1 1 0 3.735 1.867 1.867 0 0 1 0-3.735zM99.758 82.203a1.867 1.867 0 1 1 0 3.733 1.867 1.867 0 0 1 0-3.733zM66.904 65.768a1.867 1.867 0 1 1-.001 3.734 1.867 1.867 0 0 1 0-3.734zM83.33 65.768a1.867 1.867 0 1 1 0 3.734 1.867 1.867 0 0 1 0-3.734zM99.758 65.768a1.867 1.867 0 1 1 0 3.733 1.867 1.867 0 0 1 0-3.733zM66.904 98.265a1.867 1.867 0 1 1-.001 3.734 1.867 1.867 0 0 1 0-3.734zM66.904 49.333a1.867 1.867 0 1 1-.001 3.734 1.867 1.867 0 0 1 0-3.734zM83.33 98.265a1.867 1.867 0 1 1 0 3.734 1.867 1.867 0 0 1 0-3.734zM83.33 49.333a1.867 1.867 0 1 1 0 3.734 1.867 1.867 0 0 1 0-3.734zM99.758 98.265a1.867 1.867 0 1 1 0 3.738 1.867 1.867 0 0 1 0-3.738zM99.758 49.333a1.867 1.867 0 1 1 0 3.733 1.867 1.867 0 0 1 0-3.733z"/></g></svg>